<mxfile host="app.diagrams.net" agent="Mozilla/5.0 (Windows NT 10.0; Win64; x64) AppleWebKit/537.36 (KHTML, like Gecko) Chrome/128.0.0.0 Safari/537.36 Edg/128.0.0.0" version="24.7.14" pages="3">
  <diagram name="use case" id="D07rkLjBvWrMWCVeeJRK">
    <mxGraphModel dx="1588" dy="1002" grid="1" gridSize="10" guides="1" tooltips="1" connect="1" arrows="1" fold="1" page="1" pageScale="1" pageWidth="850" pageHeight="1100" math="0" shadow="0">
      <root>
        <mxCell id="0" />
        <mxCell id="1" parent="0" />
        <mxCell id="yK4gVapz8PptOJlhmDdy-1" value="External Systems" style="whiteSpace=wrap;strokeWidth=2;" vertex="1" parent="1">
          <mxGeometry x="211" y="679" width="2765" height="99" as="geometry" />
        </mxCell>
        <mxCell id="yK4gVapz8PptOJlhmDdy-2" value="University App" style="whiteSpace=wrap;strokeWidth=2;" vertex="1" parent="1">
          <mxGeometry x="20" y="531" width="3129" height="99" as="geometry" />
        </mxCell>
        <mxCell id="yK4gVapz8PptOJlhmDdy-3" value="Student" style="ellipse;aspect=fixed;strokeWidth=2;whiteSpace=wrap;" vertex="1" parent="1">
          <mxGeometry x="1281" y="410" width="71" height="71" as="geometry" />
        </mxCell>
        <mxCell id="yK4gVapz8PptOJlhmDdy-4" value="Admin" style="ellipse;aspect=fixed;strokeWidth=2;whiteSpace=wrap;" vertex="1" parent="1">
          <mxGeometry x="2736" y="415" width="60" height="60" as="geometry" />
        </mxCell>
        <mxCell id="yK4gVapz8PptOJlhmDdy-5" value="Create/Manage Profile" style="whiteSpace=wrap;strokeWidth=2;" vertex="1" parent="1">
          <mxGeometry x="55" y="556" width="222" height="49" as="geometry" />
        </mxCell>
        <mxCell id="yK4gVapz8PptOJlhmDdy-6" value="Offer/Book Services" style="whiteSpace=wrap;strokeWidth=2;" vertex="1" parent="1">
          <mxGeometry x="327" y="556" width="203" height="49" as="geometry" />
        </mxCell>
        <mxCell id="yK4gVapz8PptOJlhmDdy-7" value="Offer/Request Rides" style="whiteSpace=wrap;strokeWidth=2;" vertex="1" parent="1">
          <mxGeometry x="580" y="556" width="205" height="49" as="geometry" />
        </mxCell>
        <mxCell id="yK4gVapz8PptOJlhmDdy-8" value="Buy/Sell Products" style="whiteSpace=wrap;strokeWidth=2;" vertex="1" parent="1">
          <mxGeometry x="835" y="556" width="186" height="49" as="geometry" />
        </mxCell>
        <mxCell id="yK4gVapz8PptOJlhmDdy-9" value="Join/Create Study Groups" style="whiteSpace=wrap;strokeWidth=2;" vertex="1" parent="1">
          <mxGeometry x="1072" y="556" width="245" height="49" as="geometry" />
        </mxCell>
        <mxCell id="yK4gVapz8PptOJlhmDdy-10" value="Share Assignments/Notes" style="whiteSpace=wrap;strokeWidth=2;" vertex="1" parent="1">
          <mxGeometry x="1366" y="556" width="240" height="49" as="geometry" />
        </mxCell>
        <mxCell id="yK4gVapz8PptOJlhmDdy-11" value="Create/Join Events" style="whiteSpace=wrap;strokeWidth=2;" vertex="1" parent="1">
          <mxGeometry x="1656" y="556" width="197" height="49" as="geometry" />
        </mxCell>
        <mxCell id="yK4gVapz8PptOJlhmDdy-12" value="Receive Notifications" style="whiteSpace=wrap;strokeWidth=2;" vertex="1" parent="1">
          <mxGeometry x="1904" y="556" width="211" height="49" as="geometry" />
        </mxCell>
        <mxCell id="yK4gVapz8PptOJlhmDdy-13" value="Publish Announcements" style="whiteSpace=wrap;strokeWidth=2;" vertex="1" parent="1">
          <mxGeometry x="2387" y="556" width="228" height="49" as="geometry" />
        </mxCell>
        <mxCell id="yK4gVapz8PptOJlhmDdy-14" value="Manage Events" style="whiteSpace=wrap;strokeWidth=2;" vertex="1" parent="1">
          <mxGeometry x="2949" y="556" width="165" height="49" as="geometry" />
        </mxCell>
        <mxCell id="yK4gVapz8PptOJlhmDdy-15" value="Make/Receive Payments" style="whiteSpace=wrap;strokeWidth=2;" vertex="1" parent="1">
          <mxGeometry x="2666" y="556" width="233" height="49" as="geometry" />
        </mxCell>
        <mxCell id="yK4gVapz8PptOJlhmDdy-16" value="Chat with Users" style="whiteSpace=wrap;strokeWidth=2;" vertex="1" parent="1">
          <mxGeometry x="2165" y="556" width="173" height="49" as="geometry" />
        </mxCell>
        <mxCell id="yK4gVapz8PptOJlhmDdy-17" value="Payment System" style="whiteSpace=wrap;strokeWidth=2;" vertex="1" parent="1">
          <mxGeometry x="1493" y="704" width="177" height="49" as="geometry" />
        </mxCell>
        <mxCell id="yK4gVapz8PptOJlhmDdy-18" value="Mapping Service" style="whiteSpace=wrap;strokeWidth=2;" vertex="1" parent="1">
          <mxGeometry x="331" y="704" width="175" height="49" as="geometry" />
        </mxCell>
        <mxCell id="yK4gVapz8PptOJlhmDdy-19" value="University Course System" style="whiteSpace=wrap;strokeWidth=2;" vertex="1" parent="1">
          <mxGeometry x="1974" y="704" width="240" height="49" as="geometry" />
        </mxCell>
        <mxCell id="yK4gVapz8PptOJlhmDdy-20" value="" style="curved=1;startArrow=none;endArrow=block;exitX=0.01;exitY=0.52;entryX=0.5;entryY=-0.01;rounded=0;" edge="1" parent="1" source="yK4gVapz8PptOJlhmDdy-3" target="yK4gVapz8PptOJlhmDdy-5">
          <mxGeometry relative="1" as="geometry">
            <Array as="points">
              <mxPoint x="166" y="506" />
            </Array>
          </mxGeometry>
        </mxCell>
        <mxCell id="yK4gVapz8PptOJlhmDdy-21" value="" style="curved=1;startArrow=none;endArrow=block;exitX=0.01;exitY=0.53;entryX=0.5;entryY=-0.01;rounded=0;" edge="1" parent="1" source="yK4gVapz8PptOJlhmDdy-3" target="yK4gVapz8PptOJlhmDdy-6">
          <mxGeometry relative="1" as="geometry">
            <Array as="points">
              <mxPoint x="428" y="506" />
            </Array>
          </mxGeometry>
        </mxCell>
        <mxCell id="yK4gVapz8PptOJlhmDdy-22" value="" style="curved=1;startArrow=none;endArrow=block;exitX=0.01;exitY=0.54;entryX=0.5;entryY=-0.01;rounded=0;" edge="1" parent="1" source="yK4gVapz8PptOJlhmDdy-3" target="yK4gVapz8PptOJlhmDdy-7">
          <mxGeometry relative="1" as="geometry">
            <Array as="points">
              <mxPoint x="683" y="506" />
            </Array>
          </mxGeometry>
        </mxCell>
        <mxCell id="yK4gVapz8PptOJlhmDdy-23" value="" style="curved=1;startArrow=none;endArrow=block;exitX=0.01;exitY=0.57;entryX=0.5;entryY=-0.01;rounded=0;" edge="1" parent="1" source="yK4gVapz8PptOJlhmDdy-3" target="yK4gVapz8PptOJlhmDdy-8">
          <mxGeometry relative="1" as="geometry">
            <Array as="points">
              <mxPoint x="928" y="506" />
            </Array>
          </mxGeometry>
        </mxCell>
        <mxCell id="yK4gVapz8PptOJlhmDdy-24" value="" style="curved=1;startArrow=none;endArrow=block;exitX=0.01;exitY=0.74;entryX=0.5;entryY=-0.01;rounded=0;" edge="1" parent="1" source="yK4gVapz8PptOJlhmDdy-3" target="yK4gVapz8PptOJlhmDdy-9">
          <mxGeometry relative="1" as="geometry">
            <Array as="points">
              <mxPoint x="1194" y="506" />
            </Array>
          </mxGeometry>
        </mxCell>
        <mxCell id="yK4gVapz8PptOJlhmDdy-25" value="" style="curved=1;startArrow=none;endArrow=block;exitX=1;exitY=0.67;entryX=0.5;entryY=-0.01;rounded=0;" edge="1" parent="1" source="yK4gVapz8PptOJlhmDdy-3" target="yK4gVapz8PptOJlhmDdy-10">
          <mxGeometry relative="1" as="geometry">
            <Array as="points">
              <mxPoint x="1486" y="506" />
            </Array>
          </mxGeometry>
        </mxCell>
        <mxCell id="yK4gVapz8PptOJlhmDdy-26" value="" style="curved=1;startArrow=none;endArrow=block;exitX=1;exitY=0.57;entryX=0.5;entryY=-0.01;rounded=0;" edge="1" parent="1" source="yK4gVapz8PptOJlhmDdy-3" target="yK4gVapz8PptOJlhmDdy-11">
          <mxGeometry relative="1" as="geometry">
            <Array as="points">
              <mxPoint x="1755" y="506" />
            </Array>
          </mxGeometry>
        </mxCell>
        <mxCell id="yK4gVapz8PptOJlhmDdy-27" value="" style="curved=1;startArrow=none;endArrow=block;exitX=1;exitY=0.54;entryX=0.5;entryY=-0.01;rounded=0;" edge="1" parent="1" source="yK4gVapz8PptOJlhmDdy-3" target="yK4gVapz8PptOJlhmDdy-12">
          <mxGeometry relative="1" as="geometry">
            <Array as="points">
              <mxPoint x="2009" y="506" />
            </Array>
          </mxGeometry>
        </mxCell>
        <mxCell id="yK4gVapz8PptOJlhmDdy-28" value="" style="curved=1;startArrow=none;endArrow=block;exitX=1;exitY=0.52;entryX=0;entryY=0.06;rounded=0;" edge="1" parent="1" source="yK4gVapz8PptOJlhmDdy-3" target="yK4gVapz8PptOJlhmDdy-15">
          <mxGeometry relative="1" as="geometry">
            <Array as="points">
              <mxPoint x="2507" y="506" />
              <mxPoint x="2507" y="531" />
            </Array>
          </mxGeometry>
        </mxCell>
        <mxCell id="yK4gVapz8PptOJlhmDdy-29" value="" style="curved=1;startArrow=none;endArrow=block;exitX=1;exitY=0.52;entryX=1;entryY=0.17;rounded=0;" edge="1" parent="1" source="yK4gVapz8PptOJlhmDdy-3" target="yK4gVapz8PptOJlhmDdy-16">
          <mxGeometry relative="1" as="geometry">
            <Array as="points">
              <mxPoint x="2527" y="506" />
              <mxPoint x="2527" y="531" />
            </Array>
          </mxGeometry>
        </mxCell>
        <mxCell id="yK4gVapz8PptOJlhmDdy-30" value="" style="curved=1;startArrow=none;endArrow=block;exitX=0;exitY=0.8;entryX=0.85;entryY=-0.01;rounded=0;" edge="1" parent="1" source="yK4gVapz8PptOJlhmDdy-4" target="yK4gVapz8PptOJlhmDdy-13">
          <mxGeometry relative="1" as="geometry">
            <Array as="points">
              <mxPoint x="2662" y="506" />
              <mxPoint x="2662" y="531" />
            </Array>
          </mxGeometry>
        </mxCell>
        <mxCell id="yK4gVapz8PptOJlhmDdy-31" value="" style="curved=1;startArrow=none;endArrow=block;exitX=1.01;exitY=0.74;entryX=0.1;entryY=-0.01;rounded=0;" edge="1" parent="1" source="yK4gVapz8PptOJlhmDdy-4" target="yK4gVapz8PptOJlhmDdy-14">
          <mxGeometry relative="1" as="geometry">
            <Array as="points">
              <mxPoint x="2897" y="506" />
              <mxPoint x="2897" y="531" />
            </Array>
          </mxGeometry>
        </mxCell>
        <mxCell id="yK4gVapz8PptOJlhmDdy-32" value="" style="curved=1;startArrow=none;endArrow=block;exitX=1.01;exitY=0.71;entryX=0.78;entryY=-0.01;rounded=0;" edge="1" parent="1" source="yK4gVapz8PptOJlhmDdy-4" target="yK4gVapz8PptOJlhmDdy-15">
          <mxGeometry relative="1" as="geometry">
            <Array as="points">
              <mxPoint x="2917" y="506" />
              <mxPoint x="2917" y="531" />
            </Array>
          </mxGeometry>
        </mxCell>
        <mxCell id="yK4gVapz8PptOJlhmDdy-33" value="" style="curved=1;dashed=1;dashPattern=2 3;startArrow=none;endArrow=block;exitX=0.5;exitY=0.98;entryX=0;entryY=0.42;rounded=0;" edge="1" parent="1" source="yK4gVapz8PptOJlhmDdy-6" target="yK4gVapz8PptOJlhmDdy-17">
          <mxGeometry relative="1" as="geometry">
            <Array as="points">
              <mxPoint x="428" y="679" />
            </Array>
          </mxGeometry>
        </mxCell>
        <mxCell id="yK4gVapz8PptOJlhmDdy-34" value="" style="curved=1;dashed=1;dashPattern=2 3;startArrow=none;endArrow=block;exitX=0.5;exitY=0.98;entryX=1;entryY=0.16;rounded=0;" edge="1" parent="1" source="yK4gVapz8PptOJlhmDdy-7" target="yK4gVapz8PptOJlhmDdy-18">
          <mxGeometry relative="1" as="geometry">
            <Array as="points">
              <mxPoint x="683" y="679" />
            </Array>
          </mxGeometry>
        </mxCell>
        <mxCell id="yK4gVapz8PptOJlhmDdy-35" value="" style="curved=1;dashed=1;dashPattern=2 3;startArrow=none;endArrow=block;exitX=0.5;exitY=0.98;entryX=0;entryY=0.36;rounded=0;" edge="1" parent="1" source="yK4gVapz8PptOJlhmDdy-9" target="yK4gVapz8PptOJlhmDdy-19">
          <mxGeometry relative="1" as="geometry">
            <Array as="points">
              <mxPoint x="1194" y="679" />
            </Array>
          </mxGeometry>
        </mxCell>
        <mxCell id="yK4gVapz8PptOJlhmDdy-36" value="" style="curved=1;dashed=1;dashPattern=2 3;startArrow=none;endArrow=block;exitX=0.5;exitY=0.98;entryX=1;entryY=0.42;rounded=0;" edge="1" parent="1" source="yK4gVapz8PptOJlhmDdy-15" target="yK4gVapz8PptOJlhmDdy-17">
          <mxGeometry relative="1" as="geometry">
            <Array as="points">
              <mxPoint x="2782" y="679" />
            </Array>
          </mxGeometry>
        </mxCell>
      </root>
    </mxGraphModel>
  </diagram>
  <diagram id="ojvvZMi0XLFwA9-E21Qv" name="ER">
    <mxGraphModel dx="794" dy="501" grid="1" gridSize="10" guides="1" tooltips="1" connect="1" arrows="1" fold="1" page="1" pageScale="1" pageWidth="850" pageHeight="1100" math="0" shadow="0">
      <root>
        <mxCell id="0" />
        <mxCell id="1" parent="0" />
        <mxCell id="ZCJGiTf_6MgXrqR2AK9Y-1" value="USER" style="shape=table;startSize=25;container=1;collapsible=0;childLayout=tableLayout;fixedRows=1;rowLines=1;fontStyle=1;align=center;resizeLast=1;" vertex="1" parent="1">
          <mxGeometry x="1158" y="20" width="136" height="201" as="geometry" />
        </mxCell>
        <mxCell id="ZCJGiTf_6MgXrqR2AK9Y-2" style="shape=tableRow;horizontal=0;startSize=0;swimlaneHead=0;swimlaneBody=0;fillColor=none;collapsible=0;dropTarget=0;points=[[0,0.5],[1,0.5]];portConstraint=eastwest;top=0;left=0;right=0;bottom=0;" vertex="1" parent="ZCJGiTf_6MgXrqR2AK9Y-1">
          <mxGeometry y="25" width="136" height="22" as="geometry" />
        </mxCell>
        <mxCell id="ZCJGiTf_6MgXrqR2AK9Y-3" value="int" style="shape=partialRectangle;connectable=0;fillColor=none;top=0;left=0;bottom=0;right=0;align=left;spacingLeft=2;overflow=hidden;fontSize=11;" vertex="1" parent="ZCJGiTf_6MgXrqR2AK9Y-2">
          <mxGeometry width="36" height="22" as="geometry">
            <mxRectangle width="36" height="22" as="alternateBounds" />
          </mxGeometry>
        </mxCell>
        <mxCell id="ZCJGiTf_6MgXrqR2AK9Y-4" value="user_id" style="shape=partialRectangle;connectable=0;fillColor=none;top=0;left=0;bottom=0;right=0;align=left;spacingLeft=2;overflow=hidden;fontSize=11;" vertex="1" parent="ZCJGiTf_6MgXrqR2AK9Y-2">
          <mxGeometry x="36" width="100" height="22" as="geometry">
            <mxRectangle width="100" height="22" as="alternateBounds" />
          </mxGeometry>
        </mxCell>
        <mxCell id="ZCJGiTf_6MgXrqR2AK9Y-5" style="shape=tableRow;horizontal=0;startSize=0;swimlaneHead=0;swimlaneBody=0;fillColor=none;collapsible=0;dropTarget=0;points=[[0,0.5],[1,0.5]];portConstraint=eastwest;top=0;left=0;right=0;bottom=0;" vertex="1" parent="ZCJGiTf_6MgXrqR2AK9Y-1">
          <mxGeometry y="47" width="136" height="22" as="geometry" />
        </mxCell>
        <mxCell id="ZCJGiTf_6MgXrqR2AK9Y-6" value="string" style="shape=partialRectangle;connectable=0;fillColor=none;top=0;left=0;bottom=0;right=0;align=left;spacingLeft=2;overflow=hidden;fontSize=11;" vertex="1" parent="ZCJGiTf_6MgXrqR2AK9Y-5">
          <mxGeometry width="36" height="22" as="geometry">
            <mxRectangle width="36" height="22" as="alternateBounds" />
          </mxGeometry>
        </mxCell>
        <mxCell id="ZCJGiTf_6MgXrqR2AK9Y-7" value="name" style="shape=partialRectangle;connectable=0;fillColor=none;top=0;left=0;bottom=0;right=0;align=left;spacingLeft=2;overflow=hidden;fontSize=11;" vertex="1" parent="ZCJGiTf_6MgXrqR2AK9Y-5">
          <mxGeometry x="36" width="100" height="22" as="geometry">
            <mxRectangle width="100" height="22" as="alternateBounds" />
          </mxGeometry>
        </mxCell>
        <mxCell id="ZCJGiTf_6MgXrqR2AK9Y-8" style="shape=tableRow;horizontal=0;startSize=0;swimlaneHead=0;swimlaneBody=0;fillColor=none;collapsible=0;dropTarget=0;points=[[0,0.5],[1,0.5]];portConstraint=eastwest;top=0;left=0;right=0;bottom=0;" vertex="1" parent="ZCJGiTf_6MgXrqR2AK9Y-1">
          <mxGeometry y="69" width="136" height="22" as="geometry" />
        </mxCell>
        <mxCell id="ZCJGiTf_6MgXrqR2AK9Y-9" value="string" style="shape=partialRectangle;connectable=0;fillColor=none;top=0;left=0;bottom=0;right=0;align=left;spacingLeft=2;overflow=hidden;fontSize=11;" vertex="1" parent="ZCJGiTf_6MgXrqR2AK9Y-8">
          <mxGeometry width="36" height="22" as="geometry">
            <mxRectangle width="36" height="22" as="alternateBounds" />
          </mxGeometry>
        </mxCell>
        <mxCell id="ZCJGiTf_6MgXrqR2AK9Y-10" value="email" style="shape=partialRectangle;connectable=0;fillColor=none;top=0;left=0;bottom=0;right=0;align=left;spacingLeft=2;overflow=hidden;fontSize=11;" vertex="1" parent="ZCJGiTf_6MgXrqR2AK9Y-8">
          <mxGeometry x="36" width="100" height="22" as="geometry">
            <mxRectangle width="100" height="22" as="alternateBounds" />
          </mxGeometry>
        </mxCell>
        <mxCell id="ZCJGiTf_6MgXrqR2AK9Y-11" style="shape=tableRow;horizontal=0;startSize=0;swimlaneHead=0;swimlaneBody=0;fillColor=none;collapsible=0;dropTarget=0;points=[[0,0.5],[1,0.5]];portConstraint=eastwest;top=0;left=0;right=0;bottom=0;" vertex="1" parent="ZCJGiTf_6MgXrqR2AK9Y-1">
          <mxGeometry y="91" width="136" height="22" as="geometry" />
        </mxCell>
        <mxCell id="ZCJGiTf_6MgXrqR2AK9Y-12" value="string" style="shape=partialRectangle;connectable=0;fillColor=none;top=0;left=0;bottom=0;right=0;align=left;spacingLeft=2;overflow=hidden;fontSize=11;" vertex="1" parent="ZCJGiTf_6MgXrqR2AK9Y-11">
          <mxGeometry width="36" height="22" as="geometry">
            <mxRectangle width="36" height="22" as="alternateBounds" />
          </mxGeometry>
        </mxCell>
        <mxCell id="ZCJGiTf_6MgXrqR2AK9Y-13" value="password" style="shape=partialRectangle;connectable=0;fillColor=none;top=0;left=0;bottom=0;right=0;align=left;spacingLeft=2;overflow=hidden;fontSize=11;" vertex="1" parent="ZCJGiTf_6MgXrqR2AK9Y-11">
          <mxGeometry x="36" width="100" height="22" as="geometry">
            <mxRectangle width="100" height="22" as="alternateBounds" />
          </mxGeometry>
        </mxCell>
        <mxCell id="ZCJGiTf_6MgXrqR2AK9Y-14" style="shape=tableRow;horizontal=0;startSize=0;swimlaneHead=0;swimlaneBody=0;fillColor=none;collapsible=0;dropTarget=0;points=[[0,0.5],[1,0.5]];portConstraint=eastwest;top=0;left=0;right=0;bottom=0;" vertex="1" parent="ZCJGiTf_6MgXrqR2AK9Y-1">
          <mxGeometry y="113" width="136" height="22" as="geometry" />
        </mxCell>
        <mxCell id="ZCJGiTf_6MgXrqR2AK9Y-15" value="string" style="shape=partialRectangle;connectable=0;fillColor=none;top=0;left=0;bottom=0;right=0;align=left;spacingLeft=2;overflow=hidden;fontSize=11;" vertex="1" parent="ZCJGiTf_6MgXrqR2AK9Y-14">
          <mxGeometry width="36" height="22" as="geometry">
            <mxRectangle width="36" height="22" as="alternateBounds" />
          </mxGeometry>
        </mxCell>
        <mxCell id="ZCJGiTf_6MgXrqR2AK9Y-16" value="user_type" style="shape=partialRectangle;connectable=0;fillColor=none;top=0;left=0;bottom=0;right=0;align=left;spacingLeft=2;overflow=hidden;fontSize=11;" vertex="1" parent="ZCJGiTf_6MgXrqR2AK9Y-14">
          <mxGeometry x="36" width="100" height="22" as="geometry">
            <mxRectangle width="100" height="22" as="alternateBounds" />
          </mxGeometry>
        </mxCell>
        <mxCell id="ZCJGiTf_6MgXrqR2AK9Y-17" style="shape=tableRow;horizontal=0;startSize=0;swimlaneHead=0;swimlaneBody=0;fillColor=none;collapsible=0;dropTarget=0;points=[[0,0.5],[1,0.5]];portConstraint=eastwest;top=0;left=0;right=0;bottom=0;" vertex="1" parent="ZCJGiTf_6MgXrqR2AK9Y-1">
          <mxGeometry y="135" width="136" height="22" as="geometry" />
        </mxCell>
        <mxCell id="ZCJGiTf_6MgXrqR2AK9Y-18" value="string" style="shape=partialRectangle;connectable=0;fillColor=none;top=0;left=0;bottom=0;right=0;align=left;spacingLeft=2;overflow=hidden;fontSize=11;" vertex="1" parent="ZCJGiTf_6MgXrqR2AK9Y-17">
          <mxGeometry width="36" height="22" as="geometry">
            <mxRectangle width="36" height="22" as="alternateBounds" />
          </mxGeometry>
        </mxCell>
        <mxCell id="ZCJGiTf_6MgXrqR2AK9Y-19" value="major" style="shape=partialRectangle;connectable=0;fillColor=none;top=0;left=0;bottom=0;right=0;align=left;spacingLeft=2;overflow=hidden;fontSize=11;" vertex="1" parent="ZCJGiTf_6MgXrqR2AK9Y-17">
          <mxGeometry x="36" width="100" height="22" as="geometry">
            <mxRectangle width="100" height="22" as="alternateBounds" />
          </mxGeometry>
        </mxCell>
        <mxCell id="ZCJGiTf_6MgXrqR2AK9Y-20" style="shape=tableRow;horizontal=0;startSize=0;swimlaneHead=0;swimlaneBody=0;fillColor=none;collapsible=0;dropTarget=0;points=[[0,0.5],[1,0.5]];portConstraint=eastwest;top=0;left=0;right=0;bottom=0;" vertex="1" parent="ZCJGiTf_6MgXrqR2AK9Y-1">
          <mxGeometry y="157" width="136" height="22" as="geometry" />
        </mxCell>
        <mxCell id="ZCJGiTf_6MgXrqR2AK9Y-21" value="int" style="shape=partialRectangle;connectable=0;fillColor=none;top=0;left=0;bottom=0;right=0;align=left;spacingLeft=2;overflow=hidden;fontSize=11;" vertex="1" parent="ZCJGiTf_6MgXrqR2AK9Y-20">
          <mxGeometry width="36" height="22" as="geometry">
            <mxRectangle width="36" height="22" as="alternateBounds" />
          </mxGeometry>
        </mxCell>
        <mxCell id="ZCJGiTf_6MgXrqR2AK9Y-22" value="year" style="shape=partialRectangle;connectable=0;fillColor=none;top=0;left=0;bottom=0;right=0;align=left;spacingLeft=2;overflow=hidden;fontSize=11;" vertex="1" parent="ZCJGiTf_6MgXrqR2AK9Y-20">
          <mxGeometry x="36" width="100" height="22" as="geometry">
            <mxRectangle width="100" height="22" as="alternateBounds" />
          </mxGeometry>
        </mxCell>
        <mxCell id="ZCJGiTf_6MgXrqR2AK9Y-23" style="shape=tableRow;horizontal=0;startSize=0;swimlaneHead=0;swimlaneBody=0;fillColor=none;collapsible=0;dropTarget=0;points=[[0,0.5],[1,0.5]];portConstraint=eastwest;top=0;left=0;right=0;bottom=0;" vertex="1" parent="ZCJGiTf_6MgXrqR2AK9Y-1">
          <mxGeometry y="179" width="136" height="22" as="geometry" />
        </mxCell>
        <mxCell id="ZCJGiTf_6MgXrqR2AK9Y-24" value="string" style="shape=partialRectangle;connectable=0;fillColor=none;top=0;left=0;bottom=0;right=0;align=left;spacingLeft=2;overflow=hidden;fontSize=11;" vertex="1" parent="ZCJGiTf_6MgXrqR2AK9Y-23">
          <mxGeometry width="36" height="22" as="geometry">
            <mxRectangle width="36" height="22" as="alternateBounds" />
          </mxGeometry>
        </mxCell>
        <mxCell id="ZCJGiTf_6MgXrqR2AK9Y-25" value="profile_picture" style="shape=partialRectangle;connectable=0;fillColor=none;top=0;left=0;bottom=0;right=0;align=left;spacingLeft=2;overflow=hidden;fontSize=11;" vertex="1" parent="ZCJGiTf_6MgXrqR2AK9Y-23">
          <mxGeometry x="36" width="100" height="22" as="geometry">
            <mxRectangle width="100" height="22" as="alternateBounds" />
          </mxGeometry>
        </mxCell>
        <mxCell id="ZCJGiTf_6MgXrqR2AK9Y-26" value="SERVICE" style="shape=table;startSize=25;container=1;collapsible=0;childLayout=tableLayout;fixedRows=1;rowLines=1;fontStyle=1;align=center;resizeLast=1;" vertex="1" parent="1">
          <mxGeometry x="20" y="342" width="120" height="135" as="geometry" />
        </mxCell>
        <mxCell id="ZCJGiTf_6MgXrqR2AK9Y-27" style="shape=tableRow;horizontal=0;startSize=0;swimlaneHead=0;swimlaneBody=0;fillColor=none;collapsible=0;dropTarget=0;points=[[0,0.5],[1,0.5]];portConstraint=eastwest;top=0;left=0;right=0;bottom=0;" vertex="1" parent="ZCJGiTf_6MgXrqR2AK9Y-26">
          <mxGeometry y="25" width="120" height="22" as="geometry" />
        </mxCell>
        <mxCell id="ZCJGiTf_6MgXrqR2AK9Y-28" value="int" style="shape=partialRectangle;connectable=0;fillColor=none;top=0;left=0;bottom=0;right=0;align=left;spacingLeft=2;overflow=hidden;fontSize=11;" vertex="1" parent="ZCJGiTf_6MgXrqR2AK9Y-27">
          <mxGeometry width="36" height="22" as="geometry">
            <mxRectangle width="36" height="22" as="alternateBounds" />
          </mxGeometry>
        </mxCell>
        <mxCell id="ZCJGiTf_6MgXrqR2AK9Y-29" value="service_id" style="shape=partialRectangle;connectable=0;fillColor=none;top=0;left=0;bottom=0;right=0;align=left;spacingLeft=2;overflow=hidden;fontSize=11;" vertex="1" parent="ZCJGiTf_6MgXrqR2AK9Y-27">
          <mxGeometry x="36" width="84" height="22" as="geometry">
            <mxRectangle width="84" height="22" as="alternateBounds" />
          </mxGeometry>
        </mxCell>
        <mxCell id="ZCJGiTf_6MgXrqR2AK9Y-30" style="shape=tableRow;horizontal=0;startSize=0;swimlaneHead=0;swimlaneBody=0;fillColor=none;collapsible=0;dropTarget=0;points=[[0,0.5],[1,0.5]];portConstraint=eastwest;top=0;left=0;right=0;bottom=0;" vertex="1" parent="ZCJGiTf_6MgXrqR2AK9Y-26">
          <mxGeometry y="47" width="120" height="22" as="geometry" />
        </mxCell>
        <mxCell id="ZCJGiTf_6MgXrqR2AK9Y-31" value="int" style="shape=partialRectangle;connectable=0;fillColor=none;top=0;left=0;bottom=0;right=0;align=left;spacingLeft=2;overflow=hidden;fontSize=11;" vertex="1" parent="ZCJGiTf_6MgXrqR2AK9Y-30">
          <mxGeometry width="36" height="22" as="geometry">
            <mxRectangle width="36" height="22" as="alternateBounds" />
          </mxGeometry>
        </mxCell>
        <mxCell id="ZCJGiTf_6MgXrqR2AK9Y-32" value="provider_id" style="shape=partialRectangle;connectable=0;fillColor=none;top=0;left=0;bottom=0;right=0;align=left;spacingLeft=2;overflow=hidden;fontSize=11;" vertex="1" parent="ZCJGiTf_6MgXrqR2AK9Y-30">
          <mxGeometry x="36" width="84" height="22" as="geometry">
            <mxRectangle width="84" height="22" as="alternateBounds" />
          </mxGeometry>
        </mxCell>
        <mxCell id="ZCJGiTf_6MgXrqR2AK9Y-33" style="shape=tableRow;horizontal=0;startSize=0;swimlaneHead=0;swimlaneBody=0;fillColor=none;collapsible=0;dropTarget=0;points=[[0,0.5],[1,0.5]];portConstraint=eastwest;top=0;left=0;right=0;bottom=0;" vertex="1" parent="ZCJGiTf_6MgXrqR2AK9Y-26">
          <mxGeometry y="69" width="120" height="22" as="geometry" />
        </mxCell>
        <mxCell id="ZCJGiTf_6MgXrqR2AK9Y-34" value="string" style="shape=partialRectangle;connectable=0;fillColor=none;top=0;left=0;bottom=0;right=0;align=left;spacingLeft=2;overflow=hidden;fontSize=11;" vertex="1" parent="ZCJGiTf_6MgXrqR2AK9Y-33">
          <mxGeometry width="36" height="22" as="geometry">
            <mxRectangle width="36" height="22" as="alternateBounds" />
          </mxGeometry>
        </mxCell>
        <mxCell id="ZCJGiTf_6MgXrqR2AK9Y-35" value="description" style="shape=partialRectangle;connectable=0;fillColor=none;top=0;left=0;bottom=0;right=0;align=left;spacingLeft=2;overflow=hidden;fontSize=11;" vertex="1" parent="ZCJGiTf_6MgXrqR2AK9Y-33">
          <mxGeometry x="36" width="84" height="22" as="geometry">
            <mxRectangle width="84" height="22" as="alternateBounds" />
          </mxGeometry>
        </mxCell>
        <mxCell id="ZCJGiTf_6MgXrqR2AK9Y-36" style="shape=tableRow;horizontal=0;startSize=0;swimlaneHead=0;swimlaneBody=0;fillColor=none;collapsible=0;dropTarget=0;points=[[0,0.5],[1,0.5]];portConstraint=eastwest;top=0;left=0;right=0;bottom=0;" vertex="1" parent="ZCJGiTf_6MgXrqR2AK9Y-26">
          <mxGeometry y="91" width="120" height="22" as="geometry" />
        </mxCell>
        <mxCell id="ZCJGiTf_6MgXrqR2AK9Y-37" value="float" style="shape=partialRectangle;connectable=0;fillColor=none;top=0;left=0;bottom=0;right=0;align=left;spacingLeft=2;overflow=hidden;fontSize=11;" vertex="1" parent="ZCJGiTf_6MgXrqR2AK9Y-36">
          <mxGeometry width="36" height="22" as="geometry">
            <mxRectangle width="36" height="22" as="alternateBounds" />
          </mxGeometry>
        </mxCell>
        <mxCell id="ZCJGiTf_6MgXrqR2AK9Y-38" value="price" style="shape=partialRectangle;connectable=0;fillColor=none;top=0;left=0;bottom=0;right=0;align=left;spacingLeft=2;overflow=hidden;fontSize=11;" vertex="1" parent="ZCJGiTf_6MgXrqR2AK9Y-36">
          <mxGeometry x="36" width="84" height="22" as="geometry">
            <mxRectangle width="84" height="22" as="alternateBounds" />
          </mxGeometry>
        </mxCell>
        <mxCell id="ZCJGiTf_6MgXrqR2AK9Y-39" style="shape=tableRow;horizontal=0;startSize=0;swimlaneHead=0;swimlaneBody=0;fillColor=none;collapsible=0;dropTarget=0;points=[[0,0.5],[1,0.5]];portConstraint=eastwest;top=0;left=0;right=0;bottom=0;" vertex="1" parent="ZCJGiTf_6MgXrqR2AK9Y-26">
          <mxGeometry y="113" width="120" height="22" as="geometry" />
        </mxCell>
        <mxCell id="ZCJGiTf_6MgXrqR2AK9Y-40" value="string" style="shape=partialRectangle;connectable=0;fillColor=none;top=0;left=0;bottom=0;right=0;align=left;spacingLeft=2;overflow=hidden;fontSize=11;" vertex="1" parent="ZCJGiTf_6MgXrqR2AK9Y-39">
          <mxGeometry width="36" height="22" as="geometry">
            <mxRectangle width="36" height="22" as="alternateBounds" />
          </mxGeometry>
        </mxCell>
        <mxCell id="ZCJGiTf_6MgXrqR2AK9Y-41" value="category" style="shape=partialRectangle;connectable=0;fillColor=none;top=0;left=0;bottom=0;right=0;align=left;spacingLeft=2;overflow=hidden;fontSize=11;" vertex="1" parent="ZCJGiTf_6MgXrqR2AK9Y-39">
          <mxGeometry x="36" width="84" height="22" as="geometry">
            <mxRectangle width="84" height="22" as="alternateBounds" />
          </mxGeometry>
        </mxCell>
        <mxCell id="ZCJGiTf_6MgXrqR2AK9Y-42" value="SERVICE_REVIEW" style="shape=table;startSize=25;container=1;collapsible=0;childLayout=tableLayout;fixedRows=1;rowLines=1;fontStyle=1;align=center;resizeLast=1;" vertex="1" parent="1">
          <mxGeometry x="98" y="609" width="124" height="157" as="geometry" />
        </mxCell>
        <mxCell id="ZCJGiTf_6MgXrqR2AK9Y-43" style="shape=tableRow;horizontal=0;startSize=0;swimlaneHead=0;swimlaneBody=0;fillColor=none;collapsible=0;dropTarget=0;points=[[0,0.5],[1,0.5]];portConstraint=eastwest;top=0;left=0;right=0;bottom=0;" vertex="1" parent="ZCJGiTf_6MgXrqR2AK9Y-42">
          <mxGeometry y="25" width="124" height="22" as="geometry" />
        </mxCell>
        <mxCell id="ZCJGiTf_6MgXrqR2AK9Y-44" value="int" style="shape=partialRectangle;connectable=0;fillColor=none;top=0;left=0;bottom=0;right=0;align=left;spacingLeft=2;overflow=hidden;fontSize=11;" vertex="1" parent="ZCJGiTf_6MgXrqR2AK9Y-43">
          <mxGeometry width="36" height="22" as="geometry">
            <mxRectangle width="36" height="22" as="alternateBounds" />
          </mxGeometry>
        </mxCell>
        <mxCell id="ZCJGiTf_6MgXrqR2AK9Y-45" value="review_id" style="shape=partialRectangle;connectable=0;fillColor=none;top=0;left=0;bottom=0;right=0;align=left;spacingLeft=2;overflow=hidden;fontSize=11;" vertex="1" parent="ZCJGiTf_6MgXrqR2AK9Y-43">
          <mxGeometry x="36" width="88" height="22" as="geometry">
            <mxRectangle width="88" height="22" as="alternateBounds" />
          </mxGeometry>
        </mxCell>
        <mxCell id="ZCJGiTf_6MgXrqR2AK9Y-46" style="shape=tableRow;horizontal=0;startSize=0;swimlaneHead=0;swimlaneBody=0;fillColor=none;collapsible=0;dropTarget=0;points=[[0,0.5],[1,0.5]];portConstraint=eastwest;top=0;left=0;right=0;bottom=0;" vertex="1" parent="ZCJGiTf_6MgXrqR2AK9Y-42">
          <mxGeometry y="47" width="124" height="22" as="geometry" />
        </mxCell>
        <mxCell id="ZCJGiTf_6MgXrqR2AK9Y-47" value="int" style="shape=partialRectangle;connectable=0;fillColor=none;top=0;left=0;bottom=0;right=0;align=left;spacingLeft=2;overflow=hidden;fontSize=11;" vertex="1" parent="ZCJGiTf_6MgXrqR2AK9Y-46">
          <mxGeometry width="36" height="22" as="geometry">
            <mxRectangle width="36" height="22" as="alternateBounds" />
          </mxGeometry>
        </mxCell>
        <mxCell id="ZCJGiTf_6MgXrqR2AK9Y-48" value="service_id" style="shape=partialRectangle;connectable=0;fillColor=none;top=0;left=0;bottom=0;right=0;align=left;spacingLeft=2;overflow=hidden;fontSize=11;" vertex="1" parent="ZCJGiTf_6MgXrqR2AK9Y-46">
          <mxGeometry x="36" width="88" height="22" as="geometry">
            <mxRectangle width="88" height="22" as="alternateBounds" />
          </mxGeometry>
        </mxCell>
        <mxCell id="ZCJGiTf_6MgXrqR2AK9Y-49" style="shape=tableRow;horizontal=0;startSize=0;swimlaneHead=0;swimlaneBody=0;fillColor=none;collapsible=0;dropTarget=0;points=[[0,0.5],[1,0.5]];portConstraint=eastwest;top=0;left=0;right=0;bottom=0;" vertex="1" parent="ZCJGiTf_6MgXrqR2AK9Y-42">
          <mxGeometry y="69" width="124" height="22" as="geometry" />
        </mxCell>
        <mxCell id="ZCJGiTf_6MgXrqR2AK9Y-50" value="int" style="shape=partialRectangle;connectable=0;fillColor=none;top=0;left=0;bottom=0;right=0;align=left;spacingLeft=2;overflow=hidden;fontSize=11;" vertex="1" parent="ZCJGiTf_6MgXrqR2AK9Y-49">
          <mxGeometry width="36" height="22" as="geometry">
            <mxRectangle width="36" height="22" as="alternateBounds" />
          </mxGeometry>
        </mxCell>
        <mxCell id="ZCJGiTf_6MgXrqR2AK9Y-51" value="reviewer_id" style="shape=partialRectangle;connectable=0;fillColor=none;top=0;left=0;bottom=0;right=0;align=left;spacingLeft=2;overflow=hidden;fontSize=11;" vertex="1" parent="ZCJGiTf_6MgXrqR2AK9Y-49">
          <mxGeometry x="36" width="88" height="22" as="geometry">
            <mxRectangle width="88" height="22" as="alternateBounds" />
          </mxGeometry>
        </mxCell>
        <mxCell id="ZCJGiTf_6MgXrqR2AK9Y-52" style="shape=tableRow;horizontal=0;startSize=0;swimlaneHead=0;swimlaneBody=0;fillColor=none;collapsible=0;dropTarget=0;points=[[0,0.5],[1,0.5]];portConstraint=eastwest;top=0;left=0;right=0;bottom=0;" vertex="1" parent="ZCJGiTf_6MgXrqR2AK9Y-42">
          <mxGeometry y="91" width="124" height="22" as="geometry" />
        </mxCell>
        <mxCell id="ZCJGiTf_6MgXrqR2AK9Y-53" value="int" style="shape=partialRectangle;connectable=0;fillColor=none;top=0;left=0;bottom=0;right=0;align=left;spacingLeft=2;overflow=hidden;fontSize=11;" vertex="1" parent="ZCJGiTf_6MgXrqR2AK9Y-52">
          <mxGeometry width="36" height="22" as="geometry">
            <mxRectangle width="36" height="22" as="alternateBounds" />
          </mxGeometry>
        </mxCell>
        <mxCell id="ZCJGiTf_6MgXrqR2AK9Y-54" value="rating" style="shape=partialRectangle;connectable=0;fillColor=none;top=0;left=0;bottom=0;right=0;align=left;spacingLeft=2;overflow=hidden;fontSize=11;" vertex="1" parent="ZCJGiTf_6MgXrqR2AK9Y-52">
          <mxGeometry x="36" width="88" height="22" as="geometry">
            <mxRectangle width="88" height="22" as="alternateBounds" />
          </mxGeometry>
        </mxCell>
        <mxCell id="ZCJGiTf_6MgXrqR2AK9Y-55" style="shape=tableRow;horizontal=0;startSize=0;swimlaneHead=0;swimlaneBody=0;fillColor=none;collapsible=0;dropTarget=0;points=[[0,0.5],[1,0.5]];portConstraint=eastwest;top=0;left=0;right=0;bottom=0;" vertex="1" parent="ZCJGiTf_6MgXrqR2AK9Y-42">
          <mxGeometry y="113" width="124" height="22" as="geometry" />
        </mxCell>
        <mxCell id="ZCJGiTf_6MgXrqR2AK9Y-56" value="string" style="shape=partialRectangle;connectable=0;fillColor=none;top=0;left=0;bottom=0;right=0;align=left;spacingLeft=2;overflow=hidden;fontSize=11;" vertex="1" parent="ZCJGiTf_6MgXrqR2AK9Y-55">
          <mxGeometry width="36" height="22" as="geometry">
            <mxRectangle width="36" height="22" as="alternateBounds" />
          </mxGeometry>
        </mxCell>
        <mxCell id="ZCJGiTf_6MgXrqR2AK9Y-57" value="comment" style="shape=partialRectangle;connectable=0;fillColor=none;top=0;left=0;bottom=0;right=0;align=left;spacingLeft=2;overflow=hidden;fontSize=11;" vertex="1" parent="ZCJGiTf_6MgXrqR2AK9Y-55">
          <mxGeometry x="36" width="88" height="22" as="geometry">
            <mxRectangle width="88" height="22" as="alternateBounds" />
          </mxGeometry>
        </mxCell>
        <mxCell id="ZCJGiTf_6MgXrqR2AK9Y-58" style="shape=tableRow;horizontal=0;startSize=0;swimlaneHead=0;swimlaneBody=0;fillColor=none;collapsible=0;dropTarget=0;points=[[0,0.5],[1,0.5]];portConstraint=eastwest;top=0;left=0;right=0;bottom=0;" vertex="1" parent="ZCJGiTf_6MgXrqR2AK9Y-42">
          <mxGeometry y="135" width="124" height="22" as="geometry" />
        </mxCell>
        <mxCell id="ZCJGiTf_6MgXrqR2AK9Y-59" value="date" style="shape=partialRectangle;connectable=0;fillColor=none;top=0;left=0;bottom=0;right=0;align=left;spacingLeft=2;overflow=hidden;fontSize=11;" vertex="1" parent="ZCJGiTf_6MgXrqR2AK9Y-58">
          <mxGeometry width="36" height="22" as="geometry">
            <mxRectangle width="36" height="22" as="alternateBounds" />
          </mxGeometry>
        </mxCell>
        <mxCell id="ZCJGiTf_6MgXrqR2AK9Y-60" value="review_date" style="shape=partialRectangle;connectable=0;fillColor=none;top=0;left=0;bottom=0;right=0;align=left;spacingLeft=2;overflow=hidden;fontSize=11;" vertex="1" parent="ZCJGiTf_6MgXrqR2AK9Y-58">
          <mxGeometry x="36" width="88" height="22" as="geometry">
            <mxRectangle width="88" height="22" as="alternateBounds" />
          </mxGeometry>
        </mxCell>
        <mxCell id="ZCJGiTf_6MgXrqR2AK9Y-61" value="DRIVER" style="shape=table;startSize=25;container=1;collapsible=0;childLayout=tableLayout;fixedRows=1;rowLines=1;fontStyle=1;align=center;resizeLast=1;" vertex="1" parent="1">
          <mxGeometry x="578" y="331" width="140" height="157" as="geometry" />
        </mxCell>
        <mxCell id="ZCJGiTf_6MgXrqR2AK9Y-62" style="shape=tableRow;horizontal=0;startSize=0;swimlaneHead=0;swimlaneBody=0;fillColor=none;collapsible=0;dropTarget=0;points=[[0,0.5],[1,0.5]];portConstraint=eastwest;top=0;left=0;right=0;bottom=0;" vertex="1" parent="ZCJGiTf_6MgXrqR2AK9Y-61">
          <mxGeometry y="25" width="140" height="22" as="geometry" />
        </mxCell>
        <mxCell id="ZCJGiTf_6MgXrqR2AK9Y-63" value="int" style="shape=partialRectangle;connectable=0;fillColor=none;top=0;left=0;bottom=0;right=0;align=left;spacingLeft=2;overflow=hidden;fontSize=11;" vertex="1" parent="ZCJGiTf_6MgXrqR2AK9Y-62">
          <mxGeometry width="36" height="22" as="geometry">
            <mxRectangle width="36" height="22" as="alternateBounds" />
          </mxGeometry>
        </mxCell>
        <mxCell id="ZCJGiTf_6MgXrqR2AK9Y-64" value="driver_id" style="shape=partialRectangle;connectable=0;fillColor=none;top=0;left=0;bottom=0;right=0;align=left;spacingLeft=2;overflow=hidden;fontSize=11;" vertex="1" parent="ZCJGiTf_6MgXrqR2AK9Y-62">
          <mxGeometry x="36" width="104" height="22" as="geometry">
            <mxRectangle width="104" height="22" as="alternateBounds" />
          </mxGeometry>
        </mxCell>
        <mxCell id="ZCJGiTf_6MgXrqR2AK9Y-65" style="shape=tableRow;horizontal=0;startSize=0;swimlaneHead=0;swimlaneBody=0;fillColor=none;collapsible=0;dropTarget=0;points=[[0,0.5],[1,0.5]];portConstraint=eastwest;top=0;left=0;right=0;bottom=0;" vertex="1" parent="ZCJGiTf_6MgXrqR2AK9Y-61">
          <mxGeometry y="47" width="140" height="22" as="geometry" />
        </mxCell>
        <mxCell id="ZCJGiTf_6MgXrqR2AK9Y-66" value="int" style="shape=partialRectangle;connectable=0;fillColor=none;top=0;left=0;bottom=0;right=0;align=left;spacingLeft=2;overflow=hidden;fontSize=11;" vertex="1" parent="ZCJGiTf_6MgXrqR2AK9Y-65">
          <mxGeometry width="36" height="22" as="geometry">
            <mxRectangle width="36" height="22" as="alternateBounds" />
          </mxGeometry>
        </mxCell>
        <mxCell id="ZCJGiTf_6MgXrqR2AK9Y-67" value="user_id" style="shape=partialRectangle;connectable=0;fillColor=none;top=0;left=0;bottom=0;right=0;align=left;spacingLeft=2;overflow=hidden;fontSize=11;" vertex="1" parent="ZCJGiTf_6MgXrqR2AK9Y-65">
          <mxGeometry x="36" width="104" height="22" as="geometry">
            <mxRectangle width="104" height="22" as="alternateBounds" />
          </mxGeometry>
        </mxCell>
        <mxCell id="ZCJGiTf_6MgXrqR2AK9Y-68" style="shape=tableRow;horizontal=0;startSize=0;swimlaneHead=0;swimlaneBody=0;fillColor=none;collapsible=0;dropTarget=0;points=[[0,0.5],[1,0.5]];portConstraint=eastwest;top=0;left=0;right=0;bottom=0;" vertex="1" parent="ZCJGiTf_6MgXrqR2AK9Y-61">
          <mxGeometry y="69" width="140" height="22" as="geometry" />
        </mxCell>
        <mxCell id="ZCJGiTf_6MgXrqR2AK9Y-69" value="string" style="shape=partialRectangle;connectable=0;fillColor=none;top=0;left=0;bottom=0;right=0;align=left;spacingLeft=2;overflow=hidden;fontSize=11;" vertex="1" parent="ZCJGiTf_6MgXrqR2AK9Y-68">
          <mxGeometry width="36" height="22" as="geometry">
            <mxRectangle width="36" height="22" as="alternateBounds" />
          </mxGeometry>
        </mxCell>
        <mxCell id="ZCJGiTf_6MgXrqR2AK9Y-70" value="license_number" style="shape=partialRectangle;connectable=0;fillColor=none;top=0;left=0;bottom=0;right=0;align=left;spacingLeft=2;overflow=hidden;fontSize=11;" vertex="1" parent="ZCJGiTf_6MgXrqR2AK9Y-68">
          <mxGeometry x="36" width="104" height="22" as="geometry">
            <mxRectangle width="104" height="22" as="alternateBounds" />
          </mxGeometry>
        </mxCell>
        <mxCell id="ZCJGiTf_6MgXrqR2AK9Y-71" style="shape=tableRow;horizontal=0;startSize=0;swimlaneHead=0;swimlaneBody=0;fillColor=none;collapsible=0;dropTarget=0;points=[[0,0.5],[1,0.5]];portConstraint=eastwest;top=0;left=0;right=0;bottom=0;" vertex="1" parent="ZCJGiTf_6MgXrqR2AK9Y-61">
          <mxGeometry y="91" width="140" height="22" as="geometry" />
        </mxCell>
        <mxCell id="ZCJGiTf_6MgXrqR2AK9Y-72" value="string" style="shape=partialRectangle;connectable=0;fillColor=none;top=0;left=0;bottom=0;right=0;align=left;spacingLeft=2;overflow=hidden;fontSize=11;" vertex="1" parent="ZCJGiTf_6MgXrqR2AK9Y-71">
          <mxGeometry width="36" height="22" as="geometry">
            <mxRectangle width="36" height="22" as="alternateBounds" />
          </mxGeometry>
        </mxCell>
        <mxCell id="ZCJGiTf_6MgXrqR2AK9Y-73" value="car_model" style="shape=partialRectangle;connectable=0;fillColor=none;top=0;left=0;bottom=0;right=0;align=left;spacingLeft=2;overflow=hidden;fontSize=11;" vertex="1" parent="ZCJGiTf_6MgXrqR2AK9Y-71">
          <mxGeometry x="36" width="104" height="22" as="geometry">
            <mxRectangle width="104" height="22" as="alternateBounds" />
          </mxGeometry>
        </mxCell>
        <mxCell id="ZCJGiTf_6MgXrqR2AK9Y-74" style="shape=tableRow;horizontal=0;startSize=0;swimlaneHead=0;swimlaneBody=0;fillColor=none;collapsible=0;dropTarget=0;points=[[0,0.5],[1,0.5]];portConstraint=eastwest;top=0;left=0;right=0;bottom=0;" vertex="1" parent="ZCJGiTf_6MgXrqR2AK9Y-61">
          <mxGeometry y="113" width="140" height="22" as="geometry" />
        </mxCell>
        <mxCell id="ZCJGiTf_6MgXrqR2AK9Y-75" value="string" style="shape=partialRectangle;connectable=0;fillColor=none;top=0;left=0;bottom=0;right=0;align=left;spacingLeft=2;overflow=hidden;fontSize=11;" vertex="1" parent="ZCJGiTf_6MgXrqR2AK9Y-74">
          <mxGeometry width="36" height="22" as="geometry">
            <mxRectangle width="36" height="22" as="alternateBounds" />
          </mxGeometry>
        </mxCell>
        <mxCell id="ZCJGiTf_6MgXrqR2AK9Y-76" value="car_color" style="shape=partialRectangle;connectable=0;fillColor=none;top=0;left=0;bottom=0;right=0;align=left;spacingLeft=2;overflow=hidden;fontSize=11;" vertex="1" parent="ZCJGiTf_6MgXrqR2AK9Y-74">
          <mxGeometry x="36" width="104" height="22" as="geometry">
            <mxRectangle width="104" height="22" as="alternateBounds" />
          </mxGeometry>
        </mxCell>
        <mxCell id="ZCJGiTf_6MgXrqR2AK9Y-77" style="shape=tableRow;horizontal=0;startSize=0;swimlaneHead=0;swimlaneBody=0;fillColor=none;collapsible=0;dropTarget=0;points=[[0,0.5],[1,0.5]];portConstraint=eastwest;top=0;left=0;right=0;bottom=0;" vertex="1" parent="ZCJGiTf_6MgXrqR2AK9Y-61">
          <mxGeometry y="135" width="140" height="22" as="geometry" />
        </mxCell>
        <mxCell id="ZCJGiTf_6MgXrqR2AK9Y-78" value="int" style="shape=partialRectangle;connectable=0;fillColor=none;top=0;left=0;bottom=0;right=0;align=left;spacingLeft=2;overflow=hidden;fontSize=11;" vertex="1" parent="ZCJGiTf_6MgXrqR2AK9Y-77">
          <mxGeometry width="36" height="22" as="geometry">
            <mxRectangle width="36" height="22" as="alternateBounds" />
          </mxGeometry>
        </mxCell>
        <mxCell id="ZCJGiTf_6MgXrqR2AK9Y-79" value="car_capacity" style="shape=partialRectangle;connectable=0;fillColor=none;top=0;left=0;bottom=0;right=0;align=left;spacingLeft=2;overflow=hidden;fontSize=11;" vertex="1" parent="ZCJGiTf_6MgXrqR2AK9Y-77">
          <mxGeometry x="36" width="104" height="22" as="geometry">
            <mxRectangle width="104" height="22" as="alternateBounds" />
          </mxGeometry>
        </mxCell>
        <mxCell id="ZCJGiTf_6MgXrqR2AK9Y-80" value="RIDE" style="shape=table;startSize=25;container=1;collapsible=0;childLayout=tableLayout;fixedRows=1;rowLines=1;fontStyle=1;align=center;resizeLast=1;" vertex="1" parent="1">
          <mxGeometry x="909" y="598" width="147" height="179" as="geometry" />
        </mxCell>
        <mxCell id="ZCJGiTf_6MgXrqR2AK9Y-81" style="shape=tableRow;horizontal=0;startSize=0;swimlaneHead=0;swimlaneBody=0;fillColor=none;collapsible=0;dropTarget=0;points=[[0,0.5],[1,0.5]];portConstraint=eastwest;top=0;left=0;right=0;bottom=0;" vertex="1" parent="ZCJGiTf_6MgXrqR2AK9Y-80">
          <mxGeometry y="25" width="147" height="22" as="geometry" />
        </mxCell>
        <mxCell id="ZCJGiTf_6MgXrqR2AK9Y-82" value="int" style="shape=partialRectangle;connectable=0;fillColor=none;top=0;left=0;bottom=0;right=0;align=left;spacingLeft=2;overflow=hidden;fontSize=11;" vertex="1" parent="ZCJGiTf_6MgXrqR2AK9Y-81">
          <mxGeometry width="48" height="22" as="geometry">
            <mxRectangle width="48" height="22" as="alternateBounds" />
          </mxGeometry>
        </mxCell>
        <mxCell id="ZCJGiTf_6MgXrqR2AK9Y-83" value="ride_id" style="shape=partialRectangle;connectable=0;fillColor=none;top=0;left=0;bottom=0;right=0;align=left;spacingLeft=2;overflow=hidden;fontSize=11;" vertex="1" parent="ZCJGiTf_6MgXrqR2AK9Y-81">
          <mxGeometry x="48" width="99" height="22" as="geometry">
            <mxRectangle width="99" height="22" as="alternateBounds" />
          </mxGeometry>
        </mxCell>
        <mxCell id="ZCJGiTf_6MgXrqR2AK9Y-84" style="shape=tableRow;horizontal=0;startSize=0;swimlaneHead=0;swimlaneBody=0;fillColor=none;collapsible=0;dropTarget=0;points=[[0,0.5],[1,0.5]];portConstraint=eastwest;top=0;left=0;right=0;bottom=0;" vertex="1" parent="ZCJGiTf_6MgXrqR2AK9Y-80">
          <mxGeometry y="47" width="147" height="22" as="geometry" />
        </mxCell>
        <mxCell id="ZCJGiTf_6MgXrqR2AK9Y-85" value="int" style="shape=partialRectangle;connectable=0;fillColor=none;top=0;left=0;bottom=0;right=0;align=left;spacingLeft=2;overflow=hidden;fontSize=11;" vertex="1" parent="ZCJGiTf_6MgXrqR2AK9Y-84">
          <mxGeometry width="48" height="22" as="geometry">
            <mxRectangle width="48" height="22" as="alternateBounds" />
          </mxGeometry>
        </mxCell>
        <mxCell id="ZCJGiTf_6MgXrqR2AK9Y-86" value="driver_id" style="shape=partialRectangle;connectable=0;fillColor=none;top=0;left=0;bottom=0;right=0;align=left;spacingLeft=2;overflow=hidden;fontSize=11;" vertex="1" parent="ZCJGiTf_6MgXrqR2AK9Y-84">
          <mxGeometry x="48" width="99" height="22" as="geometry">
            <mxRectangle width="99" height="22" as="alternateBounds" />
          </mxGeometry>
        </mxCell>
        <mxCell id="ZCJGiTf_6MgXrqR2AK9Y-87" style="shape=tableRow;horizontal=0;startSize=0;swimlaneHead=0;swimlaneBody=0;fillColor=none;collapsible=0;dropTarget=0;points=[[0,0.5],[1,0.5]];portConstraint=eastwest;top=0;left=0;right=0;bottom=0;" vertex="1" parent="ZCJGiTf_6MgXrqR2AK9Y-80">
          <mxGeometry y="69" width="147" height="22" as="geometry" />
        </mxCell>
        <mxCell id="ZCJGiTf_6MgXrqR2AK9Y-88" value="int" style="shape=partialRectangle;connectable=0;fillColor=none;top=0;left=0;bottom=0;right=0;align=left;spacingLeft=2;overflow=hidden;fontSize=11;" vertex="1" parent="ZCJGiTf_6MgXrqR2AK9Y-87">
          <mxGeometry width="48" height="22" as="geometry">
            <mxRectangle width="48" height="22" as="alternateBounds" />
          </mxGeometry>
        </mxCell>
        <mxCell id="ZCJGiTf_6MgXrqR2AK9Y-89" value="passenger_id" style="shape=partialRectangle;connectable=0;fillColor=none;top=0;left=0;bottom=0;right=0;align=left;spacingLeft=2;overflow=hidden;fontSize=11;" vertex="1" parent="ZCJGiTf_6MgXrqR2AK9Y-87">
          <mxGeometry x="48" width="99" height="22" as="geometry">
            <mxRectangle width="99" height="22" as="alternateBounds" />
          </mxGeometry>
        </mxCell>
        <mxCell id="ZCJGiTf_6MgXrqR2AK9Y-90" style="shape=tableRow;horizontal=0;startSize=0;swimlaneHead=0;swimlaneBody=0;fillColor=none;collapsible=0;dropTarget=0;points=[[0,0.5],[1,0.5]];portConstraint=eastwest;top=0;left=0;right=0;bottom=0;" vertex="1" parent="ZCJGiTf_6MgXrqR2AK9Y-80">
          <mxGeometry y="91" width="147" height="22" as="geometry" />
        </mxCell>
        <mxCell id="ZCJGiTf_6MgXrqR2AK9Y-91" value="datetime" style="shape=partialRectangle;connectable=0;fillColor=none;top=0;left=0;bottom=0;right=0;align=left;spacingLeft=2;overflow=hidden;fontSize=11;" vertex="1" parent="ZCJGiTf_6MgXrqR2AK9Y-90">
          <mxGeometry width="48" height="22" as="geometry">
            <mxRectangle width="48" height="22" as="alternateBounds" />
          </mxGeometry>
        </mxCell>
        <mxCell id="ZCJGiTf_6MgXrqR2AK9Y-92" value="datetime" style="shape=partialRectangle;connectable=0;fillColor=none;top=0;left=0;bottom=0;right=0;align=left;spacingLeft=2;overflow=hidden;fontSize=11;" vertex="1" parent="ZCJGiTf_6MgXrqR2AK9Y-90">
          <mxGeometry x="48" width="99" height="22" as="geometry">
            <mxRectangle width="99" height="22" as="alternateBounds" />
          </mxGeometry>
        </mxCell>
        <mxCell id="ZCJGiTf_6MgXrqR2AK9Y-93" style="shape=tableRow;horizontal=0;startSize=0;swimlaneHead=0;swimlaneBody=0;fillColor=none;collapsible=0;dropTarget=0;points=[[0,0.5],[1,0.5]];portConstraint=eastwest;top=0;left=0;right=0;bottom=0;" vertex="1" parent="ZCJGiTf_6MgXrqR2AK9Y-80">
          <mxGeometry y="113" width="147" height="22" as="geometry" />
        </mxCell>
        <mxCell id="ZCJGiTf_6MgXrqR2AK9Y-94" value="string" style="shape=partialRectangle;connectable=0;fillColor=none;top=0;left=0;bottom=0;right=0;align=left;spacingLeft=2;overflow=hidden;fontSize=11;" vertex="1" parent="ZCJGiTf_6MgXrqR2AK9Y-93">
          <mxGeometry width="48" height="22" as="geometry">
            <mxRectangle width="48" height="22" as="alternateBounds" />
          </mxGeometry>
        </mxCell>
        <mxCell id="ZCJGiTf_6MgXrqR2AK9Y-95" value="start_location" style="shape=partialRectangle;connectable=0;fillColor=none;top=0;left=0;bottom=0;right=0;align=left;spacingLeft=2;overflow=hidden;fontSize=11;" vertex="1" parent="ZCJGiTf_6MgXrqR2AK9Y-93">
          <mxGeometry x="48" width="99" height="22" as="geometry">
            <mxRectangle width="99" height="22" as="alternateBounds" />
          </mxGeometry>
        </mxCell>
        <mxCell id="ZCJGiTf_6MgXrqR2AK9Y-96" style="shape=tableRow;horizontal=0;startSize=0;swimlaneHead=0;swimlaneBody=0;fillColor=none;collapsible=0;dropTarget=0;points=[[0,0.5],[1,0.5]];portConstraint=eastwest;top=0;left=0;right=0;bottom=0;" vertex="1" parent="ZCJGiTf_6MgXrqR2AK9Y-80">
          <mxGeometry y="135" width="147" height="22" as="geometry" />
        </mxCell>
        <mxCell id="ZCJGiTf_6MgXrqR2AK9Y-97" value="string" style="shape=partialRectangle;connectable=0;fillColor=none;top=0;left=0;bottom=0;right=0;align=left;spacingLeft=2;overflow=hidden;fontSize=11;" vertex="1" parent="ZCJGiTf_6MgXrqR2AK9Y-96">
          <mxGeometry width="48" height="22" as="geometry">
            <mxRectangle width="48" height="22" as="alternateBounds" />
          </mxGeometry>
        </mxCell>
        <mxCell id="ZCJGiTf_6MgXrqR2AK9Y-98" value="end_location" style="shape=partialRectangle;connectable=0;fillColor=none;top=0;left=0;bottom=0;right=0;align=left;spacingLeft=2;overflow=hidden;fontSize=11;" vertex="1" parent="ZCJGiTf_6MgXrqR2AK9Y-96">
          <mxGeometry x="48" width="99" height="22" as="geometry">
            <mxRectangle width="99" height="22" as="alternateBounds" />
          </mxGeometry>
        </mxCell>
        <mxCell id="ZCJGiTf_6MgXrqR2AK9Y-99" style="shape=tableRow;horizontal=0;startSize=0;swimlaneHead=0;swimlaneBody=0;fillColor=none;collapsible=0;dropTarget=0;points=[[0,0.5],[1,0.5]];portConstraint=eastwest;top=0;left=0;right=0;bottom=0;" vertex="1" parent="ZCJGiTf_6MgXrqR2AK9Y-80">
          <mxGeometry y="157" width="147" height="22" as="geometry" />
        </mxCell>
        <mxCell id="ZCJGiTf_6MgXrqR2AK9Y-100" value="string" style="shape=partialRectangle;connectable=0;fillColor=none;top=0;left=0;bottom=0;right=0;align=left;spacingLeft=2;overflow=hidden;fontSize=11;" vertex="1" parent="ZCJGiTf_6MgXrqR2AK9Y-99">
          <mxGeometry width="48" height="22" as="geometry">
            <mxRectangle width="48" height="22" as="alternateBounds" />
          </mxGeometry>
        </mxCell>
        <mxCell id="ZCJGiTf_6MgXrqR2AK9Y-101" value="status" style="shape=partialRectangle;connectable=0;fillColor=none;top=0;left=0;bottom=0;right=0;align=left;spacingLeft=2;overflow=hidden;fontSize=11;" vertex="1" parent="ZCJGiTf_6MgXrqR2AK9Y-99">
          <mxGeometry x="48" width="99" height="22" as="geometry">
            <mxRectangle width="99" height="22" as="alternateBounds" />
          </mxGeometry>
        </mxCell>
        <mxCell id="ZCJGiTf_6MgXrqR2AK9Y-102" value="PRODUCT" style="shape=table;startSize=25;container=1;collapsible=0;childLayout=tableLayout;fixedRows=1;rowLines=1;fontStyle=1;align=center;resizeLast=1;" vertex="1" parent="1">
          <mxGeometry x="360" y="331" width="118" height="157" as="geometry" />
        </mxCell>
        <mxCell id="ZCJGiTf_6MgXrqR2AK9Y-103" style="shape=tableRow;horizontal=0;startSize=0;swimlaneHead=0;swimlaneBody=0;fillColor=none;collapsible=0;dropTarget=0;points=[[0,0.5],[1,0.5]];portConstraint=eastwest;top=0;left=0;right=0;bottom=0;" vertex="1" parent="ZCJGiTf_6MgXrqR2AK9Y-102">
          <mxGeometry y="25" width="118" height="22" as="geometry" />
        </mxCell>
        <mxCell id="ZCJGiTf_6MgXrqR2AK9Y-104" value="int" style="shape=partialRectangle;connectable=0;fillColor=none;top=0;left=0;bottom=0;right=0;align=left;spacingLeft=2;overflow=hidden;fontSize=11;" vertex="1" parent="ZCJGiTf_6MgXrqR2AK9Y-103">
          <mxGeometry width="36" height="22" as="geometry">
            <mxRectangle width="36" height="22" as="alternateBounds" />
          </mxGeometry>
        </mxCell>
        <mxCell id="ZCJGiTf_6MgXrqR2AK9Y-105" value="product_id" style="shape=partialRectangle;connectable=0;fillColor=none;top=0;left=0;bottom=0;right=0;align=left;spacingLeft=2;overflow=hidden;fontSize=11;" vertex="1" parent="ZCJGiTf_6MgXrqR2AK9Y-103">
          <mxGeometry x="36" width="82" height="22" as="geometry">
            <mxRectangle width="82" height="22" as="alternateBounds" />
          </mxGeometry>
        </mxCell>
        <mxCell id="ZCJGiTf_6MgXrqR2AK9Y-106" style="shape=tableRow;horizontal=0;startSize=0;swimlaneHead=0;swimlaneBody=0;fillColor=none;collapsible=0;dropTarget=0;points=[[0,0.5],[1,0.5]];portConstraint=eastwest;top=0;left=0;right=0;bottom=0;" vertex="1" parent="ZCJGiTf_6MgXrqR2AK9Y-102">
          <mxGeometry y="47" width="118" height="22" as="geometry" />
        </mxCell>
        <mxCell id="ZCJGiTf_6MgXrqR2AK9Y-107" value="int" style="shape=partialRectangle;connectable=0;fillColor=none;top=0;left=0;bottom=0;right=0;align=left;spacingLeft=2;overflow=hidden;fontSize=11;" vertex="1" parent="ZCJGiTf_6MgXrqR2AK9Y-106">
          <mxGeometry width="36" height="22" as="geometry">
            <mxRectangle width="36" height="22" as="alternateBounds" />
          </mxGeometry>
        </mxCell>
        <mxCell id="ZCJGiTf_6MgXrqR2AK9Y-108" value="seller_id" style="shape=partialRectangle;connectable=0;fillColor=none;top=0;left=0;bottom=0;right=0;align=left;spacingLeft=2;overflow=hidden;fontSize=11;" vertex="1" parent="ZCJGiTf_6MgXrqR2AK9Y-106">
          <mxGeometry x="36" width="82" height="22" as="geometry">
            <mxRectangle width="82" height="22" as="alternateBounds" />
          </mxGeometry>
        </mxCell>
        <mxCell id="ZCJGiTf_6MgXrqR2AK9Y-109" style="shape=tableRow;horizontal=0;startSize=0;swimlaneHead=0;swimlaneBody=0;fillColor=none;collapsible=0;dropTarget=0;points=[[0,0.5],[1,0.5]];portConstraint=eastwest;top=0;left=0;right=0;bottom=0;" vertex="1" parent="ZCJGiTf_6MgXrqR2AK9Y-102">
          <mxGeometry y="69" width="118" height="22" as="geometry" />
        </mxCell>
        <mxCell id="ZCJGiTf_6MgXrqR2AK9Y-110" value="string" style="shape=partialRectangle;connectable=0;fillColor=none;top=0;left=0;bottom=0;right=0;align=left;spacingLeft=2;overflow=hidden;fontSize=11;" vertex="1" parent="ZCJGiTf_6MgXrqR2AK9Y-109">
          <mxGeometry width="36" height="22" as="geometry">
            <mxRectangle width="36" height="22" as="alternateBounds" />
          </mxGeometry>
        </mxCell>
        <mxCell id="ZCJGiTf_6MgXrqR2AK9Y-111" value="name" style="shape=partialRectangle;connectable=0;fillColor=none;top=0;left=0;bottom=0;right=0;align=left;spacingLeft=2;overflow=hidden;fontSize=11;" vertex="1" parent="ZCJGiTf_6MgXrqR2AK9Y-109">
          <mxGeometry x="36" width="82" height="22" as="geometry">
            <mxRectangle width="82" height="22" as="alternateBounds" />
          </mxGeometry>
        </mxCell>
        <mxCell id="ZCJGiTf_6MgXrqR2AK9Y-112" style="shape=tableRow;horizontal=0;startSize=0;swimlaneHead=0;swimlaneBody=0;fillColor=none;collapsible=0;dropTarget=0;points=[[0,0.5],[1,0.5]];portConstraint=eastwest;top=0;left=0;right=0;bottom=0;" vertex="1" parent="ZCJGiTf_6MgXrqR2AK9Y-102">
          <mxGeometry y="91" width="118" height="22" as="geometry" />
        </mxCell>
        <mxCell id="ZCJGiTf_6MgXrqR2AK9Y-113" value="string" style="shape=partialRectangle;connectable=0;fillColor=none;top=0;left=0;bottom=0;right=0;align=left;spacingLeft=2;overflow=hidden;fontSize=11;" vertex="1" parent="ZCJGiTf_6MgXrqR2AK9Y-112">
          <mxGeometry width="36" height="22" as="geometry">
            <mxRectangle width="36" height="22" as="alternateBounds" />
          </mxGeometry>
        </mxCell>
        <mxCell id="ZCJGiTf_6MgXrqR2AK9Y-114" value="description" style="shape=partialRectangle;connectable=0;fillColor=none;top=0;left=0;bottom=0;right=0;align=left;spacingLeft=2;overflow=hidden;fontSize=11;" vertex="1" parent="ZCJGiTf_6MgXrqR2AK9Y-112">
          <mxGeometry x="36" width="82" height="22" as="geometry">
            <mxRectangle width="82" height="22" as="alternateBounds" />
          </mxGeometry>
        </mxCell>
        <mxCell id="ZCJGiTf_6MgXrqR2AK9Y-115" style="shape=tableRow;horizontal=0;startSize=0;swimlaneHead=0;swimlaneBody=0;fillColor=none;collapsible=0;dropTarget=0;points=[[0,0.5],[1,0.5]];portConstraint=eastwest;top=0;left=0;right=0;bottom=0;" vertex="1" parent="ZCJGiTf_6MgXrqR2AK9Y-102">
          <mxGeometry y="113" width="118" height="22" as="geometry" />
        </mxCell>
        <mxCell id="ZCJGiTf_6MgXrqR2AK9Y-116" value="float" style="shape=partialRectangle;connectable=0;fillColor=none;top=0;left=0;bottom=0;right=0;align=left;spacingLeft=2;overflow=hidden;fontSize=11;" vertex="1" parent="ZCJGiTf_6MgXrqR2AK9Y-115">
          <mxGeometry width="36" height="22" as="geometry">
            <mxRectangle width="36" height="22" as="alternateBounds" />
          </mxGeometry>
        </mxCell>
        <mxCell id="ZCJGiTf_6MgXrqR2AK9Y-117" value="price" style="shape=partialRectangle;connectable=0;fillColor=none;top=0;left=0;bottom=0;right=0;align=left;spacingLeft=2;overflow=hidden;fontSize=11;" vertex="1" parent="ZCJGiTf_6MgXrqR2AK9Y-115">
          <mxGeometry x="36" width="82" height="22" as="geometry">
            <mxRectangle width="82" height="22" as="alternateBounds" />
          </mxGeometry>
        </mxCell>
        <mxCell id="ZCJGiTf_6MgXrqR2AK9Y-118" style="shape=tableRow;horizontal=0;startSize=0;swimlaneHead=0;swimlaneBody=0;fillColor=none;collapsible=0;dropTarget=0;points=[[0,0.5],[1,0.5]];portConstraint=eastwest;top=0;left=0;right=0;bottom=0;" vertex="1" parent="ZCJGiTf_6MgXrqR2AK9Y-102">
          <mxGeometry y="135" width="118" height="22" as="geometry" />
        </mxCell>
        <mxCell id="ZCJGiTf_6MgXrqR2AK9Y-119" value="string" style="shape=partialRectangle;connectable=0;fillColor=none;top=0;left=0;bottom=0;right=0;align=left;spacingLeft=2;overflow=hidden;fontSize=11;" vertex="1" parent="ZCJGiTf_6MgXrqR2AK9Y-118">
          <mxGeometry width="36" height="22" as="geometry">
            <mxRectangle width="36" height="22" as="alternateBounds" />
          </mxGeometry>
        </mxCell>
        <mxCell id="ZCJGiTf_6MgXrqR2AK9Y-120" value="category" style="shape=partialRectangle;connectable=0;fillColor=none;top=0;left=0;bottom=0;right=0;align=left;spacingLeft=2;overflow=hidden;fontSize=11;" vertex="1" parent="ZCJGiTf_6MgXrqR2AK9Y-118">
          <mxGeometry x="36" width="82" height="22" as="geometry">
            <mxRectangle width="82" height="22" as="alternateBounds" />
          </mxGeometry>
        </mxCell>
        <mxCell id="ZCJGiTf_6MgXrqR2AK9Y-121" value="STUDY_GROUP" style="shape=table;startSize=25;container=1;collapsible=0;childLayout=tableLayout;fixedRows=1;rowLines=1;fontStyle=1;align=center;resizeLast=1;" vertex="1" parent="1">
          <mxGeometry x="1917" y="364" width="124" height="91" as="geometry" />
        </mxCell>
        <mxCell id="ZCJGiTf_6MgXrqR2AK9Y-122" style="shape=tableRow;horizontal=0;startSize=0;swimlaneHead=0;swimlaneBody=0;fillColor=none;collapsible=0;dropTarget=0;points=[[0,0.5],[1,0.5]];portConstraint=eastwest;top=0;left=0;right=0;bottom=0;" vertex="1" parent="ZCJGiTf_6MgXrqR2AK9Y-121">
          <mxGeometry y="25" width="124" height="22" as="geometry" />
        </mxCell>
        <mxCell id="ZCJGiTf_6MgXrqR2AK9Y-123" value="int" style="shape=partialRectangle;connectable=0;fillColor=none;top=0;left=0;bottom=0;right=0;align=left;spacingLeft=2;overflow=hidden;fontSize=11;" vertex="1" parent="ZCJGiTf_6MgXrqR2AK9Y-122">
          <mxGeometry width="36" height="22" as="geometry">
            <mxRectangle width="36" height="22" as="alternateBounds" />
          </mxGeometry>
        </mxCell>
        <mxCell id="ZCJGiTf_6MgXrqR2AK9Y-124" value="group_id" style="shape=partialRectangle;connectable=0;fillColor=none;top=0;left=0;bottom=0;right=0;align=left;spacingLeft=2;overflow=hidden;fontSize=11;" vertex="1" parent="ZCJGiTf_6MgXrqR2AK9Y-122">
          <mxGeometry x="36" width="88" height="22" as="geometry">
            <mxRectangle width="88" height="22" as="alternateBounds" />
          </mxGeometry>
        </mxCell>
        <mxCell id="ZCJGiTf_6MgXrqR2AK9Y-125" style="shape=tableRow;horizontal=0;startSize=0;swimlaneHead=0;swimlaneBody=0;fillColor=none;collapsible=0;dropTarget=0;points=[[0,0.5],[1,0.5]];portConstraint=eastwest;top=0;left=0;right=0;bottom=0;" vertex="1" parent="ZCJGiTf_6MgXrqR2AK9Y-121">
          <mxGeometry y="47" width="124" height="22" as="geometry" />
        </mxCell>
        <mxCell id="ZCJGiTf_6MgXrqR2AK9Y-126" value="string" style="shape=partialRectangle;connectable=0;fillColor=none;top=0;left=0;bottom=0;right=0;align=left;spacingLeft=2;overflow=hidden;fontSize=11;" vertex="1" parent="ZCJGiTf_6MgXrqR2AK9Y-125">
          <mxGeometry width="36" height="22" as="geometry">
            <mxRectangle width="36" height="22" as="alternateBounds" />
          </mxGeometry>
        </mxCell>
        <mxCell id="ZCJGiTf_6MgXrqR2AK9Y-127" value="name" style="shape=partialRectangle;connectable=0;fillColor=none;top=0;left=0;bottom=0;right=0;align=left;spacingLeft=2;overflow=hidden;fontSize=11;" vertex="1" parent="ZCJGiTf_6MgXrqR2AK9Y-125">
          <mxGeometry x="36" width="88" height="22" as="geometry">
            <mxRectangle width="88" height="22" as="alternateBounds" />
          </mxGeometry>
        </mxCell>
        <mxCell id="ZCJGiTf_6MgXrqR2AK9Y-128" style="shape=tableRow;horizontal=0;startSize=0;swimlaneHead=0;swimlaneBody=0;fillColor=none;collapsible=0;dropTarget=0;points=[[0,0.5],[1,0.5]];portConstraint=eastwest;top=0;left=0;right=0;bottom=0;" vertex="1" parent="ZCJGiTf_6MgXrqR2AK9Y-121">
          <mxGeometry y="69" width="124" height="22" as="geometry" />
        </mxCell>
        <mxCell id="ZCJGiTf_6MgXrqR2AK9Y-129" value="string" style="shape=partialRectangle;connectable=0;fillColor=none;top=0;left=0;bottom=0;right=0;align=left;spacingLeft=2;overflow=hidden;fontSize=11;" vertex="1" parent="ZCJGiTf_6MgXrqR2AK9Y-128">
          <mxGeometry width="36" height="22" as="geometry">
            <mxRectangle width="36" height="22" as="alternateBounds" />
          </mxGeometry>
        </mxCell>
        <mxCell id="ZCJGiTf_6MgXrqR2AK9Y-130" value="course_code" style="shape=partialRectangle;connectable=0;fillColor=none;top=0;left=0;bottom=0;right=0;align=left;spacingLeft=2;overflow=hidden;fontSize=11;" vertex="1" parent="ZCJGiTf_6MgXrqR2AK9Y-128">
          <mxGeometry x="36" width="88" height="22" as="geometry">
            <mxRectangle width="88" height="22" as="alternateBounds" />
          </mxGeometry>
        </mxCell>
        <mxCell id="ZCJGiTf_6MgXrqR2AK9Y-131" value="ASSIGNMENT" style="shape=table;startSize=25;container=1;collapsible=0;childLayout=tableLayout;fixedRows=1;rowLines=1;fontStyle=1;align=center;resizeLast=1;" vertex="1" parent="1">
          <mxGeometry x="1986" y="598" width="148" height="179" as="geometry" />
        </mxCell>
        <mxCell id="ZCJGiTf_6MgXrqR2AK9Y-132" style="shape=tableRow;horizontal=0;startSize=0;swimlaneHead=0;swimlaneBody=0;fillColor=none;collapsible=0;dropTarget=0;points=[[0,0.5],[1,0.5]];portConstraint=eastwest;top=0;left=0;right=0;bottom=0;" vertex="1" parent="ZCJGiTf_6MgXrqR2AK9Y-131">
          <mxGeometry y="25" width="148" height="22" as="geometry" />
        </mxCell>
        <mxCell id="ZCJGiTf_6MgXrqR2AK9Y-133" value="int" style="shape=partialRectangle;connectable=0;fillColor=none;top=0;left=0;bottom=0;right=0;align=left;spacingLeft=2;overflow=hidden;fontSize=11;" vertex="1" parent="ZCJGiTf_6MgXrqR2AK9Y-132">
          <mxGeometry width="48" height="22" as="geometry">
            <mxRectangle width="48" height="22" as="alternateBounds" />
          </mxGeometry>
        </mxCell>
        <mxCell id="ZCJGiTf_6MgXrqR2AK9Y-134" value="assignment_id" style="shape=partialRectangle;connectable=0;fillColor=none;top=0;left=0;bottom=0;right=0;align=left;spacingLeft=2;overflow=hidden;fontSize=11;" vertex="1" parent="ZCJGiTf_6MgXrqR2AK9Y-132">
          <mxGeometry x="48" width="100" height="22" as="geometry">
            <mxRectangle width="100" height="22" as="alternateBounds" />
          </mxGeometry>
        </mxCell>
        <mxCell id="ZCJGiTf_6MgXrqR2AK9Y-135" style="shape=tableRow;horizontal=0;startSize=0;swimlaneHead=0;swimlaneBody=0;fillColor=none;collapsible=0;dropTarget=0;points=[[0,0.5],[1,0.5]];portConstraint=eastwest;top=0;left=0;right=0;bottom=0;" vertex="1" parent="ZCJGiTf_6MgXrqR2AK9Y-131">
          <mxGeometry y="47" width="148" height="22" as="geometry" />
        </mxCell>
        <mxCell id="ZCJGiTf_6MgXrqR2AK9Y-136" value="int" style="shape=partialRectangle;connectable=0;fillColor=none;top=0;left=0;bottom=0;right=0;align=left;spacingLeft=2;overflow=hidden;fontSize=11;" vertex="1" parent="ZCJGiTf_6MgXrqR2AK9Y-135">
          <mxGeometry width="48" height="22" as="geometry">
            <mxRectangle width="48" height="22" as="alternateBounds" />
          </mxGeometry>
        </mxCell>
        <mxCell id="ZCJGiTf_6MgXrqR2AK9Y-137" value="group_id" style="shape=partialRectangle;connectable=0;fillColor=none;top=0;left=0;bottom=0;right=0;align=left;spacingLeft=2;overflow=hidden;fontSize=11;" vertex="1" parent="ZCJGiTf_6MgXrqR2AK9Y-135">
          <mxGeometry x="48" width="100" height="22" as="geometry">
            <mxRectangle width="100" height="22" as="alternateBounds" />
          </mxGeometry>
        </mxCell>
        <mxCell id="ZCJGiTf_6MgXrqR2AK9Y-138" style="shape=tableRow;horizontal=0;startSize=0;swimlaneHead=0;swimlaneBody=0;fillColor=none;collapsible=0;dropTarget=0;points=[[0,0.5],[1,0.5]];portConstraint=eastwest;top=0;left=0;right=0;bottom=0;" vertex="1" parent="ZCJGiTf_6MgXrqR2AK9Y-131">
          <mxGeometry y="69" width="148" height="22" as="geometry" />
        </mxCell>
        <mxCell id="ZCJGiTf_6MgXrqR2AK9Y-139" value="int" style="shape=partialRectangle;connectable=0;fillColor=none;top=0;left=0;bottom=0;right=0;align=left;spacingLeft=2;overflow=hidden;fontSize=11;" vertex="1" parent="ZCJGiTf_6MgXrqR2AK9Y-138">
          <mxGeometry width="48" height="22" as="geometry">
            <mxRectangle width="48" height="22" as="alternateBounds" />
          </mxGeometry>
        </mxCell>
        <mxCell id="ZCJGiTf_6MgXrqR2AK9Y-140" value="uploader_id" style="shape=partialRectangle;connectable=0;fillColor=none;top=0;left=0;bottom=0;right=0;align=left;spacingLeft=2;overflow=hidden;fontSize=11;" vertex="1" parent="ZCJGiTf_6MgXrqR2AK9Y-138">
          <mxGeometry x="48" width="100" height="22" as="geometry">
            <mxRectangle width="100" height="22" as="alternateBounds" />
          </mxGeometry>
        </mxCell>
        <mxCell id="ZCJGiTf_6MgXrqR2AK9Y-141" style="shape=tableRow;horizontal=0;startSize=0;swimlaneHead=0;swimlaneBody=0;fillColor=none;collapsible=0;dropTarget=0;points=[[0,0.5],[1,0.5]];portConstraint=eastwest;top=0;left=0;right=0;bottom=0;" vertex="1" parent="ZCJGiTf_6MgXrqR2AK9Y-131">
          <mxGeometry y="91" width="148" height="22" as="geometry" />
        </mxCell>
        <mxCell id="ZCJGiTf_6MgXrqR2AK9Y-142" value="string" style="shape=partialRectangle;connectable=0;fillColor=none;top=0;left=0;bottom=0;right=0;align=left;spacingLeft=2;overflow=hidden;fontSize=11;" vertex="1" parent="ZCJGiTf_6MgXrqR2AK9Y-141">
          <mxGeometry width="48" height="22" as="geometry">
            <mxRectangle width="48" height="22" as="alternateBounds" />
          </mxGeometry>
        </mxCell>
        <mxCell id="ZCJGiTf_6MgXrqR2AK9Y-143" value="title" style="shape=partialRectangle;connectable=0;fillColor=none;top=0;left=0;bottom=0;right=0;align=left;spacingLeft=2;overflow=hidden;fontSize=11;" vertex="1" parent="ZCJGiTf_6MgXrqR2AK9Y-141">
          <mxGeometry x="48" width="100" height="22" as="geometry">
            <mxRectangle width="100" height="22" as="alternateBounds" />
          </mxGeometry>
        </mxCell>
        <mxCell id="ZCJGiTf_6MgXrqR2AK9Y-144" style="shape=tableRow;horizontal=0;startSize=0;swimlaneHead=0;swimlaneBody=0;fillColor=none;collapsible=0;dropTarget=0;points=[[0,0.5],[1,0.5]];portConstraint=eastwest;top=0;left=0;right=0;bottom=0;" vertex="1" parent="ZCJGiTf_6MgXrqR2AK9Y-131">
          <mxGeometry y="113" width="148" height="22" as="geometry" />
        </mxCell>
        <mxCell id="ZCJGiTf_6MgXrqR2AK9Y-145" value="string" style="shape=partialRectangle;connectable=0;fillColor=none;top=0;left=0;bottom=0;right=0;align=left;spacingLeft=2;overflow=hidden;fontSize=11;" vertex="1" parent="ZCJGiTf_6MgXrqR2AK9Y-144">
          <mxGeometry width="48" height="22" as="geometry">
            <mxRectangle width="48" height="22" as="alternateBounds" />
          </mxGeometry>
        </mxCell>
        <mxCell id="ZCJGiTf_6MgXrqR2AK9Y-146" value="description" style="shape=partialRectangle;connectable=0;fillColor=none;top=0;left=0;bottom=0;right=0;align=left;spacingLeft=2;overflow=hidden;fontSize=11;" vertex="1" parent="ZCJGiTf_6MgXrqR2AK9Y-144">
          <mxGeometry x="48" width="100" height="22" as="geometry">
            <mxRectangle width="100" height="22" as="alternateBounds" />
          </mxGeometry>
        </mxCell>
        <mxCell id="ZCJGiTf_6MgXrqR2AK9Y-147" style="shape=tableRow;horizontal=0;startSize=0;swimlaneHead=0;swimlaneBody=0;fillColor=none;collapsible=0;dropTarget=0;points=[[0,0.5],[1,0.5]];portConstraint=eastwest;top=0;left=0;right=0;bottom=0;" vertex="1" parent="ZCJGiTf_6MgXrqR2AK9Y-131">
          <mxGeometry y="135" width="148" height="22" as="geometry" />
        </mxCell>
        <mxCell id="ZCJGiTf_6MgXrqR2AK9Y-148" value="string" style="shape=partialRectangle;connectable=0;fillColor=none;top=0;left=0;bottom=0;right=0;align=left;spacingLeft=2;overflow=hidden;fontSize=11;" vertex="1" parent="ZCJGiTf_6MgXrqR2AK9Y-147">
          <mxGeometry width="48" height="22" as="geometry">
            <mxRectangle width="48" height="22" as="alternateBounds" />
          </mxGeometry>
        </mxCell>
        <mxCell id="ZCJGiTf_6MgXrqR2AK9Y-149" value="file_path" style="shape=partialRectangle;connectable=0;fillColor=none;top=0;left=0;bottom=0;right=0;align=left;spacingLeft=2;overflow=hidden;fontSize=11;" vertex="1" parent="ZCJGiTf_6MgXrqR2AK9Y-147">
          <mxGeometry x="48" width="100" height="22" as="geometry">
            <mxRectangle width="100" height="22" as="alternateBounds" />
          </mxGeometry>
        </mxCell>
        <mxCell id="ZCJGiTf_6MgXrqR2AK9Y-150" style="shape=tableRow;horizontal=0;startSize=0;swimlaneHead=0;swimlaneBody=0;fillColor=none;collapsible=0;dropTarget=0;points=[[0,0.5],[1,0.5]];portConstraint=eastwest;top=0;left=0;right=0;bottom=0;" vertex="1" parent="ZCJGiTf_6MgXrqR2AK9Y-131">
          <mxGeometry y="157" width="148" height="22" as="geometry" />
        </mxCell>
        <mxCell id="ZCJGiTf_6MgXrqR2AK9Y-151" value="datetime" style="shape=partialRectangle;connectable=0;fillColor=none;top=0;left=0;bottom=0;right=0;align=left;spacingLeft=2;overflow=hidden;fontSize=11;" vertex="1" parent="ZCJGiTf_6MgXrqR2AK9Y-150">
          <mxGeometry width="48" height="22" as="geometry">
            <mxRectangle width="48" height="22" as="alternateBounds" />
          </mxGeometry>
        </mxCell>
        <mxCell id="ZCJGiTf_6MgXrqR2AK9Y-152" value="upload_date" style="shape=partialRectangle;connectable=0;fillColor=none;top=0;left=0;bottom=0;right=0;align=left;spacingLeft=2;overflow=hidden;fontSize=11;" vertex="1" parent="ZCJGiTf_6MgXrqR2AK9Y-150">
          <mxGeometry x="48" width="100" height="22" as="geometry">
            <mxRectangle width="100" height="22" as="alternateBounds" />
          </mxGeometry>
        </mxCell>
        <mxCell id="ZCJGiTf_6MgXrqR2AK9Y-153" value="EVENT" style="shape=table;startSize=25;container=1;collapsible=0;childLayout=tableLayout;fixedRows=1;rowLines=1;fontStyle=1;align=center;resizeLast=1;" vertex="1" parent="1">
          <mxGeometry x="818" y="331" width="134" height="157" as="geometry" />
        </mxCell>
        <mxCell id="ZCJGiTf_6MgXrqR2AK9Y-154" style="shape=tableRow;horizontal=0;startSize=0;swimlaneHead=0;swimlaneBody=0;fillColor=none;collapsible=0;dropTarget=0;points=[[0,0.5],[1,0.5]];portConstraint=eastwest;top=0;left=0;right=0;bottom=0;" vertex="1" parent="ZCJGiTf_6MgXrqR2AK9Y-153">
          <mxGeometry y="25" width="134" height="22" as="geometry" />
        </mxCell>
        <mxCell id="ZCJGiTf_6MgXrqR2AK9Y-155" value="int" style="shape=partialRectangle;connectable=0;fillColor=none;top=0;left=0;bottom=0;right=0;align=left;spacingLeft=2;overflow=hidden;fontSize=11;" vertex="1" parent="ZCJGiTf_6MgXrqR2AK9Y-154">
          <mxGeometry width="48" height="22" as="geometry">
            <mxRectangle width="48" height="22" as="alternateBounds" />
          </mxGeometry>
        </mxCell>
        <mxCell id="ZCJGiTf_6MgXrqR2AK9Y-156" value="event_id" style="shape=partialRectangle;connectable=0;fillColor=none;top=0;left=0;bottom=0;right=0;align=left;spacingLeft=2;overflow=hidden;fontSize=11;" vertex="1" parent="ZCJGiTf_6MgXrqR2AK9Y-154">
          <mxGeometry x="48" width="86" height="22" as="geometry">
            <mxRectangle width="86" height="22" as="alternateBounds" />
          </mxGeometry>
        </mxCell>
        <mxCell id="ZCJGiTf_6MgXrqR2AK9Y-157" style="shape=tableRow;horizontal=0;startSize=0;swimlaneHead=0;swimlaneBody=0;fillColor=none;collapsible=0;dropTarget=0;points=[[0,0.5],[1,0.5]];portConstraint=eastwest;top=0;left=0;right=0;bottom=0;" vertex="1" parent="ZCJGiTf_6MgXrqR2AK9Y-153">
          <mxGeometry y="47" width="134" height="22" as="geometry" />
        </mxCell>
        <mxCell id="ZCJGiTf_6MgXrqR2AK9Y-158" value="int" style="shape=partialRectangle;connectable=0;fillColor=none;top=0;left=0;bottom=0;right=0;align=left;spacingLeft=2;overflow=hidden;fontSize=11;" vertex="1" parent="ZCJGiTf_6MgXrqR2AK9Y-157">
          <mxGeometry width="48" height="22" as="geometry">
            <mxRectangle width="48" height="22" as="alternateBounds" />
          </mxGeometry>
        </mxCell>
        <mxCell id="ZCJGiTf_6MgXrqR2AK9Y-159" value="creator_id" style="shape=partialRectangle;connectable=0;fillColor=none;top=0;left=0;bottom=0;right=0;align=left;spacingLeft=2;overflow=hidden;fontSize=11;" vertex="1" parent="ZCJGiTf_6MgXrqR2AK9Y-157">
          <mxGeometry x="48" width="86" height="22" as="geometry">
            <mxRectangle width="86" height="22" as="alternateBounds" />
          </mxGeometry>
        </mxCell>
        <mxCell id="ZCJGiTf_6MgXrqR2AK9Y-160" style="shape=tableRow;horizontal=0;startSize=0;swimlaneHead=0;swimlaneBody=0;fillColor=none;collapsible=0;dropTarget=0;points=[[0,0.5],[1,0.5]];portConstraint=eastwest;top=0;left=0;right=0;bottom=0;" vertex="1" parent="ZCJGiTf_6MgXrqR2AK9Y-153">
          <mxGeometry y="69" width="134" height="22" as="geometry" />
        </mxCell>
        <mxCell id="ZCJGiTf_6MgXrqR2AK9Y-161" value="string" style="shape=partialRectangle;connectable=0;fillColor=none;top=0;left=0;bottom=0;right=0;align=left;spacingLeft=2;overflow=hidden;fontSize=11;" vertex="1" parent="ZCJGiTf_6MgXrqR2AK9Y-160">
          <mxGeometry width="48" height="22" as="geometry">
            <mxRectangle width="48" height="22" as="alternateBounds" />
          </mxGeometry>
        </mxCell>
        <mxCell id="ZCJGiTf_6MgXrqR2AK9Y-162" value="title" style="shape=partialRectangle;connectable=0;fillColor=none;top=0;left=0;bottom=0;right=0;align=left;spacingLeft=2;overflow=hidden;fontSize=11;" vertex="1" parent="ZCJGiTf_6MgXrqR2AK9Y-160">
          <mxGeometry x="48" width="86" height="22" as="geometry">
            <mxRectangle width="86" height="22" as="alternateBounds" />
          </mxGeometry>
        </mxCell>
        <mxCell id="ZCJGiTf_6MgXrqR2AK9Y-163" style="shape=tableRow;horizontal=0;startSize=0;swimlaneHead=0;swimlaneBody=0;fillColor=none;collapsible=0;dropTarget=0;points=[[0,0.5],[1,0.5]];portConstraint=eastwest;top=0;left=0;right=0;bottom=0;" vertex="1" parent="ZCJGiTf_6MgXrqR2AK9Y-153">
          <mxGeometry y="91" width="134" height="22" as="geometry" />
        </mxCell>
        <mxCell id="ZCJGiTf_6MgXrqR2AK9Y-164" value="string" style="shape=partialRectangle;connectable=0;fillColor=none;top=0;left=0;bottom=0;right=0;align=left;spacingLeft=2;overflow=hidden;fontSize=11;" vertex="1" parent="ZCJGiTf_6MgXrqR2AK9Y-163">
          <mxGeometry width="48" height="22" as="geometry">
            <mxRectangle width="48" height="22" as="alternateBounds" />
          </mxGeometry>
        </mxCell>
        <mxCell id="ZCJGiTf_6MgXrqR2AK9Y-165" value="description" style="shape=partialRectangle;connectable=0;fillColor=none;top=0;left=0;bottom=0;right=0;align=left;spacingLeft=2;overflow=hidden;fontSize=11;" vertex="1" parent="ZCJGiTf_6MgXrqR2AK9Y-163">
          <mxGeometry x="48" width="86" height="22" as="geometry">
            <mxRectangle width="86" height="22" as="alternateBounds" />
          </mxGeometry>
        </mxCell>
        <mxCell id="ZCJGiTf_6MgXrqR2AK9Y-166" style="shape=tableRow;horizontal=0;startSize=0;swimlaneHead=0;swimlaneBody=0;fillColor=none;collapsible=0;dropTarget=0;points=[[0,0.5],[1,0.5]];portConstraint=eastwest;top=0;left=0;right=0;bottom=0;" vertex="1" parent="ZCJGiTf_6MgXrqR2AK9Y-153">
          <mxGeometry y="113" width="134" height="22" as="geometry" />
        </mxCell>
        <mxCell id="ZCJGiTf_6MgXrqR2AK9Y-167" value="datetime" style="shape=partialRectangle;connectable=0;fillColor=none;top=0;left=0;bottom=0;right=0;align=left;spacingLeft=2;overflow=hidden;fontSize=11;" vertex="1" parent="ZCJGiTf_6MgXrqR2AK9Y-166">
          <mxGeometry width="48" height="22" as="geometry">
            <mxRectangle width="48" height="22" as="alternateBounds" />
          </mxGeometry>
        </mxCell>
        <mxCell id="ZCJGiTf_6MgXrqR2AK9Y-168" value="datetime" style="shape=partialRectangle;connectable=0;fillColor=none;top=0;left=0;bottom=0;right=0;align=left;spacingLeft=2;overflow=hidden;fontSize=11;" vertex="1" parent="ZCJGiTf_6MgXrqR2AK9Y-166">
          <mxGeometry x="48" width="86" height="22" as="geometry">
            <mxRectangle width="86" height="22" as="alternateBounds" />
          </mxGeometry>
        </mxCell>
        <mxCell id="ZCJGiTf_6MgXrqR2AK9Y-169" style="shape=tableRow;horizontal=0;startSize=0;swimlaneHead=0;swimlaneBody=0;fillColor=none;collapsible=0;dropTarget=0;points=[[0,0.5],[1,0.5]];portConstraint=eastwest;top=0;left=0;right=0;bottom=0;" vertex="1" parent="ZCJGiTf_6MgXrqR2AK9Y-153">
          <mxGeometry y="135" width="134" height="22" as="geometry" />
        </mxCell>
        <mxCell id="ZCJGiTf_6MgXrqR2AK9Y-170" value="string" style="shape=partialRectangle;connectable=0;fillColor=none;top=0;left=0;bottom=0;right=0;align=left;spacingLeft=2;overflow=hidden;fontSize=11;" vertex="1" parent="ZCJGiTf_6MgXrqR2AK9Y-169">
          <mxGeometry width="48" height="22" as="geometry">
            <mxRectangle width="48" height="22" as="alternateBounds" />
          </mxGeometry>
        </mxCell>
        <mxCell id="ZCJGiTf_6MgXrqR2AK9Y-171" value="location" style="shape=partialRectangle;connectable=0;fillColor=none;top=0;left=0;bottom=0;right=0;align=left;spacingLeft=2;overflow=hidden;fontSize=11;" vertex="1" parent="ZCJGiTf_6MgXrqR2AK9Y-169">
          <mxGeometry x="48" width="86" height="22" as="geometry">
            <mxRectangle width="86" height="22" as="alternateBounds" />
          </mxGeometry>
        </mxCell>
        <mxCell id="ZCJGiTf_6MgXrqR2AK9Y-172" value="ANNOUNCEMENT" style="shape=table;startSize=25;container=1;collapsible=0;childLayout=tableLayout;fixedRows=1;rowLines=1;fontStyle=1;align=center;resizeLast=1;" vertex="1" parent="1">
          <mxGeometry x="1053" y="342" width="165" height="135" as="geometry" />
        </mxCell>
        <mxCell id="ZCJGiTf_6MgXrqR2AK9Y-173" style="shape=tableRow;horizontal=0;startSize=0;swimlaneHead=0;swimlaneBody=0;fillColor=none;collapsible=0;dropTarget=0;points=[[0,0.5],[1,0.5]];portConstraint=eastwest;top=0;left=0;right=0;bottom=0;" vertex="1" parent="ZCJGiTf_6MgXrqR2AK9Y-172">
          <mxGeometry y="25" width="165" height="22" as="geometry" />
        </mxCell>
        <mxCell id="ZCJGiTf_6MgXrqR2AK9Y-174" value="int" style="shape=partialRectangle;connectable=0;fillColor=none;top=0;left=0;bottom=0;right=0;align=left;spacingLeft=2;overflow=hidden;fontSize=11;" vertex="1" parent="ZCJGiTf_6MgXrqR2AK9Y-173">
          <mxGeometry width="48" height="22" as="geometry">
            <mxRectangle width="48" height="22" as="alternateBounds" />
          </mxGeometry>
        </mxCell>
        <mxCell id="ZCJGiTf_6MgXrqR2AK9Y-175" value="announcement_id" style="shape=partialRectangle;connectable=0;fillColor=none;top=0;left=0;bottom=0;right=0;align=left;spacingLeft=2;overflow=hidden;fontSize=11;" vertex="1" parent="ZCJGiTf_6MgXrqR2AK9Y-173">
          <mxGeometry x="48" width="117" height="22" as="geometry">
            <mxRectangle width="117" height="22" as="alternateBounds" />
          </mxGeometry>
        </mxCell>
        <mxCell id="ZCJGiTf_6MgXrqR2AK9Y-176" style="shape=tableRow;horizontal=0;startSize=0;swimlaneHead=0;swimlaneBody=0;fillColor=none;collapsible=0;dropTarget=0;points=[[0,0.5],[1,0.5]];portConstraint=eastwest;top=0;left=0;right=0;bottom=0;" vertex="1" parent="ZCJGiTf_6MgXrqR2AK9Y-172">
          <mxGeometry y="47" width="165" height="22" as="geometry" />
        </mxCell>
        <mxCell id="ZCJGiTf_6MgXrqR2AK9Y-177" value="int" style="shape=partialRectangle;connectable=0;fillColor=none;top=0;left=0;bottom=0;right=0;align=left;spacingLeft=2;overflow=hidden;fontSize=11;" vertex="1" parent="ZCJGiTf_6MgXrqR2AK9Y-176">
          <mxGeometry width="48" height="22" as="geometry">
            <mxRectangle width="48" height="22" as="alternateBounds" />
          </mxGeometry>
        </mxCell>
        <mxCell id="ZCJGiTf_6MgXrqR2AK9Y-178" value="admin_id" style="shape=partialRectangle;connectable=0;fillColor=none;top=0;left=0;bottom=0;right=0;align=left;spacingLeft=2;overflow=hidden;fontSize=11;" vertex="1" parent="ZCJGiTf_6MgXrqR2AK9Y-176">
          <mxGeometry x="48" width="117" height="22" as="geometry">
            <mxRectangle width="117" height="22" as="alternateBounds" />
          </mxGeometry>
        </mxCell>
        <mxCell id="ZCJGiTf_6MgXrqR2AK9Y-179" style="shape=tableRow;horizontal=0;startSize=0;swimlaneHead=0;swimlaneBody=0;fillColor=none;collapsible=0;dropTarget=0;points=[[0,0.5],[1,0.5]];portConstraint=eastwest;top=0;left=0;right=0;bottom=0;" vertex="1" parent="ZCJGiTf_6MgXrqR2AK9Y-172">
          <mxGeometry y="69" width="165" height="22" as="geometry" />
        </mxCell>
        <mxCell id="ZCJGiTf_6MgXrqR2AK9Y-180" value="string" style="shape=partialRectangle;connectable=0;fillColor=none;top=0;left=0;bottom=0;right=0;align=left;spacingLeft=2;overflow=hidden;fontSize=11;" vertex="1" parent="ZCJGiTf_6MgXrqR2AK9Y-179">
          <mxGeometry width="48" height="22" as="geometry">
            <mxRectangle width="48" height="22" as="alternateBounds" />
          </mxGeometry>
        </mxCell>
        <mxCell id="ZCJGiTf_6MgXrqR2AK9Y-181" value="title" style="shape=partialRectangle;connectable=0;fillColor=none;top=0;left=0;bottom=0;right=0;align=left;spacingLeft=2;overflow=hidden;fontSize=11;" vertex="1" parent="ZCJGiTf_6MgXrqR2AK9Y-179">
          <mxGeometry x="48" width="117" height="22" as="geometry">
            <mxRectangle width="117" height="22" as="alternateBounds" />
          </mxGeometry>
        </mxCell>
        <mxCell id="ZCJGiTf_6MgXrqR2AK9Y-182" style="shape=tableRow;horizontal=0;startSize=0;swimlaneHead=0;swimlaneBody=0;fillColor=none;collapsible=0;dropTarget=0;points=[[0,0.5],[1,0.5]];portConstraint=eastwest;top=0;left=0;right=0;bottom=0;" vertex="1" parent="ZCJGiTf_6MgXrqR2AK9Y-172">
          <mxGeometry y="91" width="165" height="22" as="geometry" />
        </mxCell>
        <mxCell id="ZCJGiTf_6MgXrqR2AK9Y-183" value="string" style="shape=partialRectangle;connectable=0;fillColor=none;top=0;left=0;bottom=0;right=0;align=left;spacingLeft=2;overflow=hidden;fontSize=11;" vertex="1" parent="ZCJGiTf_6MgXrqR2AK9Y-182">
          <mxGeometry width="48" height="22" as="geometry">
            <mxRectangle width="48" height="22" as="alternateBounds" />
          </mxGeometry>
        </mxCell>
        <mxCell id="ZCJGiTf_6MgXrqR2AK9Y-184" value="content" style="shape=partialRectangle;connectable=0;fillColor=none;top=0;left=0;bottom=0;right=0;align=left;spacingLeft=2;overflow=hidden;fontSize=11;" vertex="1" parent="ZCJGiTf_6MgXrqR2AK9Y-182">
          <mxGeometry x="48" width="117" height="22" as="geometry">
            <mxRectangle width="117" height="22" as="alternateBounds" />
          </mxGeometry>
        </mxCell>
        <mxCell id="ZCJGiTf_6MgXrqR2AK9Y-185" style="shape=tableRow;horizontal=0;startSize=0;swimlaneHead=0;swimlaneBody=0;fillColor=none;collapsible=0;dropTarget=0;points=[[0,0.5],[1,0.5]];portConstraint=eastwest;top=0;left=0;right=0;bottom=0;" vertex="1" parent="ZCJGiTf_6MgXrqR2AK9Y-172">
          <mxGeometry y="113" width="165" height="22" as="geometry" />
        </mxCell>
        <mxCell id="ZCJGiTf_6MgXrqR2AK9Y-186" value="datetime" style="shape=partialRectangle;connectable=0;fillColor=none;top=0;left=0;bottom=0;right=0;align=left;spacingLeft=2;overflow=hidden;fontSize=11;" vertex="1" parent="ZCJGiTf_6MgXrqR2AK9Y-185">
          <mxGeometry width="48" height="22" as="geometry">
            <mxRectangle width="48" height="22" as="alternateBounds" />
          </mxGeometry>
        </mxCell>
        <mxCell id="ZCJGiTf_6MgXrqR2AK9Y-187" value="publish_date" style="shape=partialRectangle;connectable=0;fillColor=none;top=0;left=0;bottom=0;right=0;align=left;spacingLeft=2;overflow=hidden;fontSize=11;" vertex="1" parent="ZCJGiTf_6MgXrqR2AK9Y-185">
          <mxGeometry x="48" width="117" height="22" as="geometry">
            <mxRectangle width="117" height="22" as="alternateBounds" />
          </mxGeometry>
        </mxCell>
        <mxCell id="ZCJGiTf_6MgXrqR2AK9Y-188" value="CHAT" style="shape=table;startSize=25;container=1;collapsible=0;childLayout=tableLayout;fixedRows=1;rowLines=1;fontStyle=1;align=center;resizeLast=1;" vertex="1" parent="1">
          <mxGeometry x="2241" y="375" width="113" height="69" as="geometry" />
        </mxCell>
        <mxCell id="ZCJGiTf_6MgXrqR2AK9Y-189" style="shape=tableRow;horizontal=0;startSize=0;swimlaneHead=0;swimlaneBody=0;fillColor=none;collapsible=0;dropTarget=0;points=[[0,0.5],[1,0.5]];portConstraint=eastwest;top=0;left=0;right=0;bottom=0;" vertex="1" parent="ZCJGiTf_6MgXrqR2AK9Y-188">
          <mxGeometry y="25" width="113" height="22" as="geometry" />
        </mxCell>
        <mxCell id="ZCJGiTf_6MgXrqR2AK9Y-190" value="int" style="shape=partialRectangle;connectable=0;fillColor=none;top=0;left=0;bottom=0;right=0;align=left;spacingLeft=2;overflow=hidden;fontSize=11;" vertex="1" parent="ZCJGiTf_6MgXrqR2AK9Y-189">
          <mxGeometry width="36" height="22" as="geometry">
            <mxRectangle width="36" height="22" as="alternateBounds" />
          </mxGeometry>
        </mxCell>
        <mxCell id="ZCJGiTf_6MgXrqR2AK9Y-191" value="chat_id" style="shape=partialRectangle;connectable=0;fillColor=none;top=0;left=0;bottom=0;right=0;align=left;spacingLeft=2;overflow=hidden;fontSize=11;" vertex="1" parent="ZCJGiTf_6MgXrqR2AK9Y-189">
          <mxGeometry x="36" width="77" height="22" as="geometry">
            <mxRectangle width="77" height="22" as="alternateBounds" />
          </mxGeometry>
        </mxCell>
        <mxCell id="ZCJGiTf_6MgXrqR2AK9Y-192" style="shape=tableRow;horizontal=0;startSize=0;swimlaneHead=0;swimlaneBody=0;fillColor=none;collapsible=0;dropTarget=0;points=[[0,0.5],[1,0.5]];portConstraint=eastwest;top=0;left=0;right=0;bottom=0;" vertex="1" parent="ZCJGiTf_6MgXrqR2AK9Y-188">
          <mxGeometry y="47" width="113" height="22" as="geometry" />
        </mxCell>
        <mxCell id="ZCJGiTf_6MgXrqR2AK9Y-193" value="string" style="shape=partialRectangle;connectable=0;fillColor=none;top=0;left=0;bottom=0;right=0;align=left;spacingLeft=2;overflow=hidden;fontSize=11;" vertex="1" parent="ZCJGiTf_6MgXrqR2AK9Y-192">
          <mxGeometry width="36" height="22" as="geometry">
            <mxRectangle width="36" height="22" as="alternateBounds" />
          </mxGeometry>
        </mxCell>
        <mxCell id="ZCJGiTf_6MgXrqR2AK9Y-194" value="chat_type" style="shape=partialRectangle;connectable=0;fillColor=none;top=0;left=0;bottom=0;right=0;align=left;spacingLeft=2;overflow=hidden;fontSize=11;" vertex="1" parent="ZCJGiTf_6MgXrqR2AK9Y-192">
          <mxGeometry x="36" width="77" height="22" as="geometry">
            <mxRectangle width="77" height="22" as="alternateBounds" />
          </mxGeometry>
        </mxCell>
        <mxCell id="ZCJGiTf_6MgXrqR2AK9Y-195" value="MESSAGE" style="shape=table;startSize=25;container=1;collapsible=0;childLayout=tableLayout;fixedRows=1;rowLines=1;fontStyle=1;align=center;resizeLast=1;" vertex="1" parent="1">
          <mxGeometry x="2308" y="620" width="136" height="135" as="geometry" />
        </mxCell>
        <mxCell id="ZCJGiTf_6MgXrqR2AK9Y-196" style="shape=tableRow;horizontal=0;startSize=0;swimlaneHead=0;swimlaneBody=0;fillColor=none;collapsible=0;dropTarget=0;points=[[0,0.5],[1,0.5]];portConstraint=eastwest;top=0;left=0;right=0;bottom=0;" vertex="1" parent="ZCJGiTf_6MgXrqR2AK9Y-195">
          <mxGeometry y="25" width="136" height="22" as="geometry" />
        </mxCell>
        <mxCell id="ZCJGiTf_6MgXrqR2AK9Y-197" value="int" style="shape=partialRectangle;connectable=0;fillColor=none;top=0;left=0;bottom=0;right=0;align=left;spacingLeft=2;overflow=hidden;fontSize=11;" vertex="1" parent="ZCJGiTf_6MgXrqR2AK9Y-196">
          <mxGeometry width="48" height="22" as="geometry">
            <mxRectangle width="48" height="22" as="alternateBounds" />
          </mxGeometry>
        </mxCell>
        <mxCell id="ZCJGiTf_6MgXrqR2AK9Y-198" value="message_id" style="shape=partialRectangle;connectable=0;fillColor=none;top=0;left=0;bottom=0;right=0;align=left;spacingLeft=2;overflow=hidden;fontSize=11;" vertex="1" parent="ZCJGiTf_6MgXrqR2AK9Y-196">
          <mxGeometry x="48" width="88" height="22" as="geometry">
            <mxRectangle width="88" height="22" as="alternateBounds" />
          </mxGeometry>
        </mxCell>
        <mxCell id="ZCJGiTf_6MgXrqR2AK9Y-199" style="shape=tableRow;horizontal=0;startSize=0;swimlaneHead=0;swimlaneBody=0;fillColor=none;collapsible=0;dropTarget=0;points=[[0,0.5],[1,0.5]];portConstraint=eastwest;top=0;left=0;right=0;bottom=0;" vertex="1" parent="ZCJGiTf_6MgXrqR2AK9Y-195">
          <mxGeometry y="47" width="136" height="22" as="geometry" />
        </mxCell>
        <mxCell id="ZCJGiTf_6MgXrqR2AK9Y-200" value="int" style="shape=partialRectangle;connectable=0;fillColor=none;top=0;left=0;bottom=0;right=0;align=left;spacingLeft=2;overflow=hidden;fontSize=11;" vertex="1" parent="ZCJGiTf_6MgXrqR2AK9Y-199">
          <mxGeometry width="48" height="22" as="geometry">
            <mxRectangle width="48" height="22" as="alternateBounds" />
          </mxGeometry>
        </mxCell>
        <mxCell id="ZCJGiTf_6MgXrqR2AK9Y-201" value="chat_id" style="shape=partialRectangle;connectable=0;fillColor=none;top=0;left=0;bottom=0;right=0;align=left;spacingLeft=2;overflow=hidden;fontSize=11;" vertex="1" parent="ZCJGiTf_6MgXrqR2AK9Y-199">
          <mxGeometry x="48" width="88" height="22" as="geometry">
            <mxRectangle width="88" height="22" as="alternateBounds" />
          </mxGeometry>
        </mxCell>
        <mxCell id="ZCJGiTf_6MgXrqR2AK9Y-202" style="shape=tableRow;horizontal=0;startSize=0;swimlaneHead=0;swimlaneBody=0;fillColor=none;collapsible=0;dropTarget=0;points=[[0,0.5],[1,0.5]];portConstraint=eastwest;top=0;left=0;right=0;bottom=0;" vertex="1" parent="ZCJGiTf_6MgXrqR2AK9Y-195">
          <mxGeometry y="69" width="136" height="22" as="geometry" />
        </mxCell>
        <mxCell id="ZCJGiTf_6MgXrqR2AK9Y-203" value="int" style="shape=partialRectangle;connectable=0;fillColor=none;top=0;left=0;bottom=0;right=0;align=left;spacingLeft=2;overflow=hidden;fontSize=11;" vertex="1" parent="ZCJGiTf_6MgXrqR2AK9Y-202">
          <mxGeometry width="48" height="22" as="geometry">
            <mxRectangle width="48" height="22" as="alternateBounds" />
          </mxGeometry>
        </mxCell>
        <mxCell id="ZCJGiTf_6MgXrqR2AK9Y-204" value="sender_id" style="shape=partialRectangle;connectable=0;fillColor=none;top=0;left=0;bottom=0;right=0;align=left;spacingLeft=2;overflow=hidden;fontSize=11;" vertex="1" parent="ZCJGiTf_6MgXrqR2AK9Y-202">
          <mxGeometry x="48" width="88" height="22" as="geometry">
            <mxRectangle width="88" height="22" as="alternateBounds" />
          </mxGeometry>
        </mxCell>
        <mxCell id="ZCJGiTf_6MgXrqR2AK9Y-205" style="shape=tableRow;horizontal=0;startSize=0;swimlaneHead=0;swimlaneBody=0;fillColor=none;collapsible=0;dropTarget=0;points=[[0,0.5],[1,0.5]];portConstraint=eastwest;top=0;left=0;right=0;bottom=0;" vertex="1" parent="ZCJGiTf_6MgXrqR2AK9Y-195">
          <mxGeometry y="91" width="136" height="22" as="geometry" />
        </mxCell>
        <mxCell id="ZCJGiTf_6MgXrqR2AK9Y-206" value="string" style="shape=partialRectangle;connectable=0;fillColor=none;top=0;left=0;bottom=0;right=0;align=left;spacingLeft=2;overflow=hidden;fontSize=11;" vertex="1" parent="ZCJGiTf_6MgXrqR2AK9Y-205">
          <mxGeometry width="48" height="22" as="geometry">
            <mxRectangle width="48" height="22" as="alternateBounds" />
          </mxGeometry>
        </mxCell>
        <mxCell id="ZCJGiTf_6MgXrqR2AK9Y-207" value="content" style="shape=partialRectangle;connectable=0;fillColor=none;top=0;left=0;bottom=0;right=0;align=left;spacingLeft=2;overflow=hidden;fontSize=11;" vertex="1" parent="ZCJGiTf_6MgXrqR2AK9Y-205">
          <mxGeometry x="48" width="88" height="22" as="geometry">
            <mxRectangle width="88" height="22" as="alternateBounds" />
          </mxGeometry>
        </mxCell>
        <mxCell id="ZCJGiTf_6MgXrqR2AK9Y-208" style="shape=tableRow;horizontal=0;startSize=0;swimlaneHead=0;swimlaneBody=0;fillColor=none;collapsible=0;dropTarget=0;points=[[0,0.5],[1,0.5]];portConstraint=eastwest;top=0;left=0;right=0;bottom=0;" vertex="1" parent="ZCJGiTf_6MgXrqR2AK9Y-195">
          <mxGeometry y="113" width="136" height="22" as="geometry" />
        </mxCell>
        <mxCell id="ZCJGiTf_6MgXrqR2AK9Y-209" value="datetime" style="shape=partialRectangle;connectable=0;fillColor=none;top=0;left=0;bottom=0;right=0;align=left;spacingLeft=2;overflow=hidden;fontSize=11;" vertex="1" parent="ZCJGiTf_6MgXrqR2AK9Y-208">
          <mxGeometry width="48" height="22" as="geometry">
            <mxRectangle width="48" height="22" as="alternateBounds" />
          </mxGeometry>
        </mxCell>
        <mxCell id="ZCJGiTf_6MgXrqR2AK9Y-210" value="send_time" style="shape=partialRectangle;connectable=0;fillColor=none;top=0;left=0;bottom=0;right=0;align=left;spacingLeft=2;overflow=hidden;fontSize=11;" vertex="1" parent="ZCJGiTf_6MgXrqR2AK9Y-208">
          <mxGeometry x="48" width="88" height="22" as="geometry">
            <mxRectangle width="88" height="22" as="alternateBounds" />
          </mxGeometry>
        </mxCell>
        <mxCell id="ZCJGiTf_6MgXrqR2AK9Y-211" value="NOTIFICATION" style="shape=table;startSize=25;container=1;collapsible=0;childLayout=tableLayout;fixedRows=1;rowLines=1;fontStyle=1;align=center;resizeLast=1;" vertex="1" parent="1">
          <mxGeometry x="1417" y="331" width="150" height="157" as="geometry" />
        </mxCell>
        <mxCell id="ZCJGiTf_6MgXrqR2AK9Y-212" style="shape=tableRow;horizontal=0;startSize=0;swimlaneHead=0;swimlaneBody=0;fillColor=none;collapsible=0;dropTarget=0;points=[[0,0.5],[1,0.5]];portConstraint=eastwest;top=0;left=0;right=0;bottom=0;" vertex="1" parent="ZCJGiTf_6MgXrqR2AK9Y-211">
          <mxGeometry y="25" width="150" height="22" as="geometry" />
        </mxCell>
        <mxCell id="ZCJGiTf_6MgXrqR2AK9Y-213" value="int" style="shape=partialRectangle;connectable=0;fillColor=none;top=0;left=0;bottom=0;right=0;align=left;spacingLeft=2;overflow=hidden;fontSize=11;" vertex="1" parent="ZCJGiTf_6MgXrqR2AK9Y-212">
          <mxGeometry width="48" height="22" as="geometry">
            <mxRectangle width="48" height="22" as="alternateBounds" />
          </mxGeometry>
        </mxCell>
        <mxCell id="ZCJGiTf_6MgXrqR2AK9Y-214" value="notification_id" style="shape=partialRectangle;connectable=0;fillColor=none;top=0;left=0;bottom=0;right=0;align=left;spacingLeft=2;overflow=hidden;fontSize=11;" vertex="1" parent="ZCJGiTf_6MgXrqR2AK9Y-212">
          <mxGeometry x="48" width="102" height="22" as="geometry">
            <mxRectangle width="102" height="22" as="alternateBounds" />
          </mxGeometry>
        </mxCell>
        <mxCell id="ZCJGiTf_6MgXrqR2AK9Y-215" style="shape=tableRow;horizontal=0;startSize=0;swimlaneHead=0;swimlaneBody=0;fillColor=none;collapsible=0;dropTarget=0;points=[[0,0.5],[1,0.5]];portConstraint=eastwest;top=0;left=0;right=0;bottom=0;" vertex="1" parent="ZCJGiTf_6MgXrqR2AK9Y-211">
          <mxGeometry y="47" width="150" height="22" as="geometry" />
        </mxCell>
        <mxCell id="ZCJGiTf_6MgXrqR2AK9Y-216" value="int" style="shape=partialRectangle;connectable=0;fillColor=none;top=0;left=0;bottom=0;right=0;align=left;spacingLeft=2;overflow=hidden;fontSize=11;" vertex="1" parent="ZCJGiTf_6MgXrqR2AK9Y-215">
          <mxGeometry width="48" height="22" as="geometry">
            <mxRectangle width="48" height="22" as="alternateBounds" />
          </mxGeometry>
        </mxCell>
        <mxCell id="ZCJGiTf_6MgXrqR2AK9Y-217" value="user_id" style="shape=partialRectangle;connectable=0;fillColor=none;top=0;left=0;bottom=0;right=0;align=left;spacingLeft=2;overflow=hidden;fontSize=11;" vertex="1" parent="ZCJGiTf_6MgXrqR2AK9Y-215">
          <mxGeometry x="48" width="102" height="22" as="geometry">
            <mxRectangle width="102" height="22" as="alternateBounds" />
          </mxGeometry>
        </mxCell>
        <mxCell id="ZCJGiTf_6MgXrqR2AK9Y-218" style="shape=tableRow;horizontal=0;startSize=0;swimlaneHead=0;swimlaneBody=0;fillColor=none;collapsible=0;dropTarget=0;points=[[0,0.5],[1,0.5]];portConstraint=eastwest;top=0;left=0;right=0;bottom=0;" vertex="1" parent="ZCJGiTf_6MgXrqR2AK9Y-211">
          <mxGeometry y="69" width="150" height="22" as="geometry" />
        </mxCell>
        <mxCell id="ZCJGiTf_6MgXrqR2AK9Y-219" value="string" style="shape=partialRectangle;connectable=0;fillColor=none;top=0;left=0;bottom=0;right=0;align=left;spacingLeft=2;overflow=hidden;fontSize=11;" vertex="1" parent="ZCJGiTf_6MgXrqR2AK9Y-218">
          <mxGeometry width="48" height="22" as="geometry">
            <mxRectangle width="48" height="22" as="alternateBounds" />
          </mxGeometry>
        </mxCell>
        <mxCell id="ZCJGiTf_6MgXrqR2AK9Y-220" value="content" style="shape=partialRectangle;connectable=0;fillColor=none;top=0;left=0;bottom=0;right=0;align=left;spacingLeft=2;overflow=hidden;fontSize=11;" vertex="1" parent="ZCJGiTf_6MgXrqR2AK9Y-218">
          <mxGeometry x="48" width="102" height="22" as="geometry">
            <mxRectangle width="102" height="22" as="alternateBounds" />
          </mxGeometry>
        </mxCell>
        <mxCell id="ZCJGiTf_6MgXrqR2AK9Y-221" style="shape=tableRow;horizontal=0;startSize=0;swimlaneHead=0;swimlaneBody=0;fillColor=none;collapsible=0;dropTarget=0;points=[[0,0.5],[1,0.5]];portConstraint=eastwest;top=0;left=0;right=0;bottom=0;" vertex="1" parent="ZCJGiTf_6MgXrqR2AK9Y-211">
          <mxGeometry y="91" width="150" height="22" as="geometry" />
        </mxCell>
        <mxCell id="ZCJGiTf_6MgXrqR2AK9Y-222" value="string" style="shape=partialRectangle;connectable=0;fillColor=none;top=0;left=0;bottom=0;right=0;align=left;spacingLeft=2;overflow=hidden;fontSize=11;" vertex="1" parent="ZCJGiTf_6MgXrqR2AK9Y-221">
          <mxGeometry width="48" height="22" as="geometry">
            <mxRectangle width="48" height="22" as="alternateBounds" />
          </mxGeometry>
        </mxCell>
        <mxCell id="ZCJGiTf_6MgXrqR2AK9Y-223" value="type" style="shape=partialRectangle;connectable=0;fillColor=none;top=0;left=0;bottom=0;right=0;align=left;spacingLeft=2;overflow=hidden;fontSize=11;" vertex="1" parent="ZCJGiTf_6MgXrqR2AK9Y-221">
          <mxGeometry x="48" width="102" height="22" as="geometry">
            <mxRectangle width="102" height="22" as="alternateBounds" />
          </mxGeometry>
        </mxCell>
        <mxCell id="ZCJGiTf_6MgXrqR2AK9Y-224" style="shape=tableRow;horizontal=0;startSize=0;swimlaneHead=0;swimlaneBody=0;fillColor=none;collapsible=0;dropTarget=0;points=[[0,0.5],[1,0.5]];portConstraint=eastwest;top=0;left=0;right=0;bottom=0;" vertex="1" parent="ZCJGiTf_6MgXrqR2AK9Y-211">
          <mxGeometry y="113" width="150" height="22" as="geometry" />
        </mxCell>
        <mxCell id="ZCJGiTf_6MgXrqR2AK9Y-225" value="datetime" style="shape=partialRectangle;connectable=0;fillColor=none;top=0;left=0;bottom=0;right=0;align=left;spacingLeft=2;overflow=hidden;fontSize=11;" vertex="1" parent="ZCJGiTf_6MgXrqR2AK9Y-224">
          <mxGeometry width="48" height="22" as="geometry">
            <mxRectangle width="48" height="22" as="alternateBounds" />
          </mxGeometry>
        </mxCell>
        <mxCell id="ZCJGiTf_6MgXrqR2AK9Y-226" value="timestamp" style="shape=partialRectangle;connectable=0;fillColor=none;top=0;left=0;bottom=0;right=0;align=left;spacingLeft=2;overflow=hidden;fontSize=11;" vertex="1" parent="ZCJGiTf_6MgXrqR2AK9Y-224">
          <mxGeometry x="48" width="102" height="22" as="geometry">
            <mxRectangle width="102" height="22" as="alternateBounds" />
          </mxGeometry>
        </mxCell>
        <mxCell id="ZCJGiTf_6MgXrqR2AK9Y-227" style="shape=tableRow;horizontal=0;startSize=0;swimlaneHead=0;swimlaneBody=0;fillColor=none;collapsible=0;dropTarget=0;points=[[0,0.5],[1,0.5]];portConstraint=eastwest;top=0;left=0;right=0;bottom=0;" vertex="1" parent="ZCJGiTf_6MgXrqR2AK9Y-211">
          <mxGeometry y="135" width="150" height="22" as="geometry" />
        </mxCell>
        <mxCell id="ZCJGiTf_6MgXrqR2AK9Y-228" value="boolean" style="shape=partialRectangle;connectable=0;fillColor=none;top=0;left=0;bottom=0;right=0;align=left;spacingLeft=2;overflow=hidden;fontSize=11;" vertex="1" parent="ZCJGiTf_6MgXrqR2AK9Y-227">
          <mxGeometry width="48" height="22" as="geometry">
            <mxRectangle width="48" height="22" as="alternateBounds" />
          </mxGeometry>
        </mxCell>
        <mxCell id="ZCJGiTf_6MgXrqR2AK9Y-229" value="is_read" style="shape=partialRectangle;connectable=0;fillColor=none;top=0;left=0;bottom=0;right=0;align=left;spacingLeft=2;overflow=hidden;fontSize=11;" vertex="1" parent="ZCJGiTf_6MgXrqR2AK9Y-227">
          <mxGeometry x="48" width="102" height="22" as="geometry">
            <mxRectangle width="102" height="22" as="alternateBounds" />
          </mxGeometry>
        </mxCell>
        <mxCell id="ZCJGiTf_6MgXrqR2AK9Y-230" value="PAYMENT" style="shape=table;startSize=25;container=1;collapsible=0;childLayout=tableLayout;fixedRows=1;rowLines=1;fontStyle=1;align=center;resizeLast=1;" vertex="1" parent="1">
          <mxGeometry x="1668" y="320" width="149" height="179" as="geometry" />
        </mxCell>
        <mxCell id="ZCJGiTf_6MgXrqR2AK9Y-231" style="shape=tableRow;horizontal=0;startSize=0;swimlaneHead=0;swimlaneBody=0;fillColor=none;collapsible=0;dropTarget=0;points=[[0,0.5],[1,0.5]];portConstraint=eastwest;top=0;left=0;right=0;bottom=0;" vertex="1" parent="ZCJGiTf_6MgXrqR2AK9Y-230">
          <mxGeometry y="25" width="149" height="22" as="geometry" />
        </mxCell>
        <mxCell id="ZCJGiTf_6MgXrqR2AK9Y-232" value="int" style="shape=partialRectangle;connectable=0;fillColor=none;top=0;left=0;bottom=0;right=0;align=left;spacingLeft=2;overflow=hidden;fontSize=11;" vertex="1" parent="ZCJGiTf_6MgXrqR2AK9Y-231">
          <mxGeometry width="48" height="22" as="geometry">
            <mxRectangle width="48" height="22" as="alternateBounds" />
          </mxGeometry>
        </mxCell>
        <mxCell id="ZCJGiTf_6MgXrqR2AK9Y-233" value="payment_id" style="shape=partialRectangle;connectable=0;fillColor=none;top=0;left=0;bottom=0;right=0;align=left;spacingLeft=2;overflow=hidden;fontSize=11;" vertex="1" parent="ZCJGiTf_6MgXrqR2AK9Y-231">
          <mxGeometry x="48" width="101" height="22" as="geometry">
            <mxRectangle width="101" height="22" as="alternateBounds" />
          </mxGeometry>
        </mxCell>
        <mxCell id="ZCJGiTf_6MgXrqR2AK9Y-234" style="shape=tableRow;horizontal=0;startSize=0;swimlaneHead=0;swimlaneBody=0;fillColor=none;collapsible=0;dropTarget=0;points=[[0,0.5],[1,0.5]];portConstraint=eastwest;top=0;left=0;right=0;bottom=0;" vertex="1" parent="ZCJGiTf_6MgXrqR2AK9Y-230">
          <mxGeometry y="47" width="149" height="22" as="geometry" />
        </mxCell>
        <mxCell id="ZCJGiTf_6MgXrqR2AK9Y-235" value="int" style="shape=partialRectangle;connectable=0;fillColor=none;top=0;left=0;bottom=0;right=0;align=left;spacingLeft=2;overflow=hidden;fontSize=11;" vertex="1" parent="ZCJGiTf_6MgXrqR2AK9Y-234">
          <mxGeometry width="48" height="22" as="geometry">
            <mxRectangle width="48" height="22" as="alternateBounds" />
          </mxGeometry>
        </mxCell>
        <mxCell id="ZCJGiTf_6MgXrqR2AK9Y-236" value="payer_id" style="shape=partialRectangle;connectable=0;fillColor=none;top=0;left=0;bottom=0;right=0;align=left;spacingLeft=2;overflow=hidden;fontSize=11;" vertex="1" parent="ZCJGiTf_6MgXrqR2AK9Y-234">
          <mxGeometry x="48" width="101" height="22" as="geometry">
            <mxRectangle width="101" height="22" as="alternateBounds" />
          </mxGeometry>
        </mxCell>
        <mxCell id="ZCJGiTf_6MgXrqR2AK9Y-237" style="shape=tableRow;horizontal=0;startSize=0;swimlaneHead=0;swimlaneBody=0;fillColor=none;collapsible=0;dropTarget=0;points=[[0,0.5],[1,0.5]];portConstraint=eastwest;top=0;left=0;right=0;bottom=0;" vertex="1" parent="ZCJGiTf_6MgXrqR2AK9Y-230">
          <mxGeometry y="69" width="149" height="22" as="geometry" />
        </mxCell>
        <mxCell id="ZCJGiTf_6MgXrqR2AK9Y-238" value="int" style="shape=partialRectangle;connectable=0;fillColor=none;top=0;left=0;bottom=0;right=0;align=left;spacingLeft=2;overflow=hidden;fontSize=11;" vertex="1" parent="ZCJGiTf_6MgXrqR2AK9Y-237">
          <mxGeometry width="48" height="22" as="geometry">
            <mxRectangle width="48" height="22" as="alternateBounds" />
          </mxGeometry>
        </mxCell>
        <mxCell id="ZCJGiTf_6MgXrqR2AK9Y-239" value="receiver_id" style="shape=partialRectangle;connectable=0;fillColor=none;top=0;left=0;bottom=0;right=0;align=left;spacingLeft=2;overflow=hidden;fontSize=11;" vertex="1" parent="ZCJGiTf_6MgXrqR2AK9Y-237">
          <mxGeometry x="48" width="101" height="22" as="geometry">
            <mxRectangle width="101" height="22" as="alternateBounds" />
          </mxGeometry>
        </mxCell>
        <mxCell id="ZCJGiTf_6MgXrqR2AK9Y-240" style="shape=tableRow;horizontal=0;startSize=0;swimlaneHead=0;swimlaneBody=0;fillColor=none;collapsible=0;dropTarget=0;points=[[0,0.5],[1,0.5]];portConstraint=eastwest;top=0;left=0;right=0;bottom=0;" vertex="1" parent="ZCJGiTf_6MgXrqR2AK9Y-230">
          <mxGeometry y="91" width="149" height="22" as="geometry" />
        </mxCell>
        <mxCell id="ZCJGiTf_6MgXrqR2AK9Y-241" value="float" style="shape=partialRectangle;connectable=0;fillColor=none;top=0;left=0;bottom=0;right=0;align=left;spacingLeft=2;overflow=hidden;fontSize=11;" vertex="1" parent="ZCJGiTf_6MgXrqR2AK9Y-240">
          <mxGeometry width="48" height="22" as="geometry">
            <mxRectangle width="48" height="22" as="alternateBounds" />
          </mxGeometry>
        </mxCell>
        <mxCell id="ZCJGiTf_6MgXrqR2AK9Y-242" value="amount" style="shape=partialRectangle;connectable=0;fillColor=none;top=0;left=0;bottom=0;right=0;align=left;spacingLeft=2;overflow=hidden;fontSize=11;" vertex="1" parent="ZCJGiTf_6MgXrqR2AK9Y-240">
          <mxGeometry x="48" width="101" height="22" as="geometry">
            <mxRectangle width="101" height="22" as="alternateBounds" />
          </mxGeometry>
        </mxCell>
        <mxCell id="ZCJGiTf_6MgXrqR2AK9Y-243" style="shape=tableRow;horizontal=0;startSize=0;swimlaneHead=0;swimlaneBody=0;fillColor=none;collapsible=0;dropTarget=0;points=[[0,0.5],[1,0.5]];portConstraint=eastwest;top=0;left=0;right=0;bottom=0;" vertex="1" parent="ZCJGiTf_6MgXrqR2AK9Y-230">
          <mxGeometry y="113" width="149" height="22" as="geometry" />
        </mxCell>
        <mxCell id="ZCJGiTf_6MgXrqR2AK9Y-244" value="string" style="shape=partialRectangle;connectable=0;fillColor=none;top=0;left=0;bottom=0;right=0;align=left;spacingLeft=2;overflow=hidden;fontSize=11;" vertex="1" parent="ZCJGiTf_6MgXrqR2AK9Y-243">
          <mxGeometry width="48" height="22" as="geometry">
            <mxRectangle width="48" height="22" as="alternateBounds" />
          </mxGeometry>
        </mxCell>
        <mxCell id="ZCJGiTf_6MgXrqR2AK9Y-245" value="payment_type" style="shape=partialRectangle;connectable=0;fillColor=none;top=0;left=0;bottom=0;right=0;align=left;spacingLeft=2;overflow=hidden;fontSize=11;" vertex="1" parent="ZCJGiTf_6MgXrqR2AK9Y-243">
          <mxGeometry x="48" width="101" height="22" as="geometry">
            <mxRectangle width="101" height="22" as="alternateBounds" />
          </mxGeometry>
        </mxCell>
        <mxCell id="ZCJGiTf_6MgXrqR2AK9Y-246" style="shape=tableRow;horizontal=0;startSize=0;swimlaneHead=0;swimlaneBody=0;fillColor=none;collapsible=0;dropTarget=0;points=[[0,0.5],[1,0.5]];portConstraint=eastwest;top=0;left=0;right=0;bottom=0;" vertex="1" parent="ZCJGiTf_6MgXrqR2AK9Y-230">
          <mxGeometry y="135" width="149" height="22" as="geometry" />
        </mxCell>
        <mxCell id="ZCJGiTf_6MgXrqR2AK9Y-247" value="datetime" style="shape=partialRectangle;connectable=0;fillColor=none;top=0;left=0;bottom=0;right=0;align=left;spacingLeft=2;overflow=hidden;fontSize=11;" vertex="1" parent="ZCJGiTf_6MgXrqR2AK9Y-246">
          <mxGeometry width="48" height="22" as="geometry">
            <mxRectangle width="48" height="22" as="alternateBounds" />
          </mxGeometry>
        </mxCell>
        <mxCell id="ZCJGiTf_6MgXrqR2AK9Y-248" value="payment_date" style="shape=partialRectangle;connectable=0;fillColor=none;top=0;left=0;bottom=0;right=0;align=left;spacingLeft=2;overflow=hidden;fontSize=11;" vertex="1" parent="ZCJGiTf_6MgXrqR2AK9Y-246">
          <mxGeometry x="48" width="101" height="22" as="geometry">
            <mxRectangle width="101" height="22" as="alternateBounds" />
          </mxGeometry>
        </mxCell>
        <mxCell id="ZCJGiTf_6MgXrqR2AK9Y-249" style="shape=tableRow;horizontal=0;startSize=0;swimlaneHead=0;swimlaneBody=0;fillColor=none;collapsible=0;dropTarget=0;points=[[0,0.5],[1,0.5]];portConstraint=eastwest;top=0;left=0;right=0;bottom=0;" vertex="1" parent="ZCJGiTf_6MgXrqR2AK9Y-230">
          <mxGeometry y="157" width="149" height="22" as="geometry" />
        </mxCell>
        <mxCell id="ZCJGiTf_6MgXrqR2AK9Y-250" value="string" style="shape=partialRectangle;connectable=0;fillColor=none;top=0;left=0;bottom=0;right=0;align=left;spacingLeft=2;overflow=hidden;fontSize=11;" vertex="1" parent="ZCJGiTf_6MgXrqR2AK9Y-249">
          <mxGeometry width="48" height="22" as="geometry">
            <mxRectangle width="48" height="22" as="alternateBounds" />
          </mxGeometry>
        </mxCell>
        <mxCell id="ZCJGiTf_6MgXrqR2AK9Y-251" value="status" style="shape=partialRectangle;connectable=0;fillColor=none;top=0;left=0;bottom=0;right=0;align=left;spacingLeft=2;overflow=hidden;fontSize=11;" vertex="1" parent="ZCJGiTf_6MgXrqR2AK9Y-249">
          <mxGeometry x="48" width="101" height="22" as="geometry">
            <mxRectangle width="101" height="22" as="alternateBounds" />
          </mxGeometry>
        </mxCell>
        <mxCell id="ZCJGiTf_6MgXrqR2AK9Y-252" value="provides" style="curved=1;startArrow=ERmandOne;startSize=10;;endArrow=ERmany;endSize=10;;exitX=0;exitY=0.54;entryX=0.5;entryY=0;rounded=0;" edge="1" parent="1" source="ZCJGiTf_6MgXrqR2AK9Y-1" target="ZCJGiTf_6MgXrqR2AK9Y-26">
          <mxGeometry relative="1" as="geometry">
            <Array as="points">
              <mxPoint x="80" y="270" />
            </Array>
          </mxGeometry>
        </mxCell>
        <mxCell id="ZCJGiTf_6MgXrqR2AK9Y-253" value="receives" style="curved=1;startArrow=ERmandOne;startSize=10;;endArrow=ERmany;endSize=10;;exitX=0.5;exitY=1;entryX=0.14;entryY=0;rounded=0;" edge="1" parent="1" source="ZCJGiTf_6MgXrqR2AK9Y-26" target="ZCJGiTf_6MgXrqR2AK9Y-42">
          <mxGeometry relative="1" as="geometry">
            <Array as="points">
              <mxPoint x="80" y="548" />
            </Array>
          </mxGeometry>
        </mxCell>
        <mxCell id="ZCJGiTf_6MgXrqR2AK9Y-254" value="writes" style="curved=1;startArrow=ERmandOne;startSize=10;;endArrow=ERmany;endSize=10;;exitX=0;exitY=0.55;entryX=0.86;entryY=0;rounded=0;" edge="1" parent="1" source="ZCJGiTf_6MgXrqR2AK9Y-1" target="ZCJGiTf_6MgXrqR2AK9Y-42">
          <mxGeometry relative="1" as="geometry">
            <Array as="points">
              <mxPoint x="240" y="270" />
              <mxPoint x="240" y="548" />
            </Array>
          </mxGeometry>
        </mxCell>
        <mxCell id="ZCJGiTf_6MgXrqR2AK9Y-255" value="can_be" style="curved=1;startArrow=ERmandOne;startSize=10;;endArrow=ERmany;endSize=10;;exitX=0;exitY=0.59;entryX=0.5;entryY=0;rounded=0;" edge="1" parent="1" source="ZCJGiTf_6MgXrqR2AK9Y-1" target="ZCJGiTf_6MgXrqR2AK9Y-61">
          <mxGeometry relative="1" as="geometry">
            <Array as="points">
              <mxPoint x="648" y="270" />
            </Array>
          </mxGeometry>
        </mxCell>
        <mxCell id="ZCJGiTf_6MgXrqR2AK9Y-256" value="offers" style="curved=1;startArrow=ERmandOne;startSize=10;;endArrow=ERmany;endSize=10;;exitX=0.5;exitY=1;entryX=0;entryY=0.33;rounded=0;" edge="1" parent="1" source="ZCJGiTf_6MgXrqR2AK9Y-61" target="ZCJGiTf_6MgXrqR2AK9Y-80">
          <mxGeometry relative="1" as="geometry">
            <Array as="points">
              <mxPoint x="648" y="548" />
            </Array>
          </mxGeometry>
        </mxCell>
        <mxCell id="ZCJGiTf_6MgXrqR2AK9Y-257" value="requests" style="curved=1;startArrow=ERmandOne;startSize=10;;endArrow=ERmany;endSize=10;;exitX=0.95;exitY=1;entryX=1;entryY=0.33;rounded=0;" edge="1" parent="1" source="ZCJGiTf_6MgXrqR2AK9Y-1" target="ZCJGiTf_6MgXrqR2AK9Y-80">
          <mxGeometry relative="1" as="geometry">
            <Array as="points">
              <mxPoint x="1317" y="270" />
              <mxPoint x="1317" y="548" />
            </Array>
          </mxGeometry>
        </mxCell>
        <mxCell id="ZCJGiTf_6MgXrqR2AK9Y-258" value="sells" style="curved=1;startArrow=ERmandOne;startSize=10;;endArrow=ERmany;endSize=10;;exitX=0;exitY=0.56;entryX=0.26;entryY=0;rounded=0;" edge="1" parent="1" source="ZCJGiTf_6MgXrqR2AK9Y-1" target="ZCJGiTf_6MgXrqR2AK9Y-102">
          <mxGeometry relative="1" as="geometry">
            <Array as="points">
              <mxPoint x="369" y="270" />
            </Array>
          </mxGeometry>
        </mxCell>
        <mxCell id="ZCJGiTf_6MgXrqR2AK9Y-259" value="buys" style="curved=1;startArrow=ERmandOne;startSize=10;;endArrow=ERmany;endSize=10;;exitX=0;exitY=0.57;entryX=0.81;entryY=0;rounded=0;" edge="1" parent="1" source="ZCJGiTf_6MgXrqR2AK9Y-1" target="ZCJGiTf_6MgXrqR2AK9Y-102">
          <mxGeometry relative="1" as="geometry">
            <Array as="points">
              <mxPoint x="484" y="270" />
            </Array>
          </mxGeometry>
        </mxCell>
        <mxCell id="ZCJGiTf_6MgXrqR2AK9Y-260" value="participates" style="curved=1;startArrow=ERmany;startSize=10;;endArrow=ERmany;endSize=10;;exitX=1;exitY=0.57;entryX=0.5;entryY=0;rounded=0;" edge="1" parent="1" source="ZCJGiTf_6MgXrqR2AK9Y-1" target="ZCJGiTf_6MgXrqR2AK9Y-121">
          <mxGeometry relative="1" as="geometry">
            <Array as="points">
              <mxPoint x="1979" y="270" />
            </Array>
          </mxGeometry>
        </mxCell>
        <mxCell id="ZCJGiTf_6MgXrqR2AK9Y-261" value="has" style="curved=1;startArrow=ERmandOne;startSize=10;;endArrow=ERmany;endSize=10;;exitX=0.5;exitY=1;entryX=0.15;entryY=0;rounded=0;" edge="1" parent="1" source="ZCJGiTf_6MgXrqR2AK9Y-121" target="ZCJGiTf_6MgXrqR2AK9Y-131">
          <mxGeometry relative="1" as="geometry">
            <Array as="points">
              <mxPoint x="1979" y="548" />
            </Array>
          </mxGeometry>
        </mxCell>
        <mxCell id="ZCJGiTf_6MgXrqR2AK9Y-262" value="uploads" style="curved=1;startArrow=ERmandOne;startSize=10;;endArrow=ERmany;endSize=10;;exitX=1;exitY=0.56;entryX=0.85;entryY=0;rounded=0;" edge="1" parent="1" source="ZCJGiTf_6MgXrqR2AK9Y-1" target="ZCJGiTf_6MgXrqR2AK9Y-131">
          <mxGeometry relative="1" as="geometry">
            <Array as="points">
              <mxPoint x="2141" y="270" />
              <mxPoint x="2141" y="548" />
            </Array>
          </mxGeometry>
        </mxCell>
        <mxCell id="ZCJGiTf_6MgXrqR2AK9Y-263" value="creates" style="curved=1;startArrow=ERmandOne;startSize=10;;endArrow=ERmany;endSize=10;;exitX=0;exitY=0.62;entryX=0.22;entryY=0;rounded=0;" edge="1" parent="1" source="ZCJGiTf_6MgXrqR2AK9Y-1" target="ZCJGiTf_6MgXrqR2AK9Y-153">
          <mxGeometry relative="1" as="geometry">
            <Array as="points">
              <mxPoint x="817" y="270" />
            </Array>
          </mxGeometry>
        </mxCell>
        <mxCell id="ZCJGiTf_6MgXrqR2AK9Y-264" value="attends" style="curved=1;startArrow=ERmany;startSize=10;;endArrow=ERmany;endSize=10;;exitX=0;exitY=0.69;entryX=0.82;entryY=0;rounded=0;" edge="1" parent="1" source="ZCJGiTf_6MgXrqR2AK9Y-1" target="ZCJGiTf_6MgXrqR2AK9Y-153">
          <mxGeometry relative="1" as="geometry">
            <Array as="points">
              <mxPoint x="960" y="270" />
            </Array>
          </mxGeometry>
        </mxCell>
        <mxCell id="ZCJGiTf_6MgXrqR2AK9Y-265" value="publishes" style="curved=1;startArrow=ERmandOne;startSize=10;;endArrow=ERmany;endSize=10;;exitX=0.05;exitY=1;entryX=0.5;entryY=0;rounded=0;" edge="1" parent="1" source="ZCJGiTf_6MgXrqR2AK9Y-1" target="ZCJGiTf_6MgXrqR2AK9Y-172">
          <mxGeometry relative="1" as="geometry">
            <Array as="points">
              <mxPoint x="1135" y="270" />
            </Array>
          </mxGeometry>
        </mxCell>
        <mxCell id="ZCJGiTf_6MgXrqR2AK9Y-266" value="participates" style="curved=1;startArrow=ERmany;startSize=10;;endArrow=ERmany;endSize=10;;exitX=1;exitY=0.55;entryX=0.5;entryY=0;rounded=0;" edge="1" parent="1" source="ZCJGiTf_6MgXrqR2AK9Y-1" target="ZCJGiTf_6MgXrqR2AK9Y-188">
          <mxGeometry relative="1" as="geometry">
            <Array as="points">
              <mxPoint x="2298" y="270" />
            </Array>
          </mxGeometry>
        </mxCell>
        <mxCell id="ZCJGiTf_6MgXrqR2AK9Y-267" value="contains" style="curved=1;startArrow=ERmandOne;startSize=10;;endArrow=ERmany;endSize=10;;exitX=0.5;exitY=1;entryX=0.22;entryY=0;rounded=0;" edge="1" parent="1" source="ZCJGiTf_6MgXrqR2AK9Y-188" target="ZCJGiTf_6MgXrqR2AK9Y-195">
          <mxGeometry relative="1" as="geometry">
            <Array as="points">
              <mxPoint x="2298" y="548" />
            </Array>
          </mxGeometry>
        </mxCell>
        <mxCell id="ZCJGiTf_6MgXrqR2AK9Y-268" value="sends" style="curved=1;startArrow=ERmandOne;startSize=10;;endArrow=ERmany;endSize=10;;exitX=1;exitY=0.54;entryX=0.78;entryY=0;rounded=0;" edge="1" parent="1" source="ZCJGiTf_6MgXrqR2AK9Y-1" target="ZCJGiTf_6MgXrqR2AK9Y-195">
          <mxGeometry relative="1" as="geometry">
            <Array as="points">
              <mxPoint x="2454" y="270" />
              <mxPoint x="2454" y="548" />
            </Array>
          </mxGeometry>
        </mxCell>
        <mxCell id="ZCJGiTf_6MgXrqR2AK9Y-269" value="receives" style="curved=1;startArrow=ERmandOne;startSize=10;;endArrow=ERmany;endSize=10;;exitX=1;exitY=0.69;entryX=0.5;entryY=0;rounded=0;" edge="1" parent="1" source="ZCJGiTf_6MgXrqR2AK9Y-1" target="ZCJGiTf_6MgXrqR2AK9Y-211">
          <mxGeometry relative="1" as="geometry">
            <Array as="points">
              <mxPoint x="1492" y="270" />
            </Array>
          </mxGeometry>
        </mxCell>
        <mxCell id="ZCJGiTf_6MgXrqR2AK9Y-270" value="makes" style="curved=1;startArrow=ERmandOne;startSize=10;;endArrow=ERmany;endSize=10;;exitX=1;exitY=0.62;entryX=0.18;entryY=0;rounded=0;" edge="1" parent="1" source="ZCJGiTf_6MgXrqR2AK9Y-1" target="ZCJGiTf_6MgXrqR2AK9Y-230">
          <mxGeometry relative="1" as="geometry">
            <Array as="points">
              <mxPoint x="1667" y="270" />
            </Array>
          </mxGeometry>
        </mxCell>
        <mxCell id="ZCJGiTf_6MgXrqR2AK9Y-271" value="receives" style="curved=1;startArrow=ERmandOne;startSize=10;;endArrow=ERmany;endSize=10;;exitX=1;exitY=0.59;entryX=0.79;entryY=0;rounded=0;" edge="1" parent="1" source="ZCJGiTf_6MgXrqR2AK9Y-1" target="ZCJGiTf_6MgXrqR2AK9Y-230">
          <mxGeometry relative="1" as="geometry">
            <Array as="points">
              <mxPoint x="1811" y="270" />
            </Array>
          </mxGeometry>
        </mxCell>
      </root>
    </mxGraphModel>
  </diagram>
  <diagram id="gMzt6XPr-hgqolUvu_ON" name="Class">
    <mxGraphModel dx="794" dy="501" grid="1" gridSize="10" guides="1" tooltips="1" connect="1" arrows="1" fold="1" page="1" pageScale="1" pageWidth="850" pageHeight="1100" math="0" shadow="0">
      <root>
        <mxCell id="0" />
        <mxCell id="1" parent="0" />
        <mxCell id="sSb7Ek46W5UhPYRn9GRJ-1" value="User" style="swimlane;fontStyle=1;align=center;verticalAlign=top;childLayout=stackLayout;horizontal=1;startSize=24.576923076923077;horizontalStack=0;resizeParent=1;resizeParentMax=0;resizeLast=0;collapsible=0;marginBottom=0;" vertex="1" parent="1">
          <mxGeometry x="967" y="20" width="164" height="332.5769230769231" as="geometry" />
        </mxCell>
        <mxCell id="sSb7Ek46W5UhPYRn9GRJ-2" value="-int userId" style="text;strokeColor=none;fillColor=none;align=left;verticalAlign=top;spacingLeft=4;spacingRight=4;overflow=hidden;rotatable=0;points=[[0,0.5],[1,0.5]];portConstraint=eastwest;" vertex="1" parent="sSb7Ek46W5UhPYRn9GRJ-1">
          <mxGeometry y="24.576923076923077" width="164" height="25" as="geometry" />
        </mxCell>
        <mxCell id="sSb7Ek46W5UhPYRn9GRJ-3" value="-string name" style="text;strokeColor=none;fillColor=none;align=left;verticalAlign=top;spacingLeft=4;spacingRight=4;overflow=hidden;rotatable=0;points=[[0,0.5],[1,0.5]];portConstraint=eastwest;" vertex="1" parent="sSb7Ek46W5UhPYRn9GRJ-1">
          <mxGeometry y="49.57692307692308" width="164" height="25" as="geometry" />
        </mxCell>
        <mxCell id="sSb7Ek46W5UhPYRn9GRJ-4" value="-string email" style="text;strokeColor=none;fillColor=none;align=left;verticalAlign=top;spacingLeft=4;spacingRight=4;overflow=hidden;rotatable=0;points=[[0,0.5],[1,0.5]];portConstraint=eastwest;" vertex="1" parent="sSb7Ek46W5UhPYRn9GRJ-1">
          <mxGeometry y="74.57692307692308" width="164" height="25" as="geometry" />
        </mxCell>
        <mxCell id="sSb7Ek46W5UhPYRn9GRJ-5" value="-string password" style="text;strokeColor=none;fillColor=none;align=left;verticalAlign=top;spacingLeft=4;spacingRight=4;overflow=hidden;rotatable=0;points=[[0,0.5],[1,0.5]];portConstraint=eastwest;" vertex="1" parent="sSb7Ek46W5UhPYRn9GRJ-1">
          <mxGeometry y="99.57692307692308" width="164" height="25" as="geometry" />
        </mxCell>
        <mxCell id="sSb7Ek46W5UhPYRn9GRJ-6" value="-string userType" style="text;strokeColor=none;fillColor=none;align=left;verticalAlign=top;spacingLeft=4;spacingRight=4;overflow=hidden;rotatable=0;points=[[0,0.5],[1,0.5]];portConstraint=eastwest;" vertex="1" parent="sSb7Ek46W5UhPYRn9GRJ-1">
          <mxGeometry y="124.57692307692308" width="164" height="25" as="geometry" />
        </mxCell>
        <mxCell id="sSb7Ek46W5UhPYRn9GRJ-7" value="-string major" style="text;strokeColor=none;fillColor=none;align=left;verticalAlign=top;spacingLeft=4;spacingRight=4;overflow=hidden;rotatable=0;points=[[0,0.5],[1,0.5]];portConstraint=eastwest;" vertex="1" parent="sSb7Ek46W5UhPYRn9GRJ-1">
          <mxGeometry y="149.5769230769231" width="164" height="25" as="geometry" />
        </mxCell>
        <mxCell id="sSb7Ek46W5UhPYRn9GRJ-8" value="-int year" style="text;strokeColor=none;fillColor=none;align=left;verticalAlign=top;spacingLeft=4;spacingRight=4;overflow=hidden;rotatable=0;points=[[0,0.5],[1,0.5]];portConstraint=eastwest;" vertex="1" parent="sSb7Ek46W5UhPYRn9GRJ-1">
          <mxGeometry y="174.5769230769231" width="164" height="25" as="geometry" />
        </mxCell>
        <mxCell id="sSb7Ek46W5UhPYRn9GRJ-9" value="-string profilePicture" style="text;strokeColor=none;fillColor=none;align=left;verticalAlign=top;spacingLeft=4;spacingRight=4;overflow=hidden;rotatable=0;points=[[0,0.5],[1,0.5]];portConstraint=eastwest;" vertex="1" parent="sSb7Ek46W5UhPYRn9GRJ-1">
          <mxGeometry y="199.5769230769231" width="164" height="25" as="geometry" />
        </mxCell>
        <mxCell id="sSb7Ek46W5UhPYRn9GRJ-10" style="line;strokeWidth=1;fillColor=none;align=left;verticalAlign=middle;spacingTop=-1;spacingLeft=3;spacingRight=3;rotatable=0;labelPosition=right;points=[];portConstraint=eastwest;strokeColor=inherit;" vertex="1" parent="sSb7Ek46W5UhPYRn9GRJ-1">
          <mxGeometry y="224.5769230769231" width="164" height="8" as="geometry" />
        </mxCell>
        <mxCell id="sSb7Ek46W5UhPYRn9GRJ-11" value="+createProfile()" style="text;strokeColor=none;fillColor=none;align=left;verticalAlign=top;spacingLeft=4;spacingRight=4;overflow=hidden;rotatable=0;points=[[0,0.5],[1,0.5]];portConstraint=eastwest;" vertex="1" parent="sSb7Ek46W5UhPYRn9GRJ-1">
          <mxGeometry y="232.5769230769231" width="164" height="25" as="geometry" />
        </mxCell>
        <mxCell id="sSb7Ek46W5UhPYRn9GRJ-12" value="+updateProfile()" style="text;strokeColor=none;fillColor=none;align=left;verticalAlign=top;spacingLeft=4;spacingRight=4;overflow=hidden;rotatable=0;points=[[0,0.5],[1,0.5]];portConstraint=eastwest;" vertex="1" parent="sSb7Ek46W5UhPYRn9GRJ-1">
          <mxGeometry y="257.5769230769231" width="164" height="25" as="geometry" />
        </mxCell>
        <mxCell id="sSb7Ek46W5UhPYRn9GRJ-13" value="+login()" style="text;strokeColor=none;fillColor=none;align=left;verticalAlign=top;spacingLeft=4;spacingRight=4;overflow=hidden;rotatable=0;points=[[0,0.5],[1,0.5]];portConstraint=eastwest;" vertex="1" parent="sSb7Ek46W5UhPYRn9GRJ-1">
          <mxGeometry y="282.5769230769231" width="164" height="25" as="geometry" />
        </mxCell>
        <mxCell id="sSb7Ek46W5UhPYRn9GRJ-14" value="+logout()" style="text;strokeColor=none;fillColor=none;align=left;verticalAlign=top;spacingLeft=4;spacingRight=4;overflow=hidden;rotatable=0;points=[[0,0.5],[1,0.5]];portConstraint=eastwest;" vertex="1" parent="sSb7Ek46W5UhPYRn9GRJ-1">
          <mxGeometry y="307.5769230769231" width="164" height="25" as="geometry" />
        </mxCell>
        <mxCell id="sSb7Ek46W5UhPYRn9GRJ-15" value="Student" style="swimlane;fontStyle=1;align=center;verticalAlign=top;childLayout=stackLayout;horizontal=1;startSize=24.923076923076923;horizontalStack=0;resizeParent=1;resizeParentMax=0;resizeLast=0;collapsible=0;marginBottom=0;" vertex="1" parent="1">
          <mxGeometry x="20" y="443" width="146" height="157.9230769230769" as="geometry" />
        </mxCell>
        <mxCell id="sSb7Ek46W5UhPYRn9GRJ-16" style="line;strokeWidth=1;fillColor=none;align=left;verticalAlign=middle;spacingTop=-1;spacingLeft=3;spacingRight=3;rotatable=0;labelPosition=right;points=[];portConstraint=eastwest;strokeColor=inherit;" vertex="1" parent="sSb7Ek46W5UhPYRn9GRJ-15">
          <mxGeometry y="24.923076923076923" width="146" height="8" as="geometry" />
        </mxCell>
        <mxCell id="sSb7Ek46W5UhPYRn9GRJ-17" value="+bookService()" style="text;strokeColor=none;fillColor=none;align=left;verticalAlign=top;spacingLeft=4;spacingRight=4;overflow=hidden;rotatable=0;points=[[0,0.5],[1,0.5]];portConstraint=eastwest;" vertex="1" parent="sSb7Ek46W5UhPYRn9GRJ-15">
          <mxGeometry y="32.92307692307692" width="146" height="25" as="geometry" />
        </mxCell>
        <mxCell id="sSb7Ek46W5UhPYRn9GRJ-18" value="+requestRide()" style="text;strokeColor=none;fillColor=none;align=left;verticalAlign=top;spacingLeft=4;spacingRight=4;overflow=hidden;rotatable=0;points=[[0,0.5],[1,0.5]];portConstraint=eastwest;" vertex="1" parent="sSb7Ek46W5UhPYRn9GRJ-15">
          <mxGeometry y="57.92307692307692" width="146" height="25" as="geometry" />
        </mxCell>
        <mxCell id="sSb7Ek46W5UhPYRn9GRJ-19" value="+buyProduct()" style="text;strokeColor=none;fillColor=none;align=left;verticalAlign=top;spacingLeft=4;spacingRight=4;overflow=hidden;rotatable=0;points=[[0,0.5],[1,0.5]];portConstraint=eastwest;" vertex="1" parent="sSb7Ek46W5UhPYRn9GRJ-15">
          <mxGeometry y="82.92307692307692" width="146" height="25" as="geometry" />
        </mxCell>
        <mxCell id="sSb7Ek46W5UhPYRn9GRJ-20" value="+joinStudyGroup()" style="text;strokeColor=none;fillColor=none;align=left;verticalAlign=top;spacingLeft=4;spacingRight=4;overflow=hidden;rotatable=0;points=[[0,0.5],[1,0.5]];portConstraint=eastwest;" vertex="1" parent="sSb7Ek46W5UhPYRn9GRJ-15">
          <mxGeometry y="107.92307692307692" width="146" height="25" as="geometry" />
        </mxCell>
        <mxCell id="sSb7Ek46W5UhPYRn9GRJ-21" value="+attendEvent()" style="text;strokeColor=none;fillColor=none;align=left;verticalAlign=top;spacingLeft=4;spacingRight=4;overflow=hidden;rotatable=0;points=[[0,0.5],[1,0.5]];portConstraint=eastwest;" vertex="1" parent="sSb7Ek46W5UhPYRn9GRJ-15">
          <mxGeometry y="132.9230769230769" width="146" height="25" as="geometry" />
        </mxCell>
        <mxCell id="sSb7Ek46W5UhPYRn9GRJ-22" value="Admin" style="swimlane;fontStyle=1;align=center;verticalAlign=top;childLayout=stackLayout;horizontal=1;startSize=27;horizontalStack=0;resizeParent=1;resizeParentMax=0;resizeLast=0;collapsible=0;marginBottom=0;" vertex="1" parent="1">
          <mxGeometry x="216" y="476" width="193" height="89" as="geometry" />
        </mxCell>
        <mxCell id="sSb7Ek46W5UhPYRn9GRJ-23" style="line;strokeWidth=1;fillColor=none;align=left;verticalAlign=middle;spacingTop=-1;spacingLeft=3;spacingRight=3;rotatable=0;labelPosition=right;points=[];portConstraint=eastwest;strokeColor=inherit;" vertex="1" parent="sSb7Ek46W5UhPYRn9GRJ-22">
          <mxGeometry y="27" width="193" height="8" as="geometry" />
        </mxCell>
        <mxCell id="sSb7Ek46W5UhPYRn9GRJ-24" value="+publishAnnouncement()" style="text;strokeColor=none;fillColor=none;align=left;verticalAlign=top;spacingLeft=4;spacingRight=4;overflow=hidden;rotatable=0;points=[[0,0.5],[1,0.5]];portConstraint=eastwest;" vertex="1" parent="sSb7Ek46W5UhPYRn9GRJ-22">
          <mxGeometry y="35" width="193" height="27" as="geometry" />
        </mxCell>
        <mxCell id="sSb7Ek46W5UhPYRn9GRJ-25" value="+manageEvent()" style="text;strokeColor=none;fillColor=none;align=left;verticalAlign=top;spacingLeft=4;spacingRight=4;overflow=hidden;rotatable=0;points=[[0,0.5],[1,0.5]];portConstraint=eastwest;" vertex="1" parent="sSb7Ek46W5UhPYRn9GRJ-22">
          <mxGeometry y="62" width="193" height="27" as="geometry" />
        </mxCell>
        <mxCell id="sSb7Ek46W5UhPYRn9GRJ-26" value="Service" style="swimlane;fontStyle=1;align=center;verticalAlign=top;childLayout=stackLayout;horizontal=1;startSize=25.5;horizontalStack=0;resizeParent=1;resizeParentMax=0;resizeLast=0;collapsible=0;marginBottom=0;" vertex="1" parent="1">
          <mxGeometry x="459" y="409" width="146" height="241.5" as="geometry" />
        </mxCell>
        <mxCell id="sSb7Ek46W5UhPYRn9GRJ-27" value="-int serviceId" style="text;strokeColor=none;fillColor=none;align=left;verticalAlign=top;spacingLeft=4;spacingRight=4;overflow=hidden;rotatable=0;points=[[0,0.5],[1,0.5]];portConstraint=eastwest;" vertex="1" parent="sSb7Ek46W5UhPYRn9GRJ-26">
          <mxGeometry y="25.5" width="146" height="26" as="geometry" />
        </mxCell>
        <mxCell id="sSb7Ek46W5UhPYRn9GRJ-28" value="-int providerId" style="text;strokeColor=none;fillColor=none;align=left;verticalAlign=top;spacingLeft=4;spacingRight=4;overflow=hidden;rotatable=0;points=[[0,0.5],[1,0.5]];portConstraint=eastwest;" vertex="1" parent="sSb7Ek46W5UhPYRn9GRJ-26">
          <mxGeometry y="51.5" width="146" height="26" as="geometry" />
        </mxCell>
        <mxCell id="sSb7Ek46W5UhPYRn9GRJ-29" value="-string description" style="text;strokeColor=none;fillColor=none;align=left;verticalAlign=top;spacingLeft=4;spacingRight=4;overflow=hidden;rotatable=0;points=[[0,0.5],[1,0.5]];portConstraint=eastwest;" vertex="1" parent="sSb7Ek46W5UhPYRn9GRJ-26">
          <mxGeometry y="77.5" width="146" height="26" as="geometry" />
        </mxCell>
        <mxCell id="sSb7Ek46W5UhPYRn9GRJ-30" value="-float price" style="text;strokeColor=none;fillColor=none;align=left;verticalAlign=top;spacingLeft=4;spacingRight=4;overflow=hidden;rotatable=0;points=[[0,0.5],[1,0.5]];portConstraint=eastwest;" vertex="1" parent="sSb7Ek46W5UhPYRn9GRJ-26">
          <mxGeometry y="103.5" width="146" height="26" as="geometry" />
        </mxCell>
        <mxCell id="sSb7Ek46W5UhPYRn9GRJ-31" value="-string category" style="text;strokeColor=none;fillColor=none;align=left;verticalAlign=top;spacingLeft=4;spacingRight=4;overflow=hidden;rotatable=0;points=[[0,0.5],[1,0.5]];portConstraint=eastwest;" vertex="1" parent="sSb7Ek46W5UhPYRn9GRJ-26">
          <mxGeometry y="129.5" width="146" height="26" as="geometry" />
        </mxCell>
        <mxCell id="sSb7Ek46W5UhPYRn9GRJ-32" style="line;strokeWidth=1;fillColor=none;align=left;verticalAlign=middle;spacingTop=-1;spacingLeft=3;spacingRight=3;rotatable=0;labelPosition=right;points=[];portConstraint=eastwest;strokeColor=inherit;" vertex="1" parent="sSb7Ek46W5UhPYRn9GRJ-26">
          <mxGeometry y="155.5" width="146" height="8" as="geometry" />
        </mxCell>
        <mxCell id="sSb7Ek46W5UhPYRn9GRJ-33" value="+createService()" style="text;strokeColor=none;fillColor=none;align=left;verticalAlign=top;spacingLeft=4;spacingRight=4;overflow=hidden;rotatable=0;points=[[0,0.5],[1,0.5]];portConstraint=eastwest;" vertex="1" parent="sSb7Ek46W5UhPYRn9GRJ-26">
          <mxGeometry y="163.5" width="146" height="26" as="geometry" />
        </mxCell>
        <mxCell id="sSb7Ek46W5UhPYRn9GRJ-34" value="+updateService()" style="text;strokeColor=none;fillColor=none;align=left;verticalAlign=top;spacingLeft=4;spacingRight=4;overflow=hidden;rotatable=0;points=[[0,0.5],[1,0.5]];portConstraint=eastwest;" vertex="1" parent="sSb7Ek46W5UhPYRn9GRJ-26">
          <mxGeometry y="189.5" width="146" height="26" as="geometry" />
        </mxCell>
        <mxCell id="sSb7Ek46W5UhPYRn9GRJ-35" value="+deleteService()" style="text;strokeColor=none;fillColor=none;align=left;verticalAlign=top;spacingLeft=4;spacingRight=4;overflow=hidden;rotatable=0;points=[[0,0.5],[1,0.5]];portConstraint=eastwest;" vertex="1" parent="sSb7Ek46W5UhPYRn9GRJ-26">
          <mxGeometry y="215.5" width="146" height="26" as="geometry" />
        </mxCell>
        <mxCell id="sSb7Ek46W5UhPYRn9GRJ-36" value="ServiceReview" style="swimlane;fontStyle=1;align=center;verticalAlign=top;childLayout=stackLayout;horizontal=1;startSize=25.5;horizontalStack=0;resizeParent=1;resizeParentMax=0;resizeLast=0;collapsible=0;marginBottom=0;" vertex="1" parent="1">
          <mxGeometry x="462" y="730" width="139" height="241.5" as="geometry" />
        </mxCell>
        <mxCell id="sSb7Ek46W5UhPYRn9GRJ-37" value="-int reviewId" style="text;strokeColor=none;fillColor=none;align=left;verticalAlign=top;spacingLeft=4;spacingRight=4;overflow=hidden;rotatable=0;points=[[0,0.5],[1,0.5]];portConstraint=eastwest;" vertex="1" parent="sSb7Ek46W5UhPYRn9GRJ-36">
          <mxGeometry y="25.5" width="139" height="26" as="geometry" />
        </mxCell>
        <mxCell id="sSb7Ek46W5UhPYRn9GRJ-38" value="-int serviceId" style="text;strokeColor=none;fillColor=none;align=left;verticalAlign=top;spacingLeft=4;spacingRight=4;overflow=hidden;rotatable=0;points=[[0,0.5],[1,0.5]];portConstraint=eastwest;" vertex="1" parent="sSb7Ek46W5UhPYRn9GRJ-36">
          <mxGeometry y="51.5" width="139" height="26" as="geometry" />
        </mxCell>
        <mxCell id="sSb7Ek46W5UhPYRn9GRJ-39" value="-int reviewerId" style="text;strokeColor=none;fillColor=none;align=left;verticalAlign=top;spacingLeft=4;spacingRight=4;overflow=hidden;rotatable=0;points=[[0,0.5],[1,0.5]];portConstraint=eastwest;" vertex="1" parent="sSb7Ek46W5UhPYRn9GRJ-36">
          <mxGeometry y="77.5" width="139" height="26" as="geometry" />
        </mxCell>
        <mxCell id="sSb7Ek46W5UhPYRn9GRJ-40" value="-int rating" style="text;strokeColor=none;fillColor=none;align=left;verticalAlign=top;spacingLeft=4;spacingRight=4;overflow=hidden;rotatable=0;points=[[0,0.5],[1,0.5]];portConstraint=eastwest;" vertex="1" parent="sSb7Ek46W5UhPYRn9GRJ-36">
          <mxGeometry y="103.5" width="139" height="26" as="geometry" />
        </mxCell>
        <mxCell id="sSb7Ek46W5UhPYRn9GRJ-41" value="-string comment" style="text;strokeColor=none;fillColor=none;align=left;verticalAlign=top;spacingLeft=4;spacingRight=4;overflow=hidden;rotatable=0;points=[[0,0.5],[1,0.5]];portConstraint=eastwest;" vertex="1" parent="sSb7Ek46W5UhPYRn9GRJ-36">
          <mxGeometry y="129.5" width="139" height="26" as="geometry" />
        </mxCell>
        <mxCell id="sSb7Ek46W5UhPYRn9GRJ-42" value="-date reviewDate" style="text;strokeColor=none;fillColor=none;align=left;verticalAlign=top;spacingLeft=4;spacingRight=4;overflow=hidden;rotatable=0;points=[[0,0.5],[1,0.5]];portConstraint=eastwest;" vertex="1" parent="sSb7Ek46W5UhPYRn9GRJ-36">
          <mxGeometry y="155.5" width="139" height="26" as="geometry" />
        </mxCell>
        <mxCell id="sSb7Ek46W5UhPYRn9GRJ-43" style="line;strokeWidth=1;fillColor=none;align=left;verticalAlign=middle;spacingTop=-1;spacingLeft=3;spacingRight=3;rotatable=0;labelPosition=right;points=[];portConstraint=eastwest;strokeColor=inherit;" vertex="1" parent="sSb7Ek46W5UhPYRn9GRJ-36">
          <mxGeometry y="181.5" width="139" height="8" as="geometry" />
        </mxCell>
        <mxCell id="sSb7Ek46W5UhPYRn9GRJ-44" value="+createReview()" style="text;strokeColor=none;fillColor=none;align=left;verticalAlign=top;spacingLeft=4;spacingRight=4;overflow=hidden;rotatable=0;points=[[0,0.5],[1,0.5]];portConstraint=eastwest;" vertex="1" parent="sSb7Ek46W5UhPYRn9GRJ-36">
          <mxGeometry y="189.5" width="139" height="26" as="geometry" />
        </mxCell>
        <mxCell id="sSb7Ek46W5UhPYRn9GRJ-45" value="+updateReview()" style="text;strokeColor=none;fillColor=none;align=left;verticalAlign=top;spacingLeft=4;spacingRight=4;overflow=hidden;rotatable=0;points=[[0,0.5],[1,0.5]];portConstraint=eastwest;" vertex="1" parent="sSb7Ek46W5UhPYRn9GRJ-36">
          <mxGeometry y="215.5" width="139" height="26" as="geometry" />
        </mxCell>
        <mxCell id="sSb7Ek46W5UhPYRn9GRJ-46" value="Driver" style="swimlane;fontStyle=1;align=center;verticalAlign=top;childLayout=stackLayout;horizontal=1;startSize=25.5;horizontalStack=0;resizeParent=1;resizeParentMax=0;resizeLast=0;collapsible=0;marginBottom=0;" vertex="1" parent="1">
          <mxGeometry x="655" y="409" width="172" height="241.5" as="geometry" />
        </mxCell>
        <mxCell id="sSb7Ek46W5UhPYRn9GRJ-47" value="-int driverId" style="text;strokeColor=none;fillColor=none;align=left;verticalAlign=top;spacingLeft=4;spacingRight=4;overflow=hidden;rotatable=0;points=[[0,0.5],[1,0.5]];portConstraint=eastwest;" vertex="1" parent="sSb7Ek46W5UhPYRn9GRJ-46">
          <mxGeometry y="25.5" width="172" height="26" as="geometry" />
        </mxCell>
        <mxCell id="sSb7Ek46W5UhPYRn9GRJ-48" value="-int userId" style="text;strokeColor=none;fillColor=none;align=left;verticalAlign=top;spacingLeft=4;spacingRight=4;overflow=hidden;rotatable=0;points=[[0,0.5],[1,0.5]];portConstraint=eastwest;" vertex="1" parent="sSb7Ek46W5UhPYRn9GRJ-46">
          <mxGeometry y="51.5" width="172" height="26" as="geometry" />
        </mxCell>
        <mxCell id="sSb7Ek46W5UhPYRn9GRJ-49" value="-string licenseNumber" style="text;strokeColor=none;fillColor=none;align=left;verticalAlign=top;spacingLeft=4;spacingRight=4;overflow=hidden;rotatable=0;points=[[0,0.5],[1,0.5]];portConstraint=eastwest;" vertex="1" parent="sSb7Ek46W5UhPYRn9GRJ-46">
          <mxGeometry y="77.5" width="172" height="26" as="geometry" />
        </mxCell>
        <mxCell id="sSb7Ek46W5UhPYRn9GRJ-50" value="-string carModel" style="text;strokeColor=none;fillColor=none;align=left;verticalAlign=top;spacingLeft=4;spacingRight=4;overflow=hidden;rotatable=0;points=[[0,0.5],[1,0.5]];portConstraint=eastwest;" vertex="1" parent="sSb7Ek46W5UhPYRn9GRJ-46">
          <mxGeometry y="103.5" width="172" height="26" as="geometry" />
        </mxCell>
        <mxCell id="sSb7Ek46W5UhPYRn9GRJ-51" value="-string carColor" style="text;strokeColor=none;fillColor=none;align=left;verticalAlign=top;spacingLeft=4;spacingRight=4;overflow=hidden;rotatable=0;points=[[0,0.5],[1,0.5]];portConstraint=eastwest;" vertex="1" parent="sSb7Ek46W5UhPYRn9GRJ-46">
          <mxGeometry y="129.5" width="172" height="26" as="geometry" />
        </mxCell>
        <mxCell id="sSb7Ek46W5UhPYRn9GRJ-52" value="-int carCapacity" style="text;strokeColor=none;fillColor=none;align=left;verticalAlign=top;spacingLeft=4;spacingRight=4;overflow=hidden;rotatable=0;points=[[0,0.5],[1,0.5]];portConstraint=eastwest;" vertex="1" parent="sSb7Ek46W5UhPYRn9GRJ-46">
          <mxGeometry y="155.5" width="172" height="26" as="geometry" />
        </mxCell>
        <mxCell id="sSb7Ek46W5UhPYRn9GRJ-53" style="line;strokeWidth=1;fillColor=none;align=left;verticalAlign=middle;spacingTop=-1;spacingLeft=3;spacingRight=3;rotatable=0;labelPosition=right;points=[];portConstraint=eastwest;strokeColor=inherit;" vertex="1" parent="sSb7Ek46W5UhPYRn9GRJ-46">
          <mxGeometry y="181.5" width="172" height="8" as="geometry" />
        </mxCell>
        <mxCell id="sSb7Ek46W5UhPYRn9GRJ-54" value="+registerAsDriver()" style="text;strokeColor=none;fillColor=none;align=left;verticalAlign=top;spacingLeft=4;spacingRight=4;overflow=hidden;rotatable=0;points=[[0,0.5],[1,0.5]];portConstraint=eastwest;" vertex="1" parent="sSb7Ek46W5UhPYRn9GRJ-46">
          <mxGeometry y="189.5" width="172" height="26" as="geometry" />
        </mxCell>
        <mxCell id="sSb7Ek46W5UhPYRn9GRJ-55" value="+updateDriverInfo()" style="text;strokeColor=none;fillColor=none;align=left;verticalAlign=top;spacingLeft=4;spacingRight=4;overflow=hidden;rotatable=0;points=[[0,0.5],[1,0.5]];portConstraint=eastwest;" vertex="1" parent="sSb7Ek46W5UhPYRn9GRJ-46">
          <mxGeometry y="215.5" width="172" height="26" as="geometry" />
        </mxCell>
        <mxCell id="sSb7Ek46W5UhPYRn9GRJ-56" value="Ride" style="swimlane;fontStyle=1;align=center;verticalAlign=top;childLayout=stackLayout;horizontal=1;startSize=24.954545454545453;horizontalStack=0;resizeParent=1;resizeParentMax=0;resizeLast=0;collapsible=0;marginBottom=0;" vertex="1" parent="1">
          <mxGeometry x="660" y="708" width="161" height="282.95454545454544" as="geometry" />
        </mxCell>
        <mxCell id="sSb7Ek46W5UhPYRn9GRJ-57" value="-int rideId" style="text;strokeColor=none;fillColor=none;align=left;verticalAlign=top;spacingLeft=4;spacingRight=4;overflow=hidden;rotatable=0;points=[[0,0.5],[1,0.5]];portConstraint=eastwest;" vertex="1" parent="sSb7Ek46W5UhPYRn9GRJ-56">
          <mxGeometry y="24.954545454545453" width="161" height="25" as="geometry" />
        </mxCell>
        <mxCell id="sSb7Ek46W5UhPYRn9GRJ-58" value="-int driverId" style="text;strokeColor=none;fillColor=none;align=left;verticalAlign=top;spacingLeft=4;spacingRight=4;overflow=hidden;rotatable=0;points=[[0,0.5],[1,0.5]];portConstraint=eastwest;" vertex="1" parent="sSb7Ek46W5UhPYRn9GRJ-56">
          <mxGeometry y="49.95454545454545" width="161" height="25" as="geometry" />
        </mxCell>
        <mxCell id="sSb7Ek46W5UhPYRn9GRJ-59" value="-int passengerId" style="text;strokeColor=none;fillColor=none;align=left;verticalAlign=top;spacingLeft=4;spacingRight=4;overflow=hidden;rotatable=0;points=[[0,0.5],[1,0.5]];portConstraint=eastwest;" vertex="1" parent="sSb7Ek46W5UhPYRn9GRJ-56">
          <mxGeometry y="74.95454545454545" width="161" height="25" as="geometry" />
        </mxCell>
        <mxCell id="sSb7Ek46W5UhPYRn9GRJ-60" value="-datetime dateTime" style="text;strokeColor=none;fillColor=none;align=left;verticalAlign=top;spacingLeft=4;spacingRight=4;overflow=hidden;rotatable=0;points=[[0,0.5],[1,0.5]];portConstraint=eastwest;" vertex="1" parent="sSb7Ek46W5UhPYRn9GRJ-56">
          <mxGeometry y="99.95454545454545" width="161" height="25" as="geometry" />
        </mxCell>
        <mxCell id="sSb7Ek46W5UhPYRn9GRJ-61" value="-string startLocation" style="text;strokeColor=none;fillColor=none;align=left;verticalAlign=top;spacingLeft=4;spacingRight=4;overflow=hidden;rotatable=0;points=[[0,0.5],[1,0.5]];portConstraint=eastwest;" vertex="1" parent="sSb7Ek46W5UhPYRn9GRJ-56">
          <mxGeometry y="124.95454545454545" width="161" height="25" as="geometry" />
        </mxCell>
        <mxCell id="sSb7Ek46W5UhPYRn9GRJ-62" value="-string endLocation" style="text;strokeColor=none;fillColor=none;align=left;verticalAlign=top;spacingLeft=4;spacingRight=4;overflow=hidden;rotatable=0;points=[[0,0.5],[1,0.5]];portConstraint=eastwest;" vertex="1" parent="sSb7Ek46W5UhPYRn9GRJ-56">
          <mxGeometry y="149.95454545454544" width="161" height="25" as="geometry" />
        </mxCell>
        <mxCell id="sSb7Ek46W5UhPYRn9GRJ-63" value="-string status" style="text;strokeColor=none;fillColor=none;align=left;verticalAlign=top;spacingLeft=4;spacingRight=4;overflow=hidden;rotatable=0;points=[[0,0.5],[1,0.5]];portConstraint=eastwest;" vertex="1" parent="sSb7Ek46W5UhPYRn9GRJ-56">
          <mxGeometry y="174.95454545454544" width="161" height="25" as="geometry" />
        </mxCell>
        <mxCell id="sSb7Ek46W5UhPYRn9GRJ-64" style="line;strokeWidth=1;fillColor=none;align=left;verticalAlign=middle;spacingTop=-1;spacingLeft=3;spacingRight=3;rotatable=0;labelPosition=right;points=[];portConstraint=eastwest;strokeColor=inherit;" vertex="1" parent="sSb7Ek46W5UhPYRn9GRJ-56">
          <mxGeometry y="199.95454545454544" width="161" height="8" as="geometry" />
        </mxCell>
        <mxCell id="sSb7Ek46W5UhPYRn9GRJ-65" value="+createRide()" style="text;strokeColor=none;fillColor=none;align=left;verticalAlign=top;spacingLeft=4;spacingRight=4;overflow=hidden;rotatable=0;points=[[0,0.5],[1,0.5]];portConstraint=eastwest;" vertex="1" parent="sSb7Ek46W5UhPYRn9GRJ-56">
          <mxGeometry y="207.95454545454544" width="161" height="25" as="geometry" />
        </mxCell>
        <mxCell id="sSb7Ek46W5UhPYRn9GRJ-66" value="+updateRideStatus()" style="text;strokeColor=none;fillColor=none;align=left;verticalAlign=top;spacingLeft=4;spacingRight=4;overflow=hidden;rotatable=0;points=[[0,0.5],[1,0.5]];portConstraint=eastwest;" vertex="1" parent="sSb7Ek46W5UhPYRn9GRJ-56">
          <mxGeometry y="232.95454545454544" width="161" height="25" as="geometry" />
        </mxCell>
        <mxCell id="sSb7Ek46W5UhPYRn9GRJ-67" value="+cancelRide()" style="text;strokeColor=none;fillColor=none;align=left;verticalAlign=top;spacingLeft=4;spacingRight=4;overflow=hidden;rotatable=0;points=[[0,0.5],[1,0.5]];portConstraint=eastwest;" vertex="1" parent="sSb7Ek46W5UhPYRn9GRJ-56">
          <mxGeometry y="257.95454545454544" width="161" height="25" as="geometry" />
        </mxCell>
        <mxCell id="sSb7Ek46W5UhPYRn9GRJ-68" value="Product" style="swimlane;fontStyle=1;align=center;verticalAlign=top;childLayout=stackLayout;horizontal=1;startSize=25.2;horizontalStack=0;resizeParent=1;resizeParentMax=0;resizeLast=0;collapsible=0;marginBottom=0;" vertex="1" parent="1">
          <mxGeometry x="877" y="398" width="146" height="258.2" as="geometry" />
        </mxCell>
        <mxCell id="sSb7Ek46W5UhPYRn9GRJ-69" value="-int productId" style="text;strokeColor=none;fillColor=none;align=left;verticalAlign=top;spacingLeft=4;spacingRight=4;overflow=hidden;rotatable=0;points=[[0,0.5],[1,0.5]];portConstraint=eastwest;" vertex="1" parent="sSb7Ek46W5UhPYRn9GRJ-68">
          <mxGeometry y="25.2" width="146" height="25" as="geometry" />
        </mxCell>
        <mxCell id="sSb7Ek46W5UhPYRn9GRJ-70" value="-int sellerId" style="text;strokeColor=none;fillColor=none;align=left;verticalAlign=top;spacingLeft=4;spacingRight=4;overflow=hidden;rotatable=0;points=[[0,0.5],[1,0.5]];portConstraint=eastwest;" vertex="1" parent="sSb7Ek46W5UhPYRn9GRJ-68">
          <mxGeometry y="50.2" width="146" height="25" as="geometry" />
        </mxCell>
        <mxCell id="sSb7Ek46W5UhPYRn9GRJ-71" value="-string name" style="text;strokeColor=none;fillColor=none;align=left;verticalAlign=top;spacingLeft=4;spacingRight=4;overflow=hidden;rotatable=0;points=[[0,0.5],[1,0.5]];portConstraint=eastwest;" vertex="1" parent="sSb7Ek46W5UhPYRn9GRJ-68">
          <mxGeometry y="75.2" width="146" height="25" as="geometry" />
        </mxCell>
        <mxCell id="sSb7Ek46W5UhPYRn9GRJ-72" value="-string description" style="text;strokeColor=none;fillColor=none;align=left;verticalAlign=top;spacingLeft=4;spacingRight=4;overflow=hidden;rotatable=0;points=[[0,0.5],[1,0.5]];portConstraint=eastwest;" vertex="1" parent="sSb7Ek46W5UhPYRn9GRJ-68">
          <mxGeometry y="100.2" width="146" height="25" as="geometry" />
        </mxCell>
        <mxCell id="sSb7Ek46W5UhPYRn9GRJ-73" value="-float price" style="text;strokeColor=none;fillColor=none;align=left;verticalAlign=top;spacingLeft=4;spacingRight=4;overflow=hidden;rotatable=0;points=[[0,0.5],[1,0.5]];portConstraint=eastwest;" vertex="1" parent="sSb7Ek46W5UhPYRn9GRJ-68">
          <mxGeometry y="125.2" width="146" height="25" as="geometry" />
        </mxCell>
        <mxCell id="sSb7Ek46W5UhPYRn9GRJ-74" value="-string category" style="text;strokeColor=none;fillColor=none;align=left;verticalAlign=top;spacingLeft=4;spacingRight=4;overflow=hidden;rotatable=0;points=[[0,0.5],[1,0.5]];portConstraint=eastwest;" vertex="1" parent="sSb7Ek46W5UhPYRn9GRJ-68">
          <mxGeometry y="150.2" width="146" height="25" as="geometry" />
        </mxCell>
        <mxCell id="sSb7Ek46W5UhPYRn9GRJ-75" style="line;strokeWidth=1;fillColor=none;align=left;verticalAlign=middle;spacingTop=-1;spacingLeft=3;spacingRight=3;rotatable=0;labelPosition=right;points=[];portConstraint=eastwest;strokeColor=inherit;" vertex="1" parent="sSb7Ek46W5UhPYRn9GRJ-68">
          <mxGeometry y="175.2" width="146" height="8" as="geometry" />
        </mxCell>
        <mxCell id="sSb7Ek46W5UhPYRn9GRJ-76" value="+createListing()" style="text;strokeColor=none;fillColor=none;align=left;verticalAlign=top;spacingLeft=4;spacingRight=4;overflow=hidden;rotatable=0;points=[[0,0.5],[1,0.5]];portConstraint=eastwest;" vertex="1" parent="sSb7Ek46W5UhPYRn9GRJ-68">
          <mxGeometry y="183.2" width="146" height="25" as="geometry" />
        </mxCell>
        <mxCell id="sSb7Ek46W5UhPYRn9GRJ-77" value="+updateListing()" style="text;strokeColor=none;fillColor=none;align=left;verticalAlign=top;spacingLeft=4;spacingRight=4;overflow=hidden;rotatable=0;points=[[0,0.5],[1,0.5]];portConstraint=eastwest;" vertex="1" parent="sSb7Ek46W5UhPYRn9GRJ-68">
          <mxGeometry y="208.2" width="146" height="25" as="geometry" />
        </mxCell>
        <mxCell id="sSb7Ek46W5UhPYRn9GRJ-78" value="+deleteListing()" style="text;strokeColor=none;fillColor=none;align=left;verticalAlign=top;spacingLeft=4;spacingRight=4;overflow=hidden;rotatable=0;points=[[0,0.5],[1,0.5]];portConstraint=eastwest;" vertex="1" parent="sSb7Ek46W5UhPYRn9GRJ-68">
          <mxGeometry y="233.2" width="146" height="25" as="geometry" />
        </mxCell>
        <mxCell id="sSb7Ek46W5UhPYRn9GRJ-79" value="StudyGroup" style="swimlane;fontStyle=1;align=center;verticalAlign=top;childLayout=stackLayout;horizontal=1;startSize=26.357142857142858;horizontalStack=0;resizeParent=1;resizeParentMax=0;resizeLast=0;collapsible=0;marginBottom=0;" vertex="1" parent="1">
          <mxGeometry x="1073" y="431" width="149" height="190.35714285714286" as="geometry" />
        </mxCell>
        <mxCell id="sSb7Ek46W5UhPYRn9GRJ-80" value="-int groupId" style="text;strokeColor=none;fillColor=none;align=left;verticalAlign=top;spacingLeft=4;spacingRight=4;overflow=hidden;rotatable=0;points=[[0,0.5],[1,0.5]];portConstraint=eastwest;" vertex="1" parent="sSb7Ek46W5UhPYRn9GRJ-79">
          <mxGeometry y="26.357142857142858" width="149" height="26" as="geometry" />
        </mxCell>
        <mxCell id="sSb7Ek46W5UhPYRn9GRJ-81" value="-string name" style="text;strokeColor=none;fillColor=none;align=left;verticalAlign=top;spacingLeft=4;spacingRight=4;overflow=hidden;rotatable=0;points=[[0,0.5],[1,0.5]];portConstraint=eastwest;" vertex="1" parent="sSb7Ek46W5UhPYRn9GRJ-79">
          <mxGeometry y="52.35714285714286" width="149" height="26" as="geometry" />
        </mxCell>
        <mxCell id="sSb7Ek46W5UhPYRn9GRJ-82" value="-string courseCode" style="text;strokeColor=none;fillColor=none;align=left;verticalAlign=top;spacingLeft=4;spacingRight=4;overflow=hidden;rotatable=0;points=[[0,0.5],[1,0.5]];portConstraint=eastwest;" vertex="1" parent="sSb7Ek46W5UhPYRn9GRJ-79">
          <mxGeometry y="78.35714285714286" width="149" height="26" as="geometry" />
        </mxCell>
        <mxCell id="sSb7Ek46W5UhPYRn9GRJ-83" style="line;strokeWidth=1;fillColor=none;align=left;verticalAlign=middle;spacingTop=-1;spacingLeft=3;spacingRight=3;rotatable=0;labelPosition=right;points=[];portConstraint=eastwest;strokeColor=inherit;" vertex="1" parent="sSb7Ek46W5UhPYRn9GRJ-79">
          <mxGeometry y="104.35714285714286" width="149" height="8" as="geometry" />
        </mxCell>
        <mxCell id="sSb7Ek46W5UhPYRn9GRJ-84" value="+createGroup()" style="text;strokeColor=none;fillColor=none;align=left;verticalAlign=top;spacingLeft=4;spacingRight=4;overflow=hidden;rotatable=0;points=[[0,0.5],[1,0.5]];portConstraint=eastwest;" vertex="1" parent="sSb7Ek46W5UhPYRn9GRJ-79">
          <mxGeometry y="112.35714285714286" width="149" height="26" as="geometry" />
        </mxCell>
        <mxCell id="sSb7Ek46W5UhPYRn9GRJ-85" value="+addMember()" style="text;strokeColor=none;fillColor=none;align=left;verticalAlign=top;spacingLeft=4;spacingRight=4;overflow=hidden;rotatable=0;points=[[0,0.5],[1,0.5]];portConstraint=eastwest;" vertex="1" parent="sSb7Ek46W5UhPYRn9GRJ-79">
          <mxGeometry y="138.35714285714286" width="149" height="26" as="geometry" />
        </mxCell>
        <mxCell id="sSb7Ek46W5UhPYRn9GRJ-86" value="+removeMember()" style="text;strokeColor=none;fillColor=none;align=left;verticalAlign=top;spacingLeft=4;spacingRight=4;overflow=hidden;rotatable=0;points=[[0,0.5],[1,0.5]];portConstraint=eastwest;" vertex="1" parent="sSb7Ek46W5UhPYRn9GRJ-79">
          <mxGeometry y="164.35714285714286" width="149" height="26" as="geometry" />
        </mxCell>
        <mxCell id="sSb7Ek46W5UhPYRn9GRJ-87" value="Assignment" style="swimlane;fontStyle=1;align=center;verticalAlign=top;childLayout=stackLayout;horizontal=1;startSize=25.2;horizontalStack=0;resizeParent=1;resizeParentMax=0;resizeLast=0;collapsible=0;marginBottom=0;" vertex="1" parent="1">
          <mxGeometry x="1055" y="719" width="185" height="258.2" as="geometry" />
        </mxCell>
        <mxCell id="sSb7Ek46W5UhPYRn9GRJ-88" value="-int assignmentId" style="text;strokeColor=none;fillColor=none;align=left;verticalAlign=top;spacingLeft=4;spacingRight=4;overflow=hidden;rotatable=0;points=[[0,0.5],[1,0.5]];portConstraint=eastwest;" vertex="1" parent="sSb7Ek46W5UhPYRn9GRJ-87">
          <mxGeometry y="25.2" width="185" height="25" as="geometry" />
        </mxCell>
        <mxCell id="sSb7Ek46W5UhPYRn9GRJ-89" value="-int groupId" style="text;strokeColor=none;fillColor=none;align=left;verticalAlign=top;spacingLeft=4;spacingRight=4;overflow=hidden;rotatable=0;points=[[0,0.5],[1,0.5]];portConstraint=eastwest;" vertex="1" parent="sSb7Ek46W5UhPYRn9GRJ-87">
          <mxGeometry y="50.2" width="185" height="25" as="geometry" />
        </mxCell>
        <mxCell id="sSb7Ek46W5UhPYRn9GRJ-90" value="-int uploaderId" style="text;strokeColor=none;fillColor=none;align=left;verticalAlign=top;spacingLeft=4;spacingRight=4;overflow=hidden;rotatable=0;points=[[0,0.5],[1,0.5]];portConstraint=eastwest;" vertex="1" parent="sSb7Ek46W5UhPYRn9GRJ-87">
          <mxGeometry y="75.2" width="185" height="25" as="geometry" />
        </mxCell>
        <mxCell id="sSb7Ek46W5UhPYRn9GRJ-91" value="-string title" style="text;strokeColor=none;fillColor=none;align=left;verticalAlign=top;spacingLeft=4;spacingRight=4;overflow=hidden;rotatable=0;points=[[0,0.5],[1,0.5]];portConstraint=eastwest;" vertex="1" parent="sSb7Ek46W5UhPYRn9GRJ-87">
          <mxGeometry y="100.2" width="185" height="25" as="geometry" />
        </mxCell>
        <mxCell id="sSb7Ek46W5UhPYRn9GRJ-92" value="-string description" style="text;strokeColor=none;fillColor=none;align=left;verticalAlign=top;spacingLeft=4;spacingRight=4;overflow=hidden;rotatable=0;points=[[0,0.5],[1,0.5]];portConstraint=eastwest;" vertex="1" parent="sSb7Ek46W5UhPYRn9GRJ-87">
          <mxGeometry y="125.2" width="185" height="25" as="geometry" />
        </mxCell>
        <mxCell id="sSb7Ek46W5UhPYRn9GRJ-93" value="-string filePath" style="text;strokeColor=none;fillColor=none;align=left;verticalAlign=top;spacingLeft=4;spacingRight=4;overflow=hidden;rotatable=0;points=[[0,0.5],[1,0.5]];portConstraint=eastwest;" vertex="1" parent="sSb7Ek46W5UhPYRn9GRJ-87">
          <mxGeometry y="150.2" width="185" height="25" as="geometry" />
        </mxCell>
        <mxCell id="sSb7Ek46W5UhPYRn9GRJ-94" value="-datetime uploadDate" style="text;strokeColor=none;fillColor=none;align=left;verticalAlign=top;spacingLeft=4;spacingRight=4;overflow=hidden;rotatable=0;points=[[0,0.5],[1,0.5]];portConstraint=eastwest;" vertex="1" parent="sSb7Ek46W5UhPYRn9GRJ-87">
          <mxGeometry y="175.2" width="185" height="25" as="geometry" />
        </mxCell>
        <mxCell id="sSb7Ek46W5UhPYRn9GRJ-95" style="line;strokeWidth=1;fillColor=none;align=left;verticalAlign=middle;spacingTop=-1;spacingLeft=3;spacingRight=3;rotatable=0;labelPosition=right;points=[];portConstraint=eastwest;strokeColor=inherit;" vertex="1" parent="sSb7Ek46W5UhPYRn9GRJ-87">
          <mxGeometry y="200.2" width="185" height="8" as="geometry" />
        </mxCell>
        <mxCell id="sSb7Ek46W5UhPYRn9GRJ-96" value="+uploadAssignment()" style="text;strokeColor=none;fillColor=none;align=left;verticalAlign=top;spacingLeft=4;spacingRight=4;overflow=hidden;rotatable=0;points=[[0,0.5],[1,0.5]];portConstraint=eastwest;" vertex="1" parent="sSb7Ek46W5UhPYRn9GRJ-87">
          <mxGeometry y="208.2" width="185" height="25" as="geometry" />
        </mxCell>
        <mxCell id="sSb7Ek46W5UhPYRn9GRJ-97" value="+downloadAssignment()" style="text;strokeColor=none;fillColor=none;align=left;verticalAlign=top;spacingLeft=4;spacingRight=4;overflow=hidden;rotatable=0;points=[[0,0.5],[1,0.5]];portConstraint=eastwest;" vertex="1" parent="sSb7Ek46W5UhPYRn9GRJ-87">
          <mxGeometry y="233.2" width="185" height="25" as="geometry" />
        </mxCell>
        <mxCell id="sSb7Ek46W5UhPYRn9GRJ-98" value="Event" style="swimlane;fontStyle=1;align=center;verticalAlign=top;childLayout=stackLayout;horizontal=1;startSize=25.2;horizontalStack=0;resizeParent=1;resizeParentMax=0;resizeLast=0;collapsible=0;marginBottom=0;" vertex="1" parent="1">
          <mxGeometry x="1272" y="398" width="159" height="258.2" as="geometry" />
        </mxCell>
        <mxCell id="sSb7Ek46W5UhPYRn9GRJ-99" value="-int eventId" style="text;strokeColor=none;fillColor=none;align=left;verticalAlign=top;spacingLeft=4;spacingRight=4;overflow=hidden;rotatable=0;points=[[0,0.5],[1,0.5]];portConstraint=eastwest;" vertex="1" parent="sSb7Ek46W5UhPYRn9GRJ-98">
          <mxGeometry y="25.2" width="159" height="25" as="geometry" />
        </mxCell>
        <mxCell id="sSb7Ek46W5UhPYRn9GRJ-100" value="-int creatorId" style="text;strokeColor=none;fillColor=none;align=left;verticalAlign=top;spacingLeft=4;spacingRight=4;overflow=hidden;rotatable=0;points=[[0,0.5],[1,0.5]];portConstraint=eastwest;" vertex="1" parent="sSb7Ek46W5UhPYRn9GRJ-98">
          <mxGeometry y="50.2" width="159" height="25" as="geometry" />
        </mxCell>
        <mxCell id="sSb7Ek46W5UhPYRn9GRJ-101" value="-string title" style="text;strokeColor=none;fillColor=none;align=left;verticalAlign=top;spacingLeft=4;spacingRight=4;overflow=hidden;rotatable=0;points=[[0,0.5],[1,0.5]];portConstraint=eastwest;" vertex="1" parent="sSb7Ek46W5UhPYRn9GRJ-98">
          <mxGeometry y="75.2" width="159" height="25" as="geometry" />
        </mxCell>
        <mxCell id="sSb7Ek46W5UhPYRn9GRJ-102" value="-string description" style="text;strokeColor=none;fillColor=none;align=left;verticalAlign=top;spacingLeft=4;spacingRight=4;overflow=hidden;rotatable=0;points=[[0,0.5],[1,0.5]];portConstraint=eastwest;" vertex="1" parent="sSb7Ek46W5UhPYRn9GRJ-98">
          <mxGeometry y="100.2" width="159" height="25" as="geometry" />
        </mxCell>
        <mxCell id="sSb7Ek46W5UhPYRn9GRJ-103" value="-datetime dateTime" style="text;strokeColor=none;fillColor=none;align=left;verticalAlign=top;spacingLeft=4;spacingRight=4;overflow=hidden;rotatable=0;points=[[0,0.5],[1,0.5]];portConstraint=eastwest;" vertex="1" parent="sSb7Ek46W5UhPYRn9GRJ-98">
          <mxGeometry y="125.2" width="159" height="25" as="geometry" />
        </mxCell>
        <mxCell id="sSb7Ek46W5UhPYRn9GRJ-104" value="-string location" style="text;strokeColor=none;fillColor=none;align=left;verticalAlign=top;spacingLeft=4;spacingRight=4;overflow=hidden;rotatable=0;points=[[0,0.5],[1,0.5]];portConstraint=eastwest;" vertex="1" parent="sSb7Ek46W5UhPYRn9GRJ-98">
          <mxGeometry y="150.2" width="159" height="25" as="geometry" />
        </mxCell>
        <mxCell id="sSb7Ek46W5UhPYRn9GRJ-105" style="line;strokeWidth=1;fillColor=none;align=left;verticalAlign=middle;spacingTop=-1;spacingLeft=3;spacingRight=3;rotatable=0;labelPosition=right;points=[];portConstraint=eastwest;strokeColor=inherit;" vertex="1" parent="sSb7Ek46W5UhPYRn9GRJ-98">
          <mxGeometry y="175.2" width="159" height="8" as="geometry" />
        </mxCell>
        <mxCell id="sSb7Ek46W5UhPYRn9GRJ-106" value="+createEvent()" style="text;strokeColor=none;fillColor=none;align=left;verticalAlign=top;spacingLeft=4;spacingRight=4;overflow=hidden;rotatable=0;points=[[0,0.5],[1,0.5]];portConstraint=eastwest;" vertex="1" parent="sSb7Ek46W5UhPYRn9GRJ-98">
          <mxGeometry y="183.2" width="159" height="25" as="geometry" />
        </mxCell>
        <mxCell id="sSb7Ek46W5UhPYRn9GRJ-107" value="+updateEvent()" style="text;strokeColor=none;fillColor=none;align=left;verticalAlign=top;spacingLeft=4;spacingRight=4;overflow=hidden;rotatable=0;points=[[0,0.5],[1,0.5]];portConstraint=eastwest;" vertex="1" parent="sSb7Ek46W5UhPYRn9GRJ-98">
          <mxGeometry y="208.2" width="159" height="25" as="geometry" />
        </mxCell>
        <mxCell id="sSb7Ek46W5UhPYRn9GRJ-108" value="+cancelEvent()" style="text;strokeColor=none;fillColor=none;align=left;verticalAlign=top;spacingLeft=4;spacingRight=4;overflow=hidden;rotatable=0;points=[[0,0.5],[1,0.5]];portConstraint=eastwest;" vertex="1" parent="sSb7Ek46W5UhPYRn9GRJ-98">
          <mxGeometry y="233.2" width="159" height="25" as="geometry" />
        </mxCell>
        <mxCell id="sSb7Ek46W5UhPYRn9GRJ-109" value="Announcement" style="swimlane;fontStyle=1;align=center;verticalAlign=top;childLayout=stackLayout;horizontal=1;startSize=25.875;horizontalStack=0;resizeParent=1;resizeParentMax=0;resizeLast=0;collapsible=0;marginBottom=0;" vertex="1" parent="1">
          <mxGeometry x="216" y="741" width="192" height="215.875" as="geometry" />
        </mxCell>
        <mxCell id="sSb7Ek46W5UhPYRn9GRJ-110" value="-int announcementId" style="text;strokeColor=none;fillColor=none;align=left;verticalAlign=top;spacingLeft=4;spacingRight=4;overflow=hidden;rotatable=0;points=[[0,0.5],[1,0.5]];portConstraint=eastwest;" vertex="1" parent="sSb7Ek46W5UhPYRn9GRJ-109">
          <mxGeometry y="25.875" width="192" height="26" as="geometry" />
        </mxCell>
        <mxCell id="sSb7Ek46W5UhPYRn9GRJ-111" value="-int adminId" style="text;strokeColor=none;fillColor=none;align=left;verticalAlign=top;spacingLeft=4;spacingRight=4;overflow=hidden;rotatable=0;points=[[0,0.5],[1,0.5]];portConstraint=eastwest;" vertex="1" parent="sSb7Ek46W5UhPYRn9GRJ-109">
          <mxGeometry y="51.875" width="192" height="26" as="geometry" />
        </mxCell>
        <mxCell id="sSb7Ek46W5UhPYRn9GRJ-112" value="-string title" style="text;strokeColor=none;fillColor=none;align=left;verticalAlign=top;spacingLeft=4;spacingRight=4;overflow=hidden;rotatable=0;points=[[0,0.5],[1,0.5]];portConstraint=eastwest;" vertex="1" parent="sSb7Ek46W5UhPYRn9GRJ-109">
          <mxGeometry y="77.875" width="192" height="26" as="geometry" />
        </mxCell>
        <mxCell id="sSb7Ek46W5UhPYRn9GRJ-113" value="-string content" style="text;strokeColor=none;fillColor=none;align=left;verticalAlign=top;spacingLeft=4;spacingRight=4;overflow=hidden;rotatable=0;points=[[0,0.5],[1,0.5]];portConstraint=eastwest;" vertex="1" parent="sSb7Ek46W5UhPYRn9GRJ-109">
          <mxGeometry y="103.875" width="192" height="26" as="geometry" />
        </mxCell>
        <mxCell id="sSb7Ek46W5UhPYRn9GRJ-114" value="-datetime publishDate" style="text;strokeColor=none;fillColor=none;align=left;verticalAlign=top;spacingLeft=4;spacingRight=4;overflow=hidden;rotatable=0;points=[[0,0.5],[1,0.5]];portConstraint=eastwest;" vertex="1" parent="sSb7Ek46W5UhPYRn9GRJ-109">
          <mxGeometry y="129.875" width="192" height="26" as="geometry" />
        </mxCell>
        <mxCell id="sSb7Ek46W5UhPYRn9GRJ-115" style="line;strokeWidth=1;fillColor=none;align=left;verticalAlign=middle;spacingTop=-1;spacingLeft=3;spacingRight=3;rotatable=0;labelPosition=right;points=[];portConstraint=eastwest;strokeColor=inherit;" vertex="1" parent="sSb7Ek46W5UhPYRn9GRJ-109">
          <mxGeometry y="155.875" width="192" height="8" as="geometry" />
        </mxCell>
        <mxCell id="sSb7Ek46W5UhPYRn9GRJ-116" value="+createAnnouncement()" style="text;strokeColor=none;fillColor=none;align=left;verticalAlign=top;spacingLeft=4;spacingRight=4;overflow=hidden;rotatable=0;points=[[0,0.5],[1,0.5]];portConstraint=eastwest;" vertex="1" parent="sSb7Ek46W5UhPYRn9GRJ-109">
          <mxGeometry y="163.875" width="192" height="26" as="geometry" />
        </mxCell>
        <mxCell id="sSb7Ek46W5UhPYRn9GRJ-117" value="+updateAnnouncement()" style="text;strokeColor=none;fillColor=none;align=left;verticalAlign=top;spacingLeft=4;spacingRight=4;overflow=hidden;rotatable=0;points=[[0,0.5],[1,0.5]];portConstraint=eastwest;" vertex="1" parent="sSb7Ek46W5UhPYRn9GRJ-109">
          <mxGeometry y="189.875" width="192" height="26" as="geometry" />
        </mxCell>
        <mxCell id="sSb7Ek46W5UhPYRn9GRJ-118" value="Chat" style="swimlane;fontStyle=1;align=center;verticalAlign=top;childLayout=stackLayout;horizontal=1;startSize=27.9;horizontalStack=0;resizeParent=1;resizeParentMax=0;resizeLast=0;collapsible=0;marginBottom=0;" vertex="1" parent="1">
          <mxGeometry x="1480" y="454" width="146" height="147.9" as="geometry" />
        </mxCell>
        <mxCell id="sSb7Ek46W5UhPYRn9GRJ-119" value="-int chatId" style="text;strokeColor=none;fillColor=none;align=left;verticalAlign=top;spacingLeft=4;spacingRight=4;overflow=hidden;rotatable=0;points=[[0,0.5],[1,0.5]];portConstraint=eastwest;" vertex="1" parent="sSb7Ek46W5UhPYRn9GRJ-118">
          <mxGeometry y="27.9" width="146" height="28" as="geometry" />
        </mxCell>
        <mxCell id="sSb7Ek46W5UhPYRn9GRJ-120" value="-string chatType" style="text;strokeColor=none;fillColor=none;align=left;verticalAlign=top;spacingLeft=4;spacingRight=4;overflow=hidden;rotatable=0;points=[[0,0.5],[1,0.5]];portConstraint=eastwest;" vertex="1" parent="sSb7Ek46W5UhPYRn9GRJ-118">
          <mxGeometry y="55.9" width="146" height="28" as="geometry" />
        </mxCell>
        <mxCell id="sSb7Ek46W5UhPYRn9GRJ-121" style="line;strokeWidth=1;fillColor=none;align=left;verticalAlign=middle;spacingTop=-1;spacingLeft=3;spacingRight=3;rotatable=0;labelPosition=right;points=[];portConstraint=eastwest;strokeColor=inherit;" vertex="1" parent="sSb7Ek46W5UhPYRn9GRJ-118">
          <mxGeometry y="83.9" width="146" height="8" as="geometry" />
        </mxCell>
        <mxCell id="sSb7Ek46W5UhPYRn9GRJ-122" value="+sendMessage()" style="text;strokeColor=none;fillColor=none;align=left;verticalAlign=top;spacingLeft=4;spacingRight=4;overflow=hidden;rotatable=0;points=[[0,0.5],[1,0.5]];portConstraint=eastwest;" vertex="1" parent="sSb7Ek46W5UhPYRn9GRJ-118">
          <mxGeometry y="91.9" width="146" height="28" as="geometry" />
        </mxCell>
        <mxCell id="sSb7Ek46W5UhPYRn9GRJ-123" value="+receiveMessage()" style="text;strokeColor=none;fillColor=none;align=left;verticalAlign=top;spacingLeft=4;spacingRight=4;overflow=hidden;rotatable=0;points=[[0,0.5],[1,0.5]];portConstraint=eastwest;" vertex="1" parent="sSb7Ek46W5UhPYRn9GRJ-118">
          <mxGeometry y="119.9" width="146" height="28" as="geometry" />
        </mxCell>
        <mxCell id="sSb7Ek46W5UhPYRn9GRJ-124" value="Message" style="swimlane;fontStyle=1;align=center;verticalAlign=top;childLayout=stackLayout;horizontal=1;startSize=26.357142857142858;horizontalStack=0;resizeParent=1;resizeParentMax=0;resizeLast=0;collapsible=0;marginBottom=0;" vertex="1" parent="1">
          <mxGeometry x="1474" y="753" width="159" height="190.35714285714286" as="geometry" />
        </mxCell>
        <mxCell id="sSb7Ek46W5UhPYRn9GRJ-125" value="-int messageId" style="text;strokeColor=none;fillColor=none;align=left;verticalAlign=top;spacingLeft=4;spacingRight=4;overflow=hidden;rotatable=0;points=[[0,0.5],[1,0.5]];portConstraint=eastwest;" vertex="1" parent="sSb7Ek46W5UhPYRn9GRJ-124">
          <mxGeometry y="26.357142857142858" width="159" height="26" as="geometry" />
        </mxCell>
        <mxCell id="sSb7Ek46W5UhPYRn9GRJ-126" value="-int chatId" style="text;strokeColor=none;fillColor=none;align=left;verticalAlign=top;spacingLeft=4;spacingRight=4;overflow=hidden;rotatable=0;points=[[0,0.5],[1,0.5]];portConstraint=eastwest;" vertex="1" parent="sSb7Ek46W5UhPYRn9GRJ-124">
          <mxGeometry y="52.35714285714286" width="159" height="26" as="geometry" />
        </mxCell>
        <mxCell id="sSb7Ek46W5UhPYRn9GRJ-127" value="-int senderId" style="text;strokeColor=none;fillColor=none;align=left;verticalAlign=top;spacingLeft=4;spacingRight=4;overflow=hidden;rotatable=0;points=[[0,0.5],[1,0.5]];portConstraint=eastwest;" vertex="1" parent="sSb7Ek46W5UhPYRn9GRJ-124">
          <mxGeometry y="78.35714285714286" width="159" height="26" as="geometry" />
        </mxCell>
        <mxCell id="sSb7Ek46W5UhPYRn9GRJ-128" value="-string content" style="text;strokeColor=none;fillColor=none;align=left;verticalAlign=top;spacingLeft=4;spacingRight=4;overflow=hidden;rotatable=0;points=[[0,0.5],[1,0.5]];portConstraint=eastwest;" vertex="1" parent="sSb7Ek46W5UhPYRn9GRJ-124">
          <mxGeometry y="104.35714285714286" width="159" height="26" as="geometry" />
        </mxCell>
        <mxCell id="sSb7Ek46W5UhPYRn9GRJ-129" value="-datetime sendTime" style="text;strokeColor=none;fillColor=none;align=left;verticalAlign=top;spacingLeft=4;spacingRight=4;overflow=hidden;rotatable=0;points=[[0,0.5],[1,0.5]];portConstraint=eastwest;" vertex="1" parent="sSb7Ek46W5UhPYRn9GRJ-124">
          <mxGeometry y="130.35714285714286" width="159" height="26" as="geometry" />
        </mxCell>
        <mxCell id="sSb7Ek46W5UhPYRn9GRJ-130" style="line;strokeWidth=1;fillColor=none;align=left;verticalAlign=middle;spacingTop=-1;spacingLeft=3;spacingRight=3;rotatable=0;labelPosition=right;points=[];portConstraint=eastwest;strokeColor=inherit;" vertex="1" parent="sSb7Ek46W5UhPYRn9GRJ-124">
          <mxGeometry y="156.35714285714286" width="159" height="8" as="geometry" />
        </mxCell>
        <mxCell id="sSb7Ek46W5UhPYRn9GRJ-131" value="+createMessage()" style="text;strokeColor=none;fillColor=none;align=left;verticalAlign=top;spacingLeft=4;spacingRight=4;overflow=hidden;rotatable=0;points=[[0,0.5],[1,0.5]];portConstraint=eastwest;" vertex="1" parent="sSb7Ek46W5UhPYRn9GRJ-124">
          <mxGeometry y="164.35714285714286" width="159" height="26" as="geometry" />
        </mxCell>
        <mxCell id="sSb7Ek46W5UhPYRn9GRJ-132" value="Notification" style="swimlane;fontStyle=1;align=center;verticalAlign=top;childLayout=stackLayout;horizontal=1;startSize=25.5;horizontalStack=0;resizeParent=1;resizeParentMax=0;resizeLast=0;collapsible=0;marginBottom=0;" vertex="1" parent="1">
          <mxGeometry x="1676" y="409" width="167" height="241.5" as="geometry" />
        </mxCell>
        <mxCell id="sSb7Ek46W5UhPYRn9GRJ-133" value="-int notificationId" style="text;strokeColor=none;fillColor=none;align=left;verticalAlign=top;spacingLeft=4;spacingRight=4;overflow=hidden;rotatable=0;points=[[0,0.5],[1,0.5]];portConstraint=eastwest;" vertex="1" parent="sSb7Ek46W5UhPYRn9GRJ-132">
          <mxGeometry y="25.5" width="167" height="26" as="geometry" />
        </mxCell>
        <mxCell id="sSb7Ek46W5UhPYRn9GRJ-134" value="-int userId" style="text;strokeColor=none;fillColor=none;align=left;verticalAlign=top;spacingLeft=4;spacingRight=4;overflow=hidden;rotatable=0;points=[[0,0.5],[1,0.5]];portConstraint=eastwest;" vertex="1" parent="sSb7Ek46W5UhPYRn9GRJ-132">
          <mxGeometry y="51.5" width="167" height="26" as="geometry" />
        </mxCell>
        <mxCell id="sSb7Ek46W5UhPYRn9GRJ-135" value="-string content" style="text;strokeColor=none;fillColor=none;align=left;verticalAlign=top;spacingLeft=4;spacingRight=4;overflow=hidden;rotatable=0;points=[[0,0.5],[1,0.5]];portConstraint=eastwest;" vertex="1" parent="sSb7Ek46W5UhPYRn9GRJ-132">
          <mxGeometry y="77.5" width="167" height="26" as="geometry" />
        </mxCell>
        <mxCell id="sSb7Ek46W5UhPYRn9GRJ-136" value="-string type" style="text;strokeColor=none;fillColor=none;align=left;verticalAlign=top;spacingLeft=4;spacingRight=4;overflow=hidden;rotatable=0;points=[[0,0.5],[1,0.5]];portConstraint=eastwest;" vertex="1" parent="sSb7Ek46W5UhPYRn9GRJ-132">
          <mxGeometry y="103.5" width="167" height="26" as="geometry" />
        </mxCell>
        <mxCell id="sSb7Ek46W5UhPYRn9GRJ-137" value="-datetime timestamp" style="text;strokeColor=none;fillColor=none;align=left;verticalAlign=top;spacingLeft=4;spacingRight=4;overflow=hidden;rotatable=0;points=[[0,0.5],[1,0.5]];portConstraint=eastwest;" vertex="1" parent="sSb7Ek46W5UhPYRn9GRJ-132">
          <mxGeometry y="129.5" width="167" height="26" as="geometry" />
        </mxCell>
        <mxCell id="sSb7Ek46W5UhPYRn9GRJ-138" value="-boolean isRead" style="text;strokeColor=none;fillColor=none;align=left;verticalAlign=top;spacingLeft=4;spacingRight=4;overflow=hidden;rotatable=0;points=[[0,0.5],[1,0.5]];portConstraint=eastwest;" vertex="1" parent="sSb7Ek46W5UhPYRn9GRJ-132">
          <mxGeometry y="155.5" width="167" height="26" as="geometry" />
        </mxCell>
        <mxCell id="sSb7Ek46W5UhPYRn9GRJ-139" style="line;strokeWidth=1;fillColor=none;align=left;verticalAlign=middle;spacingTop=-1;spacingLeft=3;spacingRight=3;rotatable=0;labelPosition=right;points=[];portConstraint=eastwest;strokeColor=inherit;" vertex="1" parent="sSb7Ek46W5UhPYRn9GRJ-132">
          <mxGeometry y="181.5" width="167" height="8" as="geometry" />
        </mxCell>
        <mxCell id="sSb7Ek46W5UhPYRn9GRJ-140" value="+createNotification()" style="text;strokeColor=none;fillColor=none;align=left;verticalAlign=top;spacingLeft=4;spacingRight=4;overflow=hidden;rotatable=0;points=[[0,0.5],[1,0.5]];portConstraint=eastwest;" vertex="1" parent="sSb7Ek46W5UhPYRn9GRJ-132">
          <mxGeometry y="189.5" width="167" height="26" as="geometry" />
        </mxCell>
        <mxCell id="sSb7Ek46W5UhPYRn9GRJ-141" value="+markAsRead()" style="text;strokeColor=none;fillColor=none;align=left;verticalAlign=top;spacingLeft=4;spacingRight=4;overflow=hidden;rotatable=0;points=[[0,0.5],[1,0.5]];portConstraint=eastwest;" vertex="1" parent="sSb7Ek46W5UhPYRn9GRJ-132">
          <mxGeometry y="215.5" width="167" height="26" as="geometry" />
        </mxCell>
        <mxCell id="sSb7Ek46W5UhPYRn9GRJ-142" value="Payment" style="swimlane;fontStyle=1;align=center;verticalAlign=top;childLayout=stackLayout;horizontal=1;startSize=25.2;horizontalStack=0;resizeParent=1;resizeParentMax=0;resizeLast=0;collapsible=0;marginBottom=0;" vertex="1" parent="1">
          <mxGeometry x="1894" y="398" width="187" height="258.2" as="geometry" />
        </mxCell>
        <mxCell id="sSb7Ek46W5UhPYRn9GRJ-143" value="-int paymentId" style="text;strokeColor=none;fillColor=none;align=left;verticalAlign=top;spacingLeft=4;spacingRight=4;overflow=hidden;rotatable=0;points=[[0,0.5],[1,0.5]];portConstraint=eastwest;" vertex="1" parent="sSb7Ek46W5UhPYRn9GRJ-142">
          <mxGeometry y="25.2" width="187" height="25" as="geometry" />
        </mxCell>
        <mxCell id="sSb7Ek46W5UhPYRn9GRJ-144" value="-int payerId" style="text;strokeColor=none;fillColor=none;align=left;verticalAlign=top;spacingLeft=4;spacingRight=4;overflow=hidden;rotatable=0;points=[[0,0.5],[1,0.5]];portConstraint=eastwest;" vertex="1" parent="sSb7Ek46W5UhPYRn9GRJ-142">
          <mxGeometry y="50.2" width="187" height="25" as="geometry" />
        </mxCell>
        <mxCell id="sSb7Ek46W5UhPYRn9GRJ-145" value="-int receiverId" style="text;strokeColor=none;fillColor=none;align=left;verticalAlign=top;spacingLeft=4;spacingRight=4;overflow=hidden;rotatable=0;points=[[0,0.5],[1,0.5]];portConstraint=eastwest;" vertex="1" parent="sSb7Ek46W5UhPYRn9GRJ-142">
          <mxGeometry y="75.2" width="187" height="25" as="geometry" />
        </mxCell>
        <mxCell id="sSb7Ek46W5UhPYRn9GRJ-146" value="-float amount" style="text;strokeColor=none;fillColor=none;align=left;verticalAlign=top;spacingLeft=4;spacingRight=4;overflow=hidden;rotatable=0;points=[[0,0.5],[1,0.5]];portConstraint=eastwest;" vertex="1" parent="sSb7Ek46W5UhPYRn9GRJ-142">
          <mxGeometry y="100.2" width="187" height="25" as="geometry" />
        </mxCell>
        <mxCell id="sSb7Ek46W5UhPYRn9GRJ-147" value="-string paymentType" style="text;strokeColor=none;fillColor=none;align=left;verticalAlign=top;spacingLeft=4;spacingRight=4;overflow=hidden;rotatable=0;points=[[0,0.5],[1,0.5]];portConstraint=eastwest;" vertex="1" parent="sSb7Ek46W5UhPYRn9GRJ-142">
          <mxGeometry y="125.2" width="187" height="25" as="geometry" />
        </mxCell>
        <mxCell id="sSb7Ek46W5UhPYRn9GRJ-148" value="-datetime paymentDate" style="text;strokeColor=none;fillColor=none;align=left;verticalAlign=top;spacingLeft=4;spacingRight=4;overflow=hidden;rotatable=0;points=[[0,0.5],[1,0.5]];portConstraint=eastwest;" vertex="1" parent="sSb7Ek46W5UhPYRn9GRJ-142">
          <mxGeometry y="150.2" width="187" height="25" as="geometry" />
        </mxCell>
        <mxCell id="sSb7Ek46W5UhPYRn9GRJ-149" value="-string status" style="text;strokeColor=none;fillColor=none;align=left;verticalAlign=top;spacingLeft=4;spacingRight=4;overflow=hidden;rotatable=0;points=[[0,0.5],[1,0.5]];portConstraint=eastwest;" vertex="1" parent="sSb7Ek46W5UhPYRn9GRJ-142">
          <mxGeometry y="175.2" width="187" height="25" as="geometry" />
        </mxCell>
        <mxCell id="sSb7Ek46W5UhPYRn9GRJ-150" style="line;strokeWidth=1;fillColor=none;align=left;verticalAlign=middle;spacingTop=-1;spacingLeft=3;spacingRight=3;rotatable=0;labelPosition=right;points=[];portConstraint=eastwest;strokeColor=inherit;" vertex="1" parent="sSb7Ek46W5UhPYRn9GRJ-142">
          <mxGeometry y="200.2" width="187" height="8" as="geometry" />
        </mxCell>
        <mxCell id="sSb7Ek46W5UhPYRn9GRJ-151" value="+processPayment()" style="text;strokeColor=none;fillColor=none;align=left;verticalAlign=top;spacingLeft=4;spacingRight=4;overflow=hidden;rotatable=0;points=[[0,0.5],[1,0.5]];portConstraint=eastwest;" vertex="1" parent="sSb7Ek46W5UhPYRn9GRJ-142">
          <mxGeometry y="208.2" width="187" height="25" as="geometry" />
        </mxCell>
        <mxCell id="sSb7Ek46W5UhPYRn9GRJ-152" value="+refundPayment()" style="text;strokeColor=none;fillColor=none;align=left;verticalAlign=top;spacingLeft=4;spacingRight=4;overflow=hidden;rotatable=0;points=[[0,0.5],[1,0.5]];portConstraint=eastwest;" vertex="1" parent="sSb7Ek46W5UhPYRn9GRJ-142">
          <mxGeometry y="233.2" width="187" height="25" as="geometry" />
        </mxCell>
        <mxCell id="sSb7Ek46W5UhPYRn9GRJ-153" value="" style="curved=1;startArrow=block;startSize=16;startFill=0;endArrow=none;exitX=0;exitY=0.55;entryX=0.5;entryY=0;rounded=0;" edge="1" parent="1" source="sSb7Ek46W5UhPYRn9GRJ-1" target="sSb7Ek46W5UhPYRn9GRJ-15">
          <mxGeometry relative="1" as="geometry">
            <Array as="points">
              <mxPoint x="93" y="373" />
            </Array>
          </mxGeometry>
        </mxCell>
        <mxCell id="sSb7Ek46W5UhPYRn9GRJ-154" value="" style="curved=1;startArrow=block;startSize=16;startFill=0;endArrow=none;exitX=0;exitY=0.56;entryX=0.5;entryY=0;rounded=0;" edge="1" parent="1" source="sSb7Ek46W5UhPYRn9GRJ-1" target="sSb7Ek46W5UhPYRn9GRJ-22">
          <mxGeometry relative="1" as="geometry">
            <Array as="points">
              <mxPoint x="312" y="373" />
            </Array>
          </mxGeometry>
        </mxCell>
        <mxCell id="sSb7Ek46W5UhPYRn9GRJ-155" value="" style="curved=1;startArrow=none;endArrow=none;exitX=0;exitY=0.59;entryX=0.5;entryY=0;rounded=0;" edge="1" parent="1" source="sSb7Ek46W5UhPYRn9GRJ-1" target="sSb7Ek46W5UhPYRn9GRJ-26">
          <mxGeometry relative="1" as="geometry">
            <Array as="points">
              <mxPoint x="532" y="373" />
            </Array>
          </mxGeometry>
        </mxCell>
        <mxCell id="sSb7Ek46W5UhPYRn9GRJ-156" value="1" style="edgeLabel;resizable=0;labelBackgroundColor=none;fontSize=12;align=right;verticalAlign=top;" vertex="1" parent="sSb7Ek46W5UhPYRn9GRJ-155">
          <mxGeometry x="-1" relative="1" as="geometry" />
        </mxCell>
        <mxCell id="sSb7Ek46W5UhPYRn9GRJ-157" value="0..*" style="edgeLabel;resizable=0;labelBackgroundColor=none;fontSize=12;align=left;verticalAlign=bottom;" vertex="1" parent="sSb7Ek46W5UhPYRn9GRJ-155">
          <mxGeometry x="1" relative="1" as="geometry" />
        </mxCell>
        <mxCell id="sSb7Ek46W5UhPYRn9GRJ-158" value="" style="curved=1;startArrow=none;endArrow=none;exitX=0.5;exitY=1;entryX=0.5;entryY=0;rounded=0;" edge="1" parent="1" source="sSb7Ek46W5UhPYRn9GRJ-26" target="sSb7Ek46W5UhPYRn9GRJ-36">
          <mxGeometry relative="1" as="geometry">
            <Array as="points" />
          </mxGeometry>
        </mxCell>
        <mxCell id="sSb7Ek46W5UhPYRn9GRJ-159" value="1" style="edgeLabel;resizable=0;labelBackgroundColor=none;fontSize=12;align=right;verticalAlign=top;" vertex="1" parent="sSb7Ek46W5UhPYRn9GRJ-158">
          <mxGeometry x="-1" relative="1" as="geometry" />
        </mxCell>
        <mxCell id="sSb7Ek46W5UhPYRn9GRJ-160" value="0..*" style="edgeLabel;resizable=0;labelBackgroundColor=none;fontSize=12;align=left;verticalAlign=bottom;" vertex="1" parent="sSb7Ek46W5UhPYRn9GRJ-158">
          <mxGeometry x="1" relative="1" as="geometry" />
        </mxCell>
        <mxCell id="sSb7Ek46W5UhPYRn9GRJ-161" value="" style="curved=1;startArrow=none;endArrow=none;exitX=0;exitY=0.65;entryX=0.5;entryY=0;rounded=0;" edge="1" parent="1" source="sSb7Ek46W5UhPYRn9GRJ-1" target="sSb7Ek46W5UhPYRn9GRJ-46">
          <mxGeometry relative="1" as="geometry">
            <Array as="points">
              <mxPoint x="741" y="373" />
            </Array>
          </mxGeometry>
        </mxCell>
        <mxCell id="sSb7Ek46W5UhPYRn9GRJ-162" value="1" style="edgeLabel;resizable=0;labelBackgroundColor=none;fontSize=12;align=right;verticalAlign=top;" vertex="1" parent="sSb7Ek46W5UhPYRn9GRJ-161">
          <mxGeometry x="-1" relative="1" as="geometry" />
        </mxCell>
        <mxCell id="sSb7Ek46W5UhPYRn9GRJ-163" value="0..1" style="edgeLabel;resizable=0;labelBackgroundColor=none;fontSize=12;align=left;verticalAlign=bottom;" vertex="1" parent="sSb7Ek46W5UhPYRn9GRJ-161">
          <mxGeometry x="1" relative="1" as="geometry" />
        </mxCell>
        <mxCell id="sSb7Ek46W5UhPYRn9GRJ-164" value="" style="curved=1;startArrow=none;endArrow=none;exitX=0.5;exitY=1;entryX=0.5;entryY=0;rounded=0;" edge="1" parent="1" source="sSb7Ek46W5UhPYRn9GRJ-46" target="sSb7Ek46W5UhPYRn9GRJ-56">
          <mxGeometry relative="1" as="geometry">
            <Array as="points" />
          </mxGeometry>
        </mxCell>
        <mxCell id="sSb7Ek46W5UhPYRn9GRJ-165" value="1" style="edgeLabel;resizable=0;labelBackgroundColor=none;fontSize=12;align=right;verticalAlign=top;" vertex="1" parent="sSb7Ek46W5UhPYRn9GRJ-164">
          <mxGeometry x="-1" relative="1" as="geometry" />
        </mxCell>
        <mxCell id="sSb7Ek46W5UhPYRn9GRJ-166" value="0..*" style="edgeLabel;resizable=0;labelBackgroundColor=none;fontSize=12;align=left;verticalAlign=bottom;" vertex="1" parent="sSb7Ek46W5UhPYRn9GRJ-164">
          <mxGeometry x="1" relative="1" as="geometry" />
        </mxCell>
        <mxCell id="sSb7Ek46W5UhPYRn9GRJ-167" value="" style="curved=1;startArrow=none;endArrow=none;exitX=0;exitY=0.98;entryX=0.5;entryY=0;rounded=0;" edge="1" parent="1" source="sSb7Ek46W5UhPYRn9GRJ-1" target="sSb7Ek46W5UhPYRn9GRJ-68">
          <mxGeometry relative="1" as="geometry">
            <Array as="points">
              <mxPoint x="950" y="373" />
            </Array>
          </mxGeometry>
        </mxCell>
        <mxCell id="sSb7Ek46W5UhPYRn9GRJ-168" value="1" style="edgeLabel;resizable=0;labelBackgroundColor=none;fontSize=12;align=right;verticalAlign=top;" vertex="1" parent="sSb7Ek46W5UhPYRn9GRJ-167">
          <mxGeometry x="-1" relative="1" as="geometry" />
        </mxCell>
        <mxCell id="sSb7Ek46W5UhPYRn9GRJ-169" value="0..*" style="edgeLabel;resizable=0;labelBackgroundColor=none;fontSize=12;align=left;verticalAlign=bottom;" vertex="1" parent="sSb7Ek46W5UhPYRn9GRJ-167">
          <mxGeometry x="1" relative="1" as="geometry" />
        </mxCell>
        <mxCell id="sSb7Ek46W5UhPYRn9GRJ-170" value="" style="curved=1;startArrow=none;endArrow=none;exitX=1;exitY=0.98;entryX=0.5;entryY=0;rounded=0;" edge="1" parent="1" source="sSb7Ek46W5UhPYRn9GRJ-1" target="sSb7Ek46W5UhPYRn9GRJ-79">
          <mxGeometry relative="1" as="geometry">
            <Array as="points">
              <mxPoint x="1147" y="373" />
            </Array>
          </mxGeometry>
        </mxCell>
        <mxCell id="sSb7Ek46W5UhPYRn9GRJ-171" value="0..*" style="edgeLabel;resizable=0;labelBackgroundColor=none;fontSize=12;align=right;verticalAlign=top;" vertex="1" parent="sSb7Ek46W5UhPYRn9GRJ-170">
          <mxGeometry x="-1" relative="1" as="geometry" />
        </mxCell>
        <mxCell id="sSb7Ek46W5UhPYRn9GRJ-172" value="0..*" style="edgeLabel;resizable=0;labelBackgroundColor=none;fontSize=12;align=left;verticalAlign=bottom;" vertex="1" parent="sSb7Ek46W5UhPYRn9GRJ-170">
          <mxGeometry x="1" relative="1" as="geometry" />
        </mxCell>
        <mxCell id="sSb7Ek46W5UhPYRn9GRJ-173" value="" style="curved=1;startArrow=none;endArrow=none;exitX=0.5;exitY=1;entryX=0.5;entryY=0;rounded=0;" edge="1" parent="1" source="sSb7Ek46W5UhPYRn9GRJ-79" target="sSb7Ek46W5UhPYRn9GRJ-87">
          <mxGeometry relative="1" as="geometry">
            <Array as="points" />
          </mxGeometry>
        </mxCell>
        <mxCell id="sSb7Ek46W5UhPYRn9GRJ-174" value="1" style="edgeLabel;resizable=0;labelBackgroundColor=none;fontSize=12;align=right;verticalAlign=top;" vertex="1" parent="sSb7Ek46W5UhPYRn9GRJ-173">
          <mxGeometry x="-1" relative="1" as="geometry" />
        </mxCell>
        <mxCell id="sSb7Ek46W5UhPYRn9GRJ-175" value="0..*" style="edgeLabel;resizable=0;labelBackgroundColor=none;fontSize=12;align=left;verticalAlign=bottom;" vertex="1" parent="sSb7Ek46W5UhPYRn9GRJ-173">
          <mxGeometry x="1" relative="1" as="geometry" />
        </mxCell>
        <mxCell id="sSb7Ek46W5UhPYRn9GRJ-176" value="" style="curved=1;startArrow=none;endArrow=none;exitX=1;exitY=0.66;entryX=0.5;entryY=0;rounded=0;" edge="1" parent="1" source="sSb7Ek46W5UhPYRn9GRJ-1" target="sSb7Ek46W5UhPYRn9GRJ-98">
          <mxGeometry relative="1" as="geometry">
            <Array as="points">
              <mxPoint x="1351" y="373" />
            </Array>
          </mxGeometry>
        </mxCell>
        <mxCell id="sSb7Ek46W5UhPYRn9GRJ-177" value="1" style="edgeLabel;resizable=0;labelBackgroundColor=none;fontSize=12;align=left;verticalAlign=top;" vertex="1" parent="sSb7Ek46W5UhPYRn9GRJ-176">
          <mxGeometry x="-1" relative="1" as="geometry" />
        </mxCell>
        <mxCell id="sSb7Ek46W5UhPYRn9GRJ-178" value="0..*" style="edgeLabel;resizable=0;labelBackgroundColor=none;fontSize=12;align=right;verticalAlign=bottom;" vertex="1" parent="sSb7Ek46W5UhPYRn9GRJ-176">
          <mxGeometry x="1" relative="1" as="geometry" />
        </mxCell>
        <mxCell id="sSb7Ek46W5UhPYRn9GRJ-179" value="" style="curved=1;startArrow=none;endArrow=none;exitX=0.5;exitY=1;entryX=0.5;entryY=0;rounded=0;" edge="1" parent="1" source="sSb7Ek46W5UhPYRn9GRJ-22" target="sSb7Ek46W5UhPYRn9GRJ-109">
          <mxGeometry relative="1" as="geometry">
            <Array as="points" />
          </mxGeometry>
        </mxCell>
        <mxCell id="sSb7Ek46W5UhPYRn9GRJ-180" value="1" style="edgeLabel;resizable=0;labelBackgroundColor=none;fontSize=12;align=right;verticalAlign=top;" vertex="1" parent="sSb7Ek46W5UhPYRn9GRJ-179">
          <mxGeometry x="-1" relative="1" as="geometry" />
        </mxCell>
        <mxCell id="sSb7Ek46W5UhPYRn9GRJ-181" value="0..*" style="edgeLabel;resizable=0;labelBackgroundColor=none;fontSize=12;align=left;verticalAlign=bottom;" vertex="1" parent="sSb7Ek46W5UhPYRn9GRJ-179">
          <mxGeometry x="1" relative="1" as="geometry" />
        </mxCell>
        <mxCell id="sSb7Ek46W5UhPYRn9GRJ-182" value="" style="curved=1;startArrow=none;endArrow=none;exitX=1;exitY=0.59;entryX=0.5;entryY=0;rounded=0;" edge="1" parent="1" source="sSb7Ek46W5UhPYRn9GRJ-1" target="sSb7Ek46W5UhPYRn9GRJ-118">
          <mxGeometry relative="1" as="geometry">
            <Array as="points">
              <mxPoint x="1553" y="373" />
            </Array>
          </mxGeometry>
        </mxCell>
        <mxCell id="sSb7Ek46W5UhPYRn9GRJ-183" value="0..*" style="edgeLabel;resizable=0;labelBackgroundColor=none;fontSize=12;align=left;verticalAlign=top;" vertex="1" parent="sSb7Ek46W5UhPYRn9GRJ-182">
          <mxGeometry x="-1" relative="1" as="geometry" />
        </mxCell>
        <mxCell id="sSb7Ek46W5UhPYRn9GRJ-184" value="0..*" style="edgeLabel;resizable=0;labelBackgroundColor=none;fontSize=12;align=right;verticalAlign=bottom;" vertex="1" parent="sSb7Ek46W5UhPYRn9GRJ-182">
          <mxGeometry x="1" relative="1" as="geometry" />
        </mxCell>
        <mxCell id="sSb7Ek46W5UhPYRn9GRJ-185" value="" style="curved=1;startArrow=none;endArrow=none;exitX=0.5;exitY=0.99;entryX=0.5;entryY=0;rounded=0;" edge="1" parent="1" source="sSb7Ek46W5UhPYRn9GRJ-118" target="sSb7Ek46W5UhPYRn9GRJ-124">
          <mxGeometry relative="1" as="geometry">
            <Array as="points" />
          </mxGeometry>
        </mxCell>
        <mxCell id="sSb7Ek46W5UhPYRn9GRJ-186" value="1" style="edgeLabel;resizable=0;labelBackgroundColor=none;fontSize=12;align=right;verticalAlign=top;" vertex="1" parent="sSb7Ek46W5UhPYRn9GRJ-185">
          <mxGeometry x="-1" relative="1" as="geometry" />
        </mxCell>
        <mxCell id="sSb7Ek46W5UhPYRn9GRJ-187" value="0..*" style="edgeLabel;resizable=0;labelBackgroundColor=none;fontSize=12;align=left;verticalAlign=bottom;" vertex="1" parent="sSb7Ek46W5UhPYRn9GRJ-185">
          <mxGeometry x="1" relative="1" as="geometry" />
        </mxCell>
        <mxCell id="sSb7Ek46W5UhPYRn9GRJ-188" value="" style="curved=1;startArrow=none;endArrow=none;exitX=1;exitY=0.57;entryX=0.5;entryY=0;rounded=0;" edge="1" parent="1" source="sSb7Ek46W5UhPYRn9GRJ-1" target="sSb7Ek46W5UhPYRn9GRJ-132">
          <mxGeometry relative="1" as="geometry">
            <Array as="points">
              <mxPoint x="1760" y="373" />
            </Array>
          </mxGeometry>
        </mxCell>
        <mxCell id="sSb7Ek46W5UhPYRn9GRJ-189" value="1" style="edgeLabel;resizable=0;labelBackgroundColor=none;fontSize=12;align=left;verticalAlign=top;" vertex="1" parent="sSb7Ek46W5UhPYRn9GRJ-188">
          <mxGeometry x="-1" relative="1" as="geometry" />
        </mxCell>
        <mxCell id="sSb7Ek46W5UhPYRn9GRJ-190" value="0..*" style="edgeLabel;resizable=0;labelBackgroundColor=none;fontSize=12;align=right;verticalAlign=bottom;" vertex="1" parent="sSb7Ek46W5UhPYRn9GRJ-188">
          <mxGeometry x="1" relative="1" as="geometry" />
        </mxCell>
        <mxCell id="sSb7Ek46W5UhPYRn9GRJ-191" value="" style="curved=1;startArrow=none;endArrow=none;exitX=1;exitY=0.55;entryX=0.5;entryY=0;rounded=0;" edge="1" parent="1" source="sSb7Ek46W5UhPYRn9GRJ-1" target="sSb7Ek46W5UhPYRn9GRJ-142">
          <mxGeometry relative="1" as="geometry">
            <Array as="points">
              <mxPoint x="1987" y="373" />
            </Array>
          </mxGeometry>
        </mxCell>
        <mxCell id="sSb7Ek46W5UhPYRn9GRJ-192" value="1" style="edgeLabel;resizable=0;labelBackgroundColor=none;fontSize=12;align=left;verticalAlign=top;" vertex="1" parent="sSb7Ek46W5UhPYRn9GRJ-191">
          <mxGeometry x="-1" relative="1" as="geometry" />
        </mxCell>
        <mxCell id="sSb7Ek46W5UhPYRn9GRJ-193" value="0..*" style="edgeLabel;resizable=0;labelBackgroundColor=none;fontSize=12;align=right;verticalAlign=bottom;" vertex="1" parent="sSb7Ek46W5UhPYRn9GRJ-191">
          <mxGeometry x="1" relative="1" as="geometry" />
        </mxCell>
      </root>
    </mxGraphModel>
  </diagram>
</mxfile>
